<svg width="16" height="16" viewBox="0 0 16 16" fill="none" xmlns="http://www.w3.org/2000/svg">
<path d="M12.9427 3.33333H10V0.390667L12.9427 3.33333ZM13 12C15.0293 12 15.8527 11.4593 16 11.2807V9.66667C16 9.078 14.7667 8.66667 13 8.66667C11.2333 8.66667 10 9.078 10 9.66667V11.2807C10.1473 11.4593 10.9707 12 13 12ZM13 16C14.906 16 16 15.4733 16 14.5553V12.6667C16 12.6667 15.3333 13.3333 13 13.3333C10.6667 13.3333 10 12.6667 10 12.6667V14.5553C10 15.4733 11.094 16 13 16ZM8.66667 14.5553V9.66667C8.66667 8.96533 9.08933 7.33333 13 7.33333C13.1173 7.33333 13.222 7.33933 13.3333 7.342V4.66667H8.66667V0H2C0.895333 0 0 0.895333 0 2V16H9.16733C8.73333 15.4387 8.66667 14.8487 8.66667 14.5553ZM4 13.3333H2.66667V10.6667H4V13.3333ZM6.66667 13.3333H5.33333V7.33333H6.66667V13.3333Z" fill="black"/>
<path d="M12.9427 3.33333H10V0.390667L12.9427 3.33333ZM13 12C15.0293 12 15.8527 11.4593 16 11.2807V9.66667C16 9.078 14.7667 8.66667 13 8.66667C11.2333 8.66667 10 9.078 10 9.66667V11.2807C10.1473 11.4593 10.9707 12 13 12ZM13 16C14.906 16 16 15.4733 16 14.5553V12.6667C16 12.6667 15.3333 13.3333 13 13.3333C10.6667 13.3333 10 12.6667 10 12.6667V14.5553C10 15.4733 11.094 16 13 16ZM8.66667 14.5553V9.66667C8.66667 8.96533 9.08933 7.33333 13 7.33333C13.1173 7.33333 13.222 7.33933 13.3333 7.342V4.66667H8.66667V0H2C0.895333 0 0 0.895333 0 2V16H9.16733C8.73333 15.4387 8.66667 14.8487 8.66667 14.5553ZM4 13.3333H2.66667V10.6667H4V13.3333ZM6.66667 13.3333H5.33333V7.33333H6.66667V13.3333Z" fill="url(#paint0_linear_248_1934)"/>
<defs>
<linearGradient id="paint0_linear_248_1934" x1="26.0109" y1="20.9231" x2="6.31395" y2="29.5772" gradientUnits="userSpaceOnUse">
<stop stop-color="#B07E39"/>
<stop offset="0.35" stop-color="#EFB861"/>
<stop offset="1" stop-color="#AE6E2F"/>
</linearGradient>
</defs>
</svg>
