<svg width="16" height="16" viewBox="0 0 16 16" fill="none" xmlns="http://www.w3.org/2000/svg">
<path d="M14 0H4.66667C3.562 0 2.66667 0.895333 2.66667 2V5.426C3.08867 5.36533 3.53467 5.33333 4 5.33333C4.46533 5.33333 4.91133 5.36533 5.33333 5.426V2.66667H13.3333V6.66667H8.354C8.97733 7.21267 9.33333 7.89733 9.33333 8.66667H10.6667V10H9.33333V11.3333H13.3333V12.6667H9.33333V13.6667C9.33333 14.5767 8.922 15.3793 8.20867 16H16V2C16 0.895333 15.1047 0 14 0ZM13.3333 10H12V8.66667H13.3333V10ZM12 4V5.33333H6.66667V4H12ZM8 8.66667C8 9.77133 6.20933 10.6667 4 10.6667C1.79067 10.6667 0 9.77133 0 8.66667C0 7.562 1.79067 6.66667 4 6.66667C6.20933 6.66667 8 7.562 8 8.66667ZM8 12.3333V13.6667C8 14.9967 6.28067 16 4 16C1.71933 16 0 14.9967 0 13.6667V12.3333C0 13.6473 1.66667 14.6667 4 14.6667C6.33333 14.6667 8 13.6473 8 12.3333ZM8 9.66667V11C8 12.33 6.28067 13.3333 4 13.3333C1.71933 13.3333 0 12.33 0 11V9.66667C0 10.9807 1.66667 12 4 12C6.33333 12 8 10.9807 8 9.66667Z" fill="url(#paint0_linear_248_1933)"/>
<defs>
<linearGradient id="paint0_linear_248_1933" x1="26.0109" y1="20.9231" x2="6.31395" y2="29.5772" gradientUnits="userSpaceOnUse">
<stop stop-color="#B07E39"/>
<stop offset="0.35" stop-color="#EFB861"/>
<stop offset="1" stop-color="#AE6E2F"/>
</linearGradient>
</defs>
</svg>
