<svg width="16" height="17" viewBox="0 0 16 17" fill="none" xmlns="http://www.w3.org/2000/svg">
<path d="M14.054 8.07197C14.0538 7.70084 14.02 7.33049 13.9531 6.96544L16 5.78492L13.982 2.28706L11.9344 3.47028C11.3691 2.98658 10.7194 2.61124 10.018 2.36307V0H5.98201V2.36307C5.28059 2.61124 4.63093 2.98658 4.06558 3.47028L2.01799 2.28706L0 5.78492L2.04692 6.96544C1.91246 7.697 1.91246 8.44695 2.04692 9.17851L0 10.359L2.01799 13.8569L4.06558 12.6743C4.63098 13.1578 5.28064 13.5329 5.98201 13.7809V16.1439H10.018V13.7809C10.7194 13.5327 11.3691 13.1574 11.9344 12.6737L13.982 13.8569L16 10.359L13.9531 9.17851C14.02 8.81346 14.0538 8.44311 14.054 8.07197ZM10.018 8.07197C10.018 8.4711 9.89964 8.86125 9.6779 9.19311C9.45616 9.52497 9.14099 9.78362 8.77225 9.93636C8.40351 10.0891 7.99776 10.1291 7.60631 10.0512C7.21486 9.97333 6.85528 9.78113 6.57306 9.49891C6.29084 9.21669 6.09865 8.85712 6.02078 8.46567C5.94292 8.07421 5.98288 7.66846 6.13562 7.29972C6.28835 6.93098 6.547 6.61581 6.87886 6.39407C7.21072 6.17233 7.60088 6.05398 8 6.05398C8.5352 6.05398 9.04849 6.26659 9.42694 6.64504C9.80538 7.02348 10.018 7.53677 10.018 8.07197Z" fill="url(#paint0_linear_248_1931)"/>
<defs>
<linearGradient id="paint0_linear_248_1931" x1="26.0109" y1="21.1113" x2="6.25721" y2="29.713" gradientUnits="userSpaceOnUse">
<stop stop-color="#B07E39"/>
<stop offset="0.35" stop-color="#EFB861"/>
<stop offset="1" stop-color="#AE6E2F"/>
</linearGradient>
</defs>
</svg>
