<svg width="180" height="180" viewBox="0 0 180 180" fill="none" xmlns="http://www.w3.org/2000/svg">
<circle cx="90" cy="90" r="88.7" fill="url(#paint0_linear_1_108)" fill-opacity="0.8" stroke="url(#paint1_linear_1_108)" stroke-width="2.6"/>
<path d="M139.801 55.6332H130.572C127.76 55.6332 125.472 57.9272 125.472 60.747V62.8177H119.629L105.894 54.8654C105.839 54.834 105.782 54.8073 105.724 54.7828L113.565 39.8614C114.347 38.3723 114.503 36.6623 114.003 35.0453C113.503 33.4284 112.412 32.1069 110.927 31.3217L107.533 29.5279C106.048 28.7438 104.343 28.5868 102.731 29.0881C101.118 29.5895 99.8004 30.6842 99.0174 32.1732L87.1923 54.6828H81.6046C78.9749 54.6828 76.6688 55.9659 75.2768 58.2041L75.2698 58.2145H52.8598C49.7823 58.2145 47.279 60.7249 47.279 63.8111V65.0128H46.0808C43.0033 65.0128 40.5 67.5243 40.5 70.6094V127.603C40.5 130.69 43.0033 133.2 46.0808 133.2H111.857C114.935 133.2 117.438 130.69 117.438 127.603V126.402H118.636C121.714 126.402 124.217 123.891 124.217 120.805V93.1388L125.472 92.5757V95.9458C125.472 98.7656 127.76 101.06 130.572 101.06H139.801C142.612 101.06 144.9 98.7656 144.9 95.9458V60.747C144.9 57.9272 142.612 55.6332 139.801 55.6332ZM79.4806 75.1904L89.2014 56.6918C89.2026 56.6906 89.2026 56.6895 89.2038 56.6871L95.0107 45.6359L104.759 50.7881L102.341 55.3912C102.34 55.3936 102.337 55.3971 102.336 55.3994L91.9367 75.1892L79.4806 75.1904ZM96.2751 43.2314L98.0789 39.7997L107.828 44.9519L106.024 48.3836L96.2751 43.2314ZM101.419 33.4423C101.863 32.5955 102.615 31.9731 103.534 31.6869C104.454 31.4008 105.426 31.4892 106.27 31.9359L109.664 33.7297C110.507 34.1752 111.129 34.929 111.414 35.8515C111.7 36.774 111.611 37.7488 111.167 38.5945L109.091 42.5451L99.3422 37.3929L101.419 33.4423ZM81.6034 57.4026H85.7632L76.4159 75.1904H75.6863C72.8315 75.1904 70.3886 76.983 69.4118 79.5039C67.956 77.9613 67.6707 75.572 68.8272 73.7119L77.5771 59.6419C78.4761 58.1983 79.9064 57.4026 81.6034 57.4026ZM92.1212 88.8253L97.6532 91.7905V95.171C97.6532 96.7007 96.412 97.9455 94.8866 97.9455C93.3612 97.9455 92.1212 96.7007 92.1212 95.171V88.8253ZM89.4091 95.1699C89.4091 96.6996 88.1679 97.9443 86.6425 97.9443C85.4465 97.9443 84.4072 97.1777 84.029 96.0714L87.9092 88.6869H89.4091V95.1699ZM77.6536 102.371L67.905 97.2184L72.7457 88.0075C73.6342 88.4426 74.6318 88.6869 75.6851 88.6869H84.8445L77.6536 102.371ZM67.4004 100.025L75.6294 104.375L67.2658 110.286L67.4004 100.025ZM49.9911 63.8111C49.9911 62.2244 51.2787 60.9343 52.8598 60.9343H73.5786L71.0416 65.0128H49.9911V63.8111ZM114.726 127.603C114.726 129.19 113.438 130.48 111.857 130.48H46.0808C44.4985 130.48 43.2121 129.189 43.2121 127.603V70.6094C43.2121 69.0226 44.4997 67.7314 46.0808 67.7314H69.3504L66.5258 72.2729C64.4586 75.5964 65.3194 79.9983 68.4862 82.2923L68.9954 82.661C69.1439 84.0465 69.7123 85.3075 70.5695 86.3138L64.8739 97.1521C64.86 97.1777 64.8496 97.2033 64.838 97.23C64.8322 97.2428 64.8252 97.2556 64.8206 97.2684C64.7997 97.3173 64.7834 97.3673 64.7684 97.4185C64.766 97.4266 64.7649 97.4348 64.7626 97.4429C64.751 97.4871 64.7417 97.5313 64.7347 97.5755C64.7324 97.5895 64.7312 97.6035 64.7289 97.6174C64.7231 97.6593 64.7208 97.7012 64.7196 97.7442C64.7196 97.7524 64.7173 97.7605 64.7173 97.7698L64.5375 111.571H49.6814C48.9332 111.571 48.3254 112.179 48.3254 112.931C48.3254 113.682 48.932 114.291 49.6814 114.291H65.8773C65.94 114.291 66.0014 114.285 66.0618 114.277C66.0745 114.275 66.0884 114.273 66.1012 114.271C66.2276 114.25 66.3471 114.212 66.4585 114.158C66.4689 114.154 66.4782 114.149 66.4875 114.144C66.5443 114.115 66.5977 114.084 66.6499 114.048C66.6522 114.047 66.6545 114.045 66.6568 114.043L79.0016 105.32C79.0224 105.306 79.0398 105.288 79.0596 105.273C79.0746 105.261 79.0897 105.25 79.1048 105.237C79.164 105.186 79.2185 105.132 79.2672 105.073C79.2742 105.064 79.28 105.054 79.2881 105.045C79.331 104.989 79.3693 104.931 79.4041 104.869C79.4087 104.86 79.4168 104.852 79.4215 104.843L82.5744 98.8435C83.5847 99.9696 85.0428 100.665 86.6436 100.665C88.2862 100.665 89.7606 99.9359 90.7651 98.7842C91.7697 99.9359 93.244 100.665 94.8866 100.665C97.9072 100.665 100.364 98.2014 100.364 95.1722V93.2458L103.104 94.715C103.301 94.8209 103.52 94.8755 103.743 94.8755H114.725L114.726 127.603ZM121.505 120.805C121.505 122.392 120.218 123.682 118.635 123.682H117.437V94.8732H120.061C120.251 94.8732 120.44 94.8325 120.614 94.7546L121.504 94.3556L121.505 120.805ZM122.335 91.0041C122.333 91.0041 122.333 91.0053 122.332 91.0053L119.773 92.1535H104.084L99.6588 89.7815C99.6565 89.7803 99.6542 89.7792 99.6519 89.778L92.8531 86.1334C92.8496 86.1323 92.8473 86.13 92.8438 86.1288L92.8415 86.1276C92.838 86.1253 92.8346 86.1241 92.8311 86.123C92.7951 86.1044 92.758 86.0858 92.7197 86.0706C92.7058 86.0648 92.6919 86.0602 92.678 86.0555C92.6501 86.045 92.6234 86.0346 92.5956 86.0264C92.5724 86.0194 92.5492 86.0136 92.526 86.009C92.5063 86.0043 92.4877 85.9985 92.468 85.995C92.4344 85.988 92.4019 85.9834 92.3682 85.9799C92.3578 85.9787 92.3474 85.9764 92.3381 85.9752C92.2928 85.9706 92.2488 85.9683 92.2035 85.9683C92.1989 85.9683 92.1931 85.9683 92.1884 85.9683H75.6851C73.4695 85.9683 71.668 84.1617 71.668 81.9398C71.668 79.7179 73.4695 77.9113 75.6851 77.9113H98.3712C98.4501 77.9113 98.5267 77.9032 98.6021 77.8904C98.6102 77.8892 98.6183 77.8881 98.6264 77.8869C98.7007 77.8729 98.7726 77.852 98.841 77.8264C98.8515 77.8229 98.8608 77.8194 98.8712 77.8159C98.9408 77.788 99.0069 77.7543 99.0707 77.7159C99.08 77.7101 99.0893 77.7043 99.0997 77.6984C99.1647 77.6566 99.2262 77.6089 99.283 77.5577C99.2876 77.5542 99.2923 77.5507 99.2969 77.5472L105.266 71.9599C105.814 71.4481 105.843 70.5873 105.332 70.0382C104.822 69.4891 103.964 69.46 103.416 69.9719L97.8365 75.1939H95.0014L104.349 57.4061H104.853L118.588 65.3583C118.794 65.4781 119.027 65.5409 119.265 65.5409H125.471V89.6L122.335 91.0041ZM142.188 95.9458C142.188 97.2661 141.117 98.3398 139.801 98.3398H130.572C129.255 98.3398 128.184 97.2661 128.184 95.9458V90.4516C128.184 90.4504 128.184 90.4492 128.184 90.4481V60.747C128.184 59.4267 129.255 58.353 130.572 58.353H139.801C141.117 58.353 142.188 59.4267 142.188 60.747V95.9458ZM110.425 121.909C110.425 122.66 109.818 123.269 109.069 123.269H49.6814C48.9332 123.269 48.3254 122.661 48.3254 121.909C48.3254 121.159 48.932 120.549 49.6814 120.549H109.07C109.818 120.55 110.425 121.159 110.425 121.909Z" fill="url(#paint2_linear_1_108)"/>
<defs>
<linearGradient id="paint0_linear_1_108" x1="71" y1="-8.51466e-06" x2="228.049" y2="87.9507" gradientUnits="userSpaceOnUse">
<stop stop-color="#2E1A00"/>
<stop offset="1"/>
</linearGradient>
<linearGradient id="paint1_linear_1_108" x1="328.033" y1="235.385" x2="76.7615" y2="345.784" gradientUnits="userSpaceOnUse">
<stop stop-color="#B47427"/>
<stop offset="0.49" stop-color="#EFB861"/>
<stop offset="1" stop-color="#C67732"/>
</linearGradient>
<linearGradient id="paint2_linear_1_108" x1="210.221" y1="165.323" x2="81.6985" y2="221.791" gradientUnits="userSpaceOnUse">
<stop stop-color="#B07E39"/>
<stop offset="0.35" stop-color="#EFB861"/>
<stop offset="1" stop-color="#AE6E2F"/>
</linearGradient>
</defs>
</svg>
