<svg width="180" height="180" viewBox="0 0 180 180" fill="none" xmlns="http://www.w3.org/2000/svg">
<circle cx="90" cy="90" r="88.7" fill="url(#paint0_linear_1_113)" fill-opacity="0.8" stroke="url(#paint1_linear_1_113)" stroke-width="2.6"/>
<path d="M105.7 68.8349C105.664 68.7887 105.631 68.7411 105.589 68.6992C105.547 68.6572 105.5 68.6249 105.454 68.5885C99.4855 62.682 91.283 59.028 82.2433 59.028C73.2036 59.028 65.0011 62.682 59.0315 68.5885C58.9867 68.6249 58.9377 68.6572 58.8957 68.6992C58.8537 68.7411 58.8215 68.7887 58.7851 68.8349C52.8786 74.8031 49.2246 83.0056 49.2246 92.0467C49.2246 101.086 52.8772 109.289 58.7837 115.257C58.8201 115.302 58.8523 115.351 58.8943 115.393C58.9363 115.435 58.9839 115.467 59.0301 115.503C64.9983 121.41 73.2008 125.063 82.2405 125.063C91.2802 125.063 99.4827 121.41 105.451 115.503C105.497 115.467 105.545 115.435 105.587 115.393C105.629 115.351 105.661 115.302 105.697 115.257C111.604 109.289 115.256 101.086 115.256 92.0467C115.259 83.0042 111.607 74.8031 105.7 68.8349ZM108.661 93.6819H111.941C111.562 100.652 108.77 106.992 104.39 111.878L102.081 109.569C101.441 108.931 100.407 108.931 99.7669 109.569C99.1285 110.207 99.1285 111.245 99.7669 111.883L102.076 114.192C97.1881 118.572 90.8504 121.364 83.8799 121.743V118.463C83.8799 117.56 83.1477 116.826 82.2433 116.826C81.3403 116.826 80.6067 117.559 80.6067 118.463V121.743C73.6362 121.364 67.297 118.572 62.4097 114.192L64.7183 111.883C65.3567 111.245 65.3567 110.207 64.7183 109.569C64.0785 108.931 63.0439 108.931 62.4041 109.569L60.0955 111.878C55.715 106.99 52.9234 100.652 52.544 93.6819H55.8242C56.7271 93.6819 57.4607 92.9497 57.4607 92.0453C57.4607 91.1423 56.7285 90.4087 55.8242 90.4087H52.544C52.9234 83.4382 55.715 77.0991 60.0955 72.2131L62.4041 74.5217C62.7233 74.8409 63.1419 75.0005 63.5605 75.0005C63.9791 75.0005 64.3977 74.8409 64.7169 74.5217C65.3553 73.8833 65.3553 72.8459 64.7169 72.2075L62.4083 69.8989C67.2956 65.5184 73.6334 62.7268 80.6053 62.3474V65.6276C80.6053 66.5306 81.3375 67.2642 82.2419 67.2642C83.1449 67.2642 83.8785 66.532 83.8785 65.6276V62.346C90.849 62.7254 97.1881 65.517 102.074 69.8975L99.7655 72.2061C99.1271 72.8445 99.1271 73.8819 99.7655 74.5203C100.085 74.8395 100.503 74.9991 100.922 74.9991C101.341 74.9991 101.759 74.8395 102.078 74.5203L104.387 72.2117C108.767 77.0991 111.559 83.4368 111.938 90.4073H108.661C107.758 90.4073 107.024 91.1395 107.024 92.0439C107.024 92.9483 107.758 93.6819 108.661 93.6819ZM98.9031 90.4087H87.986C87.4218 88.4306 85.8581 86.8668 83.8799 86.3026V70.4533C83.8799 69.5503 83.1477 68.8167 82.2433 68.8167C81.3403 68.8167 80.6067 69.5489 80.6067 70.4533V86.3026C78.1077 87.0152 76.2724 89.3209 76.2724 92.0453C76.2724 95.3381 78.9505 98.0163 82.2433 98.0163C84.9677 98.0163 87.272 96.1809 87.986 93.6819H98.9031C99.8061 93.6819 100.54 92.9497 100.54 92.0453C100.54 91.1409 99.8061 90.4087 98.9031 90.4087ZM82.2433 94.7431C80.7551 94.7431 79.5455 93.5335 79.5455 92.0453C79.5455 90.5571 80.7551 89.3475 82.2433 89.3475C83.7315 89.3475 84.9411 90.5585 84.9411 92.0453C84.9411 93.5321 83.7301 94.7431 82.2433 94.7431ZM150.264 84.9838H146.965C146.563 83.7182 146.053 82.489 145.44 81.3088L147.775 78.9736C148.841 77.9083 148.841 76.1737 147.775 75.1083L141.656 68.9889C140.591 67.9236 138.856 67.9236 137.791 68.9889L135.455 71.3241C134.274 70.7109 133.045 70.2013 131.78 69.7995V66.4998C131.78 64.992 130.554 63.7656 129.046 63.7656H120.392C118.884 63.7656 117.657 64.992 117.657 66.4998V69.7995C117.26 69.9255 116.865 70.0641 116.474 70.2111C110.328 60.61 100.258 53.7501 88.5446 51.9175V48.3741H90.1616C91.9536 48.3741 93.4124 46.9154 93.4124 45.1234V41.0508C93.4124 39.2588 91.9536 37.8 90.1616 37.8H74.325C72.533 37.8 71.0742 39.2588 71.0742 41.0508V45.1234C71.0742 46.9154 72.533 48.3741 74.325 48.3741H75.942V51.9189C56.2778 54.9765 41.6283 71.9723 41.6283 92.0453C41.6283 114.441 59.8477 132.66 82.2433 132.66C96.6072 132.66 109.253 125.165 116.476 113.88C116.866 114.026 117.26 114.165 117.657 114.291V117.592C117.657 119.1 118.884 120.326 120.392 120.326H129.046C130.554 120.326 131.78 119.1 131.78 117.592V114.291C133.046 113.889 134.275 113.38 135.455 112.767L137.791 115.102C138.306 115.617 138.993 115.901 139.724 115.901C140.455 115.901 141.142 115.617 141.657 115.102L147.777 108.982C148.292 108.467 148.576 107.78 148.576 107.049C148.576 106.318 148.292 105.631 147.777 105.116L145.441 102.78C146.055 101.599 146.564 100.37 146.966 99.1055H150.266C151.774 99.1055 153 97.8791 153 96.3713V87.7166C152.999 86.2102 151.772 84.9838 150.264 84.9838ZM74.346 45.101L74.3404 41.0718H90.1392V45.101H74.346ZM85.2715 48.3741V51.5423C83.2877 51.3953 81.2549 51.3925 79.2137 51.5437V48.3741H85.2715ZM82.2433 129.387C61.6523 129.387 44.9001 112.635 44.9001 92.0453C44.9001 73.1329 59.0413 57.1941 77.7871 54.9681L77.8459 54.9611C79.3103 54.7889 80.7901 54.7021 82.2433 54.7021C102.834 54.7021 119.585 71.4543 119.585 92.0439C119.585 112.634 102.834 129.387 82.2433 129.387ZM121.454 81.453C122.504 81.1296 123.596 80.9616 124.717 80.9616C130.828 80.9616 135.801 85.933 135.801 92.0453C135.801 98.1577 130.83 103.128 124.719 103.128C123.597 103.128 122.506 102.961 121.456 102.636C122.37 99.258 122.86 95.7077 122.86 92.0439C122.858 88.3816 122.368 84.8312 121.454 81.453ZM149.725 95.8337H145.733C144.986 95.8337 144.334 96.3391 144.148 97.0615C143.682 98.8745 142.959 100.615 142.003 102.234C141.624 102.877 141.727 103.696 142.255 104.224L145.08 107.049L139.723 112.407L136.897 109.582C136.37 109.054 135.551 108.95 134.908 109.33C133.29 110.286 131.549 111.007 129.735 111.474C129.013 111.661 128.507 112.313 128.507 113.059V117.053H120.931V113.061C120.931 112.314 120.425 111.662 119.703 111.476C119.181 111.341 118.664 111.183 118.153 111.007C119.045 109.324 119.823 107.571 120.476 105.76C121.842 106.184 123.263 106.402 124.72 106.402C132.636 106.402 139.076 99.9622 139.076 92.0467C139.076 84.1312 132.634 77.6899 124.719 77.6899C123.261 77.6899 121.842 77.9083 120.474 78.3325C119.822 76.5209 119.045 74.7681 118.152 73.0853C118.663 72.9089 119.181 72.7507 119.701 72.6163C120.425 72.4301 120.931 71.7777 120.931 71.0315V67.0388H128.507V71.0315C128.507 71.7777 129.013 72.4301 129.736 72.6163C131.549 73.0825 133.29 73.8049 134.909 74.7611C135.552 75.1405 136.371 75.0369 136.899 74.5091L139.724 71.6825L145.082 77.0403L142.257 79.8654C141.729 80.3932 141.625 81.2122 142.005 81.8548C142.961 83.4732 143.682 85.2134 144.149 87.0278C144.335 87.7502 144.988 88.2556 145.734 88.2556H149.728V95.8337H149.725ZM115.903 125.109C106.959 134.213 95.0056 139.228 82.2433 139.228C56.7747 139.228 35.9541 118.943 35.089 93.6819H38.2123C38.7779 93.6819 39.3029 93.3893 39.6025 92.9091C39.9007 92.4289 39.9301 91.8283 39.6795 91.3215L34.8916 81.6224C34.6158 81.0638 34.0474 80.711 33.4244 80.711C32.8014 80.711 32.233 81.0652 31.9572 81.6224L27.1692 91.3215C26.9186 91.8283 26.948 92.4289 27.2462 92.9091C27.5444 93.3893 28.0708 93.6819 28.6364 93.6819H31.8144C32.6796 120.749 54.9688 142.499 82.2433 142.499C95.8904 142.499 108.672 137.137 118.237 127.402C118.87 126.758 118.861 125.721 118.216 125.088C117.572 124.455 116.536 124.463 115.903 125.109ZM31.2684 90.4087L33.423 86.0436L35.5789 90.4087H31.2684Z" fill="url(#paint2_linear_1_113)"/>
<defs>
<linearGradient id="paint0_linear_1_113" x1="71" y1="-8.51466e-06" x2="228.049" y2="87.9507" gradientUnits="userSpaceOnUse">
<stop stop-color="#2E1A00"/>
<stop offset="1"/>
</linearGradient>
<linearGradient id="paint1_linear_1_113" x1="328.033" y1="235.385" x2="76.7615" y2="345.784" gradientUnits="userSpaceOnUse">
<stop stop-color="#B47427"/>
<stop offset="0.49" stop-color="#EFB861"/>
<stop offset="1" stop-color="#C67732"/>
</linearGradient>
<linearGradient id="paint2_linear_1_113" x1="231.836" y1="174.715" x2="87.2126" y2="251.184" gradientUnits="userSpaceOnUse">
<stop stop-color="#B07E39"/>
<stop offset="0.35" stop-color="#EFB861"/>
<stop offset="1" stop-color="#AE6E2F"/>
</linearGradient>
</defs>
</svg>
