<svg width="82" height="26" viewBox="0 0 82 26" fill="none" xmlns="http://www.w3.org/2000/svg">
<path d="M76.5093 12.8255L78.3075 21.4887L69.6191 19.8166C68.8746 19.6981 68.1345 20.1992 67.8921 20.9447C67.7717 21.4413 68.0232 21.9353 68.2738 22.3053C68.5235 22.5514 68.7723 22.6735 69.0201 22.6717L79.8183 24.7003C80.3149 24.8207 80.8098 24.6931 81.1789 24.3186C81.548 23.9441 81.6683 23.4474 81.5408 22.9525L79.3554 12.1851C79.2261 11.4423 78.4788 10.952 77.6122 11.0822C76.8694 11.2116 76.3791 11.9588 76.5093 12.8255Z" fill="url(#paint0_linear_1_128)"/>
<path d="M3.38371 13.2332C2.52153 13.9832 1.66026 14.8571 0.674143 15.6079C0.0580455 16.1082 -0.0595888 16.9767 0.440677 17.5928C0.940943 18.2089 1.80943 18.3265 2.42552 17.8262C3.41164 17.0754 4.27382 16.3254 5.13509 15.4516L3.38371 13.2332Z" fill="url(#paint1_linear_1_128)"/>
<path d="M74.6719 15.8137C64.6846 5.97052 51.3824 0.489611 37.2532 0.592323C23.4959 0.692331 10.5209 6.11636 0.675043 15.7318L5.01295 15.7003C24.4739 -1.17398 53.9779 -0.520832 72.5793 17.812C73.2035 18.4272 74.0711 18.4209 74.6863 17.7967C75.3024 17.2964 75.2961 16.4289 74.6719 15.8137Z" fill="url(#paint2_linear_1_128)"/>
<defs>
<linearGradient id="paint0_linear_1_128" x1="90.2108" y1="28.8865" x2="73.3889" y2="36.4314" gradientUnits="userSpaceOnUse">
<stop stop-color="#B07E39"/>
<stop offset="0.35" stop-color="#EFB861"/>
<stop offset="1" stop-color="#AE6E2F"/>
</linearGradient>
<linearGradient id="paint1_linear_1_128" x1="121.781" y1="23.4395" x2="96.8321" y2="69.7284" gradientUnits="userSpaceOnUse">
<stop stop-color="#B07E39"/>
<stop offset="0.35" stop-color="#EFB861"/>
<stop offset="1" stop-color="#AE6E2F"/>
</linearGradient>
<linearGradient id="paint2_linear_1_128" x1="121.781" y1="23.4395" x2="96.8321" y2="69.7284" gradientUnits="userSpaceOnUse">
<stop stop-color="#B07E39"/>
<stop offset="0.35" stop-color="#EFB861"/>
<stop offset="1" stop-color="#AE6E2F"/>
</linearGradient>
</defs>
</svg>
