<svg width="180" height="180" viewBox="0 0 180 180" fill="none" xmlns="http://www.w3.org/2000/svg">
<circle cx="90" cy="90" r="88.7" fill="url(#paint0_linear_1_118)" fill-opacity="0.8" stroke="url(#paint1_linear_1_118)" stroke-width="2.6"/>
<path d="M118.528 114.896C118.528 115.707 117.869 116.365 117.055 116.365H41.6087C39.0118 116.365 36.9 114.258 36.9 111.667V71.3554C36.9 68.7656 39.0118 66.6587 41.6087 66.6587H117.055C117.868 66.6587 118.528 67.3161 118.528 68.1283C118.528 68.9391 117.869 69.5979 117.055 69.5979H41.6087C40.6372 69.5979 39.8459 70.3874 39.8459 71.3566V111.67C39.8459 112.639 40.6372 113.429 41.6087 113.429H117.055C117.868 113.426 118.528 114.085 118.528 114.896ZM113.139 73.5026C113.139 72.6917 112.48 72.033 111.666 72.033H49.5882C48.7755 72.033 48.1153 72.6905 48.1153 73.5026C48.1153 75.8975 46.1623 77.8461 43.762 77.8461C42.9493 77.8461 42.2891 78.5036 42.2891 79.3157V103.706C42.2891 104.517 42.948 105.175 43.762 105.175C46.1623 105.175 48.1153 107.124 48.1153 109.519C48.1153 110.33 48.7743 110.988 49.5882 110.988H111.667C112.48 110.988 113.14 110.331 113.14 109.519C113.14 108.707 112.481 108.049 111.667 108.049H50.9112C50.3266 105.211 48.08 102.969 45.2337 102.384V80.6357C48.0788 80.0524 50.3253 77.8109 50.9112 74.971H111.666C112.48 74.9722 113.139 74.3147 113.139 73.5026ZM77.714 105.477C78.5267 105.477 79.1869 104.82 79.1869 104.007V102.936C82.8359 102.373 85.6041 99.762 85.6041 96.633C85.6041 93.0941 82.0648 90.2152 77.714 90.2152C75.034 90.2152 72.7698 88.6224 72.7698 86.7367C72.7698 84.8509 75.034 83.2581 77.714 83.2581C79.6443 83.2581 81.4146 84.074 82.2273 85.3349C82.6671 86.0176 83.5781 86.2162 84.2622 85.7775C84.9464 85.3387 85.1455 84.4298 84.7058 83.7472C83.5768 81.9909 81.5368 80.7903 79.1869 80.4333V79.014C79.1869 78.2031 78.528 77.5444 77.714 77.5444C76.9 77.5444 76.2411 78.2018 76.2411 79.014V80.4333C72.5921 80.9965 69.8239 83.6076 69.8239 86.7367C69.8239 90.2755 73.3632 93.1544 77.714 93.1544C80.394 93.1544 82.6583 94.7472 82.6583 96.633C82.6583 98.5187 80.394 100.112 77.714 100.112C75.7837 100.112 74.0121 99.2956 73.2007 98.0347C72.7609 97.3521 71.85 97.1534 71.1658 97.5922C70.4816 98.0309 70.2825 98.9398 70.7223 99.6225C71.8512 101.379 73.8912 102.579 76.2411 102.936V104.007C76.2411 104.82 76.9 105.477 77.714 105.477ZM149.894 90.4981L123.244 62.5566C122.83 62.1216 122.19 61.982 121.63 62.2046C121.071 62.4271 120.704 62.9677 120.704 63.5686V76.7297H107.619C106.806 76.7297 106.146 77.3872 106.146 78.1993C106.146 79.0114 106.805 79.6689 107.619 79.6689H122.177C122.99 79.6689 123.65 79.0114 123.65 78.1993V67.2445L146.795 91.5113L123.65 115.777V104.822C123.65 104.011 122.991 103.352 122.177 103.352H107.619C106.806 103.352 106.146 104.01 106.146 104.822C106.146 105.633 106.805 106.292 107.619 106.292H120.705V119.453C120.705 120.054 121.072 120.594 121.631 120.817C121.809 120.887 121.994 120.922 122.178 120.922C122.574 120.922 122.962 120.763 123.245 120.466L149.896 92.5246C150.435 91.9564 150.435 91.0663 149.894 90.4981ZM115.139 82.055H100.385C99.5725 82.055 98.9123 82.7125 98.9123 83.5246C98.9123 84.3355 99.5713 84.9942 100.385 84.9942H115.139C115.951 84.9942 116.612 84.3368 116.612 83.5246C116.612 82.7125 115.953 82.055 115.139 82.055ZM100.385 98.0297C99.5725 98.0297 98.9123 98.6872 98.9123 99.4993C98.9123 100.311 99.5713 100.969 100.385 100.969H115.139C115.951 100.969 116.612 100.311 116.612 99.4993C116.612 98.6872 115.953 98.0297 115.139 98.0297H100.385ZM123.636 91.187C123.636 90.3761 122.977 89.7174 122.163 89.7174H93.3607C92.548 89.7174 91.8878 90.3749 91.8878 91.187C91.8878 91.9991 92.5467 92.6566 93.3607 92.6566H122.163C122.977 92.6566 123.636 91.9979 123.636 91.187Z" fill="url(#paint2_linear_1_118)"/>
<defs>
<linearGradient id="paint0_linear_1_118" x1="71" y1="-8.51466e-06" x2="228.049" y2="87.9507" gradientUnits="userSpaceOnUse">
<stop stop-color="#2E1A00"/>
<stop offset="1"/>
</linearGradient>
<linearGradient id="paint1_linear_1_118" x1="328.033" y1="235.385" x2="76.7615" y2="345.784" gradientUnits="userSpaceOnUse">
<stop stop-color="#B47427"/>
<stop offset="0.49" stop-color="#EFB861"/>
<stop offset="1" stop-color="#C67732"/>
</linearGradient>
<linearGradient id="paint2_linear_1_118" x1="221.252" y1="139.022" x2="124.276" y2="221.163" gradientUnits="userSpaceOnUse">
<stop stop-color="#B07E39"/>
<stop offset="0.35" stop-color="#EFB861"/>
<stop offset="1" stop-color="#AE6E2F"/>
</linearGradient>
</defs>
</svg>
