<svg width="120" height="61" viewBox="0 0 120 61" fill="none" xmlns="http://www.w3.org/2000/svg">
<path d="M2.18374 41.5147H2.42637C2.68519 41.5147 2.91165 41.4338 3.10576 41.2721C3.29987 41.078 3.46163 40.8515 3.59103 40.5927C3.75279 40.3339 3.86602 40.0589 3.93073 39.7677C4.02778 39.4766 4.07631 39.2016 4.07631 38.9428V12.9806C4.07631 12.7541 4.02778 12.4953 3.93073 12.2041C3.86602 11.913 3.75279 11.638 3.59103 11.3792C3.46163 11.1204 3.29987 10.9101 3.10576 10.7483C2.91165 10.5542 2.68519 10.4571 2.42637 10.4571H2.18374V9.97187H20.8668V14.4849H20.3815C20.3168 13.7408 20.0257 13.0938 19.508 12.5438C18.9904 11.9615 18.1816 11.6703 17.0817 11.6703H7.32765V23.9478H15.3832C16.1273 23.9478 16.742 23.7213 17.2273 23.2684C17.7449 22.8155 18.0037 22.2817 18.0037 21.667H18.489V27.7329H18.0037C18.0037 27.1506 17.7611 26.6491 17.2758 26.2286C16.7905 25.808 16.1596 25.5977 15.3832 25.5977H7.32765V40.3015H17.9552C18.5698 40.3015 19.1036 40.156 19.5566 39.8648C20.0095 39.5736 20.3815 39.2339 20.6727 38.8457C20.9962 38.4251 21.2227 37.9884 21.3521 37.5355C21.5138 37.0502 21.5947 36.6458 21.5947 36.3223H22.08V42H2.18374V41.5147ZM47.9622 38.8457C47.9622 39.1045 47.9946 39.3957 48.0593 39.7192C48.124 40.0104 48.221 40.2854 48.3504 40.5442C48.5122 40.803 48.6901 41.0295 48.8842 41.2236C49.0783 41.4177 49.3048 41.5147 49.5636 41.5147V42H43.255V41.5147C43.5139 41.5147 43.7403 41.4338 43.9344 41.2721C44.1285 41.078 44.2903 40.8515 44.4197 40.5927C44.5491 40.3015 44.6462 40.0104 44.7109 39.7192C44.7756 39.3957 44.8079 39.1045 44.8079 38.8457V25.7433L36.7038 42.4367L28.9394 26.7138V38.8457C28.9394 39.1045 28.9718 39.3957 29.0365 39.7192C29.1012 40.0104 29.1982 40.2854 29.3277 40.5442C29.4571 40.803 29.6188 41.0295 29.8129 41.2236C30.007 41.4177 30.2335 41.5147 30.4923 41.5147V42H25.7851V41.5147C26.044 41.5147 26.2704 41.4177 26.4645 41.2236C26.6586 41.0295 26.8042 40.803 26.9013 40.5442C27.0307 40.2854 27.1277 40.0104 27.1924 39.7192C27.2571 39.3957 27.2895 39.1045 27.2895 38.8457V24.6272C27.2895 24.0448 27.2086 23.4787 27.0469 22.9287C26.9175 22.3787 26.4969 22.1037 25.7851 22.1037V21.6185H30.1041L37.5288 36.8076L44.9535 21.6185H49.5636V22.1037C49.0783 22.1037 48.6901 22.4111 48.3989 23.0258C48.1078 23.6081 47.9622 24.1419 47.9622 24.6272V38.8457ZM56.9819 32.1975C57.1113 33.3298 57.3863 34.4135 57.8068 35.4488C58.2274 36.4517 58.7774 37.3414 59.4568 38.1178C60.1685 38.8942 61.0258 39.5251 62.0287 40.0104C63.0316 40.4633 64.1963 40.6898 65.5227 40.6898C66.2344 40.6898 66.9785 40.5927 67.755 40.3986C68.5638 40.1721 69.3078 39.8648 69.9872 39.4766C70.6666 39.0884 71.2651 38.6193 71.7827 38.0693C72.3327 37.4869 72.7048 36.8399 72.8989 36.1282H73.3356V39.7677C73.1415 39.7677 72.9151 39.8324 72.6562 39.9618C72.4298 40.0913 72.1548 40.253 71.8313 40.4471C71.1842 40.8353 70.3107 41.2559 69.2108 41.7088C68.1108 42.1294 66.655 42.3397 64.8433 42.3397C63.3875 42.3397 61.9964 42.1294 60.67 41.7088C59.3759 41.2883 58.2274 40.6412 57.2245 39.7677C56.2216 38.8942 55.4128 37.7781 54.7981 36.4193C54.2158 35.0606 53.9246 33.443 53.9246 31.5666C53.9246 30.3696 54.1187 29.1564 54.507 27.927C54.9275 26.6977 55.5422 25.5977 56.351 24.6272C57.1922 23.6243 58.2598 22.8155 59.5538 22.2008C60.8479 21.5861 62.4008 21.2788 64.2125 21.2788C65.83 21.2788 67.2373 21.5538 68.4344 22.1037C69.6637 22.6537 70.6666 23.414 71.4431 24.3845C72.2518 25.3551 72.8504 26.5036 73.2386 27.83C73.6268 29.1564 73.8209 30.6122 73.8209 32.1975H56.9819ZM64.0184 22.8802C62.886 22.8802 61.8993 23.1066 61.0582 23.5596C60.2494 24.0125 59.5538 24.5948 58.9715 25.3065C58.3892 26.0183 57.9362 26.8271 57.6127 27.7329C57.2892 28.6388 57.0789 29.5446 56.9819 30.4505H70.8122C70.7798 29.5123 70.6019 28.5902 70.2784 27.6844C69.9872 26.7785 69.5667 25.9698 69.0167 25.258C68.4667 24.5463 67.7711 23.9801 66.93 23.5596C66.0889 23.1066 65.1183 22.8802 64.0184 22.8802ZM90.4336 41.5147C90.6601 41.5147 90.9189 41.4177 91.21 41.2236C91.5012 41.0295 91.6468 40.7545 91.6468 40.3986C91.6468 40.3339 91.6144 40.2045 91.5497 40.0104C91.5174 39.7839 91.4365 39.5413 91.3071 39.2825L85.1441 24.7242L78.7385 40.0104C78.1885 41.3368 77.1047 42 75.4871 42H74.4195V41.5147C74.8725 41.5147 75.3577 41.2883 75.8754 40.8353C76.4253 40.3501 76.8621 39.7839 77.1856 39.1369L83.7853 23.7051C83.9471 23.2846 84.028 22.9449 84.028 22.6861C84.028 22.2978 83.7692 22.1037 83.2515 22.1037V21.6185H87.1823L94.6555 39.0884C94.8819 39.5736 95.2055 40.1074 95.626 40.6898C96.079 41.2397 96.4995 41.5147 96.8878 41.5147V42H90.4336V41.5147ZM115.288 38.8457C115.288 39.1045 115.32 39.3957 115.385 39.7192C115.449 40.0104 115.546 40.3015 115.676 40.5927C115.838 40.8515 115.999 41.078 116.161 41.2721C116.355 41.4338 116.582 41.5147 116.84 41.5147V42H110.532V41.5147C110.758 41.5147 110.969 41.4177 111.163 41.2236C111.357 41.0295 111.519 40.803 111.648 40.5442C111.81 40.2854 111.923 40.0104 111.988 39.7192C112.052 39.3957 112.085 39.1045 112.085 38.8457V32.0519C111.729 32.1166 111.325 32.3107 110.872 32.6342C110.419 32.9254 109.95 33.3136 109.464 33.7989C108.979 34.2518 108.51 34.7532 108.057 35.3032C107.604 35.8532 107.184 36.4032 106.795 36.9531C106.472 37.4061 106.197 37.7781 105.97 38.0693C105.744 38.3604 105.55 38.6354 105.388 38.8942C105.064 39.3148 104.741 39.7192 104.417 40.1074C104.094 40.4633 103.722 40.7868 103.301 41.078C102.913 41.3691 102.444 41.5956 101.894 41.7574C101.344 41.9191 100.697 42 99.9529 42H98.1574V41.5147C98.5456 41.5147 98.9339 41.4015 99.3221 41.175C99.7427 40.9486 100.147 40.6736 100.535 40.3501C100.923 39.9942 101.279 39.6222 101.603 39.2339C101.959 38.8134 102.266 38.4251 102.525 38.0693L104.029 35.9826C104.579 35.2385 105.145 34.5106 105.728 33.7989C106.31 33.0548 106.973 32.4724 107.717 32.0519C106.553 32.0195 105.517 31.8578 104.612 31.5666C103.706 31.2754 102.945 30.8872 102.331 30.4019C101.716 29.9167 101.247 29.3667 100.923 28.752C100.632 28.105 100.487 27.4256 100.487 26.7138C100.487 26.0345 100.632 25.3874 100.923 24.7727C101.247 24.1581 101.748 23.6243 102.428 23.1713C103.107 22.6861 103.965 22.314 105 22.0552C106.067 21.764 107.345 21.6185 108.833 21.6185H116.84V22.1037C116.582 22.1037 116.355 22.2008 116.161 22.3949C115.999 22.5567 115.838 22.7669 115.676 23.0258C115.546 23.2846 115.449 23.5596 115.385 23.8507C115.32 24.1419 115.288 24.4007 115.288 24.6272V38.8457ZM103.641 26.4227C103.641 26.908 103.787 27.3932 104.078 27.8785C104.401 28.3638 104.822 28.8005 105.339 29.1887C105.889 29.577 106.504 29.9005 107.184 30.1593C107.863 30.3858 108.591 30.499 109.367 30.499H112.085V23.1713H108.931C106.989 23.1713 105.614 23.4787 104.806 24.0934C104.029 24.708 103.641 25.4845 103.641 26.4227Z" fill="url(#paint0_linear_1_241)"/>
<path d="M2.18374 41.5147V41.3647H2.03374V41.5147H2.18374ZM3.10576 41.2721L3.20218 41.3878L3.21182 41.3782L3.10576 41.2721ZM3.59103 40.5927L3.46383 40.5132L3.46006 40.5192L3.45687 40.5256L3.59103 40.5927ZM3.93073 39.7677L3.78842 39.7203L3.78598 39.7276L3.7843 39.7352L3.93073 39.7677ZM3.93073 12.2041L3.7843 12.2367L3.78598 12.2442L3.78842 12.2516L3.93073 12.2041ZM3.59103 11.3792L3.45687 11.4462L3.46006 11.4526L3.46383 11.4587L3.59103 11.3792ZM3.10576 10.7483L2.99925 10.8548L3.00973 10.8635L3.10576 10.7483ZM2.18374 10.4571H2.03374V10.6071H2.18374V10.4571ZM2.18374 9.97187V9.82187H2.03374V9.97187H2.18374ZM20.8668 9.97187H21.0168V9.82187H20.8668V9.97187ZM20.8668 14.4849V14.6349H21.0168V14.4849H20.8668ZM20.3815 14.4849L20.2321 14.4979L20.244 14.6349H20.3815V14.4849ZM19.508 12.5438L19.3959 12.6435L19.3988 12.6466L19.508 12.5438ZM7.32765 11.6703V11.5203H7.17765V11.6703H7.32765ZM7.32765 23.9478H7.17765V24.0978H7.32765V23.9478ZM17.2273 23.2684L17.1284 23.1555L17.1249 23.1587L17.2273 23.2684ZM18.0037 21.667V21.517H17.8537V21.667H18.0037ZM18.489 21.667H18.639V21.517H18.489V21.667ZM18.489 27.7329V27.8829H18.639V27.7329H18.489ZM18.0037 27.7329H17.8537V27.8829H18.0037V27.7329ZM17.2758 26.2286L17.1775 26.3419L17.2758 26.2286ZM7.32765 25.5977V25.4477H7.17765V25.5977H7.32765ZM7.32765 40.3015H7.17765V40.4515H7.32765V40.3015ZM19.5566 39.8648L19.4755 39.7386L19.5566 39.8648ZM20.6727 38.8457L20.5538 38.7542L20.5527 38.7557L20.6727 38.8457ZM21.3521 37.5355L21.2097 37.488L21.2079 37.4943L21.3521 37.5355ZM21.5947 36.3223V36.1723H21.4447V36.3223H21.5947ZM22.08 36.3223H22.23V36.1723H22.08V36.3223ZM22.08 42V42.15H22.23V42H22.08ZM2.18374 42H2.03374V42.15H2.18374V42ZM2.18374 41.6647H2.42637V41.3647H2.18374V41.6647ZM2.42637 41.6647C2.71935 41.6647 2.98001 41.5721 3.20179 41.3873L3.00973 41.1569C2.84328 41.2956 2.65103 41.3647 2.42637 41.3647V41.6647ZM3.21182 41.3782C3.41794 41.172 3.58897 40.9322 3.7252 40.6598L3.45687 40.5256C3.33428 40.7708 3.1818 40.9839 2.99969 41.166L3.21182 41.3782ZM3.71823 40.6722C3.88881 40.3993 4.00867 40.1085 4.07715 39.8003L3.7843 39.7352C3.72338 40.0093 3.61677 40.2685 3.46383 40.5132L3.71823 40.6722ZM4.07303 39.8152C4.17426 39.5115 4.22631 39.2204 4.22631 38.9428H3.92631C3.92631 39.1828 3.8813 39.4417 3.78842 39.7203L4.07303 39.8152ZM4.22631 38.9428V12.9806H3.92631V38.9428H4.22631ZM4.22631 12.9806C4.22631 12.7334 4.17349 12.4581 4.07303 12.1567L3.78842 12.2516C3.88207 12.5325 3.92631 12.7748 3.92631 12.9806H4.22631ZM4.07715 12.1716C4.00867 11.8634 3.88881 11.5726 3.71823 11.2997L3.46383 11.4587C3.61677 11.7034 3.72338 11.9625 3.7843 12.2367L4.07715 12.1716ZM3.7252 11.3121C3.58787 11.0374 3.41394 10.8099 3.20179 10.6331L3.00973 10.8635C3.1858 11.0103 3.33538 11.2033 3.45687 11.4462L3.7252 11.3121ZM3.21182 10.6422C2.99148 10.4219 2.72757 10.3071 2.42637 10.3071V10.6071C2.6428 10.6071 2.83182 10.6865 2.99969 10.8544L3.21182 10.6422ZM2.42637 10.3071H2.18374V10.6071H2.42637V10.3071ZM2.33374 10.4571V9.97187H2.03374V10.4571H2.33374ZM2.18374 10.1219H20.8668V9.82187H2.18374V10.1219ZM20.7168 9.97187V14.4849H21.0168V9.97187H20.7168ZM20.8668 14.3349H20.3815V14.6349H20.8668V14.3349ZM20.531 14.4719C20.4633 13.6938 20.1577 13.0153 19.6173 12.441L19.3988 12.6466C19.8936 13.1723 20.1704 13.7878 20.2321 14.4979L20.531 14.4719ZM19.6202 12.4442C19.0639 11.8184 18.2063 11.5203 17.0817 11.5203V11.8203C18.157 11.8203 18.917 12.1046 19.3959 12.6435L19.6202 12.4442ZM17.0817 11.5203H7.32765V11.8203H17.0817V11.5203ZM7.17765 11.6703V23.9478H7.47765V11.6703H7.17765ZM7.32765 24.0978H15.3832V23.7978H7.32765V24.0978ZM15.3832 24.0978C16.1603 24.0978 16.8131 23.8601 17.3296 23.3781L17.1249 23.1587C16.6708 23.5825 16.0943 23.7978 15.3832 23.7978V24.0978ZM17.326 23.3813C17.8719 22.9037 18.1537 22.3304 18.1537 21.667H17.8537C17.8537 22.233 17.6179 22.7273 17.1285 23.1555L17.326 23.3813ZM18.0037 21.817H18.489V21.517H18.0037V21.817ZM18.339 21.667V27.7329H18.639V21.667H18.339ZM18.489 27.5829H18.0037V27.8829H18.489V27.5829ZM18.1537 27.7329C18.1537 27.1023 17.8884 26.561 17.374 26.1152L17.1775 26.3419C17.6337 26.7373 17.8537 27.1989 17.8537 27.7329H18.1537ZM17.374 26.1152C16.8561 25.6663 16.1878 25.4477 15.3832 25.4477V25.7477C16.1314 25.7477 16.725 25.9497 17.1775 26.3419L17.374 26.1152ZM15.3832 25.4477H7.32765V25.7477H15.3832V25.4477ZM7.17765 25.5977V40.3015H7.47765V25.5977H7.17765ZM7.32765 40.4515H17.9552V40.1515H7.32765V40.4515ZM17.9552 40.4515C18.5944 40.4515 19.1573 40.2998 19.6377 39.991L19.4755 39.7386C19.05 40.0121 18.5453 40.1515 17.9552 40.1515V40.4515ZM19.6377 39.991C20.104 39.6912 20.4897 39.3397 20.7927 38.9357L20.5527 38.7557C20.2734 39.1282 19.915 39.456 19.4755 39.7386L19.6377 39.991ZM20.7916 38.9372C21.1252 38.5035 21.3611 38.05 21.4963 37.5767L21.2079 37.4943C21.0843 37.9268 20.8672 38.3468 20.5538 38.7543L20.7916 38.9372ZM21.4944 37.5829C21.6586 37.0901 21.7447 36.6685 21.7447 36.3223H21.4447C21.4447 36.6231 21.369 37.0103 21.2098 37.488L21.4944 37.5829ZM21.5947 36.4723H22.08V36.1723H21.5947V36.4723ZM21.93 36.3223V42H22.23V36.3223H21.93ZM22.08 41.85H2.18374V42.15H22.08V41.85ZM2.33374 42V41.5147H2.03374V42H2.33374ZM48.0593 39.7192L47.9121 39.7486L47.9128 39.7517L48.0593 39.7192ZM48.3504 40.5442L48.2163 40.6113L48.2194 40.6176L48.2232 40.6237L48.3504 40.5442ZM48.8842 41.2236L48.7782 41.3296L48.8842 41.2236ZM49.5636 41.5147H49.7136V41.3647H49.5636V41.5147ZM49.5636 42V42.15H49.7136V42H49.5636ZM43.255 42H43.105V42.15H43.255V42ZM43.255 41.5147V41.3647H43.105V41.5147H43.255ZM43.9344 41.2721L44.0308 41.3878L44.0405 41.3782L43.9344 41.2721ZM44.4197 40.5927L44.554 40.6599L44.5568 40.6536L44.4197 40.5927ZM44.7109 39.7192L44.8573 39.7518L44.8579 39.7486L44.7109 39.7192ZM44.8079 25.7433H44.9579L44.673 25.6778L44.8079 25.7433ZM36.7038 42.4367L36.5693 42.5032L36.705 42.7778L36.8388 42.5023L36.7038 42.4367ZM28.9394 26.7138L29.0739 26.6474L28.7894 26.7138H28.9394ZM29.0365 39.7192L28.8894 39.7486L28.8901 39.7517L29.0365 39.7192ZM29.3277 40.5442L29.1935 40.6113L29.3277 40.5442ZM29.8129 41.2236L29.919 41.1175L29.8129 41.2236ZM30.4923 41.5147H30.6423V41.3647H30.4923V41.5147ZM30.4923 42V42.15H30.6423V42H30.4923ZM25.7851 42H25.6351V42.15H25.7851V42ZM25.7851 41.5147V41.3647H25.6351V41.5147H25.7851ZM26.4645 41.2236L26.5706 41.3296L26.4645 41.2236ZM26.9013 40.5442L26.7671 40.4771L26.7636 40.4841L26.7608 40.4915L26.9013 40.5442ZM27.1924 39.7192L27.3389 39.7518L27.3395 39.7486L27.1924 39.7192ZM27.0469 22.9287L26.9006 22.9631L26.903 22.971L27.0469 22.9287ZM25.7851 22.1037H25.6351V22.2537H25.7851V22.1037ZM25.7851 21.6185V21.4685H25.6351V21.6185H25.7851ZM30.1041 21.6185L30.2389 21.5526L30.1977 21.4685H30.1041V21.6185ZM37.5288 36.8076L37.394 36.8734L37.5288 37.1491L37.6636 36.8734L37.5288 36.8076ZM44.9535 21.6185V21.4685H44.8599L44.8187 21.5526L44.9535 21.6185ZM49.5636 21.6185H49.7136V21.4685H49.5636V21.6185ZM49.5636 22.1037V22.2537H49.7136V22.1037H49.5636ZM48.3989 23.0258L48.5331 23.0929L48.5345 23.09L48.3989 23.0258ZM47.8122 38.8457C47.8122 39.1167 47.846 39.4179 47.9122 39.7486L48.2063 39.6898C48.1431 39.3735 48.1122 39.0924 48.1122 38.8457H47.8122ZM47.9128 39.7517C47.9801 40.0545 48.0812 40.3411 48.2163 40.6113L48.4846 40.4771C48.3608 40.2296 48.2678 39.9662 48.2057 39.6867L47.9128 39.7517ZM48.2232 40.6237C48.3903 40.8911 48.5752 41.1267 48.7782 41.3296L48.9903 41.1175C48.805 40.9322 48.634 40.7149 48.4776 40.4647L48.2232 40.6237ZM48.7782 41.3296C48.9985 41.55 49.2624 41.6647 49.5636 41.6647V41.3647C49.3472 41.3647 49.1582 41.2854 48.9903 41.1175L48.7782 41.3296ZM49.4136 41.5147V42H49.7136V41.5147H49.4136ZM49.5636 41.85H43.255V42.15H49.5636V41.85ZM43.405 42V41.5147H43.105V42H43.405ZM43.255 41.6647C43.548 41.6647 43.8087 41.5721 44.0304 41.3873L43.8384 41.1569C43.6719 41.2956 43.4797 41.3647 43.255 41.3647V41.6647ZM44.0405 41.3782C44.2466 41.172 44.4176 40.9322 44.5539 40.6598L44.2855 40.5256C44.1629 40.7708 44.0105 40.9839 43.8284 41.166L44.0405 41.3782ZM44.5568 40.6536C44.69 40.354 44.7903 40.0533 44.8573 39.7517L44.5644 39.6867C44.502 39.9674 44.4082 40.2491 44.2826 40.5318L44.5568 40.6536ZM44.8579 39.7486C44.9241 39.4179 44.9579 39.1167 44.9579 38.8457H44.6579C44.6579 39.0924 44.627 39.3735 44.5638 39.6898L44.8579 39.7486ZM44.9579 38.8457V25.7433H44.6579V38.8457H44.9579ZM44.673 25.6778L36.5689 42.3712L36.8388 42.5023L44.9429 25.8088L44.673 25.6778ZM36.8383 42.3703L29.0739 26.6474L28.8049 26.7803L36.5693 42.5032L36.8383 42.3703ZM28.7894 26.7138V38.8457H29.0894V26.7138H28.7894ZM28.7894 38.8457C28.7894 39.1167 28.8233 39.4179 28.8894 39.7486L29.1836 39.6898C29.1203 39.3735 29.0894 39.0924 29.0894 38.8457H28.7894ZM28.8901 39.7517C28.9573 40.0545 29.0584 40.3411 29.1935 40.6113L29.4618 40.4771C29.3381 40.2296 29.245 39.9662 29.1829 39.6867L28.8901 39.7517ZM29.1935 40.6113C29.3297 40.8837 29.5007 41.1235 29.7069 41.3296L29.919 41.1175C29.7369 40.9354 29.5844 40.7223 29.4618 40.4771L29.1935 40.6113ZM29.7069 41.3296C29.9272 41.55 30.1911 41.6647 30.4923 41.6647V41.3647C30.2759 41.3647 30.0869 41.2854 29.919 41.1175L29.7069 41.3296ZM30.3423 41.5147V42H30.6423V41.5147H30.3423ZM30.4923 41.85H25.7851V42.15H30.4923V41.85ZM25.9351 42V41.5147H25.6351V42H25.9351ZM25.7851 41.6647C26.0863 41.6647 26.3503 41.55 26.5706 41.3296L26.3585 41.1175C26.1906 41.2854 26.0016 41.3647 25.7851 41.3647V41.6647ZM26.5706 41.3296C26.78 41.1203 26.9372 40.8756 27.0417 40.5968L26.7608 40.4915C26.6712 40.7304 26.5373 40.9386 26.3585 41.1175L26.5706 41.3296ZM27.0354 40.6113C27.1705 40.3411 27.2716 40.0545 27.3389 39.7517L27.046 39.6867C26.9839 39.9662 26.8909 40.2296 26.7671 40.4771L27.0354 40.6113ZM27.3395 39.7486C27.4057 39.4179 27.4395 39.1167 27.4395 38.8457H27.1395C27.1395 39.0924 27.1086 39.3735 27.0454 39.6898L27.3395 39.7486ZM27.4395 38.8457V24.6272H27.1395V38.8457H27.4395ZM27.4395 24.6272C27.4395 24.0307 27.3566 23.4503 27.1908 22.8864L26.903 22.971C27.0606 23.507 27.1395 24.0589 27.1395 24.6272H27.4395ZM27.1929 22.8943C27.1205 22.5869 26.9631 22.3457 26.7165 22.1844C26.4736 22.0256 26.1586 21.9537 25.7851 21.9537V22.2537C26.1235 22.2537 26.3746 22.3193 26.5523 22.4355C26.7263 22.5493 26.8438 22.7205 26.9008 22.9631L27.1929 22.8943ZM25.9351 22.1037V21.6185H25.6351V22.1037H25.9351ZM25.7851 21.7685H30.1041V21.4685H25.7851V21.7685ZM29.9693 21.6843L37.394 36.8734L37.6636 36.7417L30.2389 21.5526L29.9693 21.6843ZM37.6636 36.8734L45.0883 21.6843L44.8187 21.5526L37.394 36.7417L37.6636 36.8734ZM44.9535 21.7685H49.5636V21.4685H44.9535V21.7685ZM49.4136 21.6185V22.1037H49.7136V21.6185H49.4136ZM49.5636 21.9537C48.9975 21.9537 48.5678 22.3189 48.2634 22.9615L48.5345 23.09C48.8124 22.5033 49.1591 22.2537 49.5636 22.2537V21.9537ZM48.2648 22.9587C47.9666 23.555 47.8122 24.112 47.8122 24.6272H48.1122C48.1122 24.1717 48.249 23.6611 48.5331 23.0928L48.2648 22.9587ZM47.8122 24.6272V38.8457H48.1122V24.6272H47.8122ZM56.9819 32.1975V32.0475H56.8137L56.8328 32.2145L56.9819 32.1975ZM57.8068 35.4488L57.6679 35.5053L57.6685 35.5068L57.8068 35.4488ZM59.4568 38.1178L59.3439 38.2166L59.3462 38.2192L59.4568 38.1178ZM62.0287 40.0104L61.9634 40.1454L61.967 40.1471L62.0287 40.0104ZM67.755 40.3986L67.7914 40.5442L67.7954 40.543L67.755 40.3986ZM69.9872 39.4766L70.0617 39.6068L69.9872 39.4766ZM71.7827 38.0693L71.6737 37.9663L71.6735 37.9665L71.7827 38.0693ZM72.8989 36.1282V35.9782H72.7843L72.7542 36.0887L72.8989 36.1282ZM73.3356 36.1282H73.4856V35.9782H73.3356V36.1282ZM73.3356 39.7677V39.9177H73.4856V39.7677H73.3356ZM72.6562 39.9618L72.5891 39.8275L72.5818 39.8316L72.6562 39.9618ZM71.8313 40.4471L71.9084 40.5757L71.8313 40.4471ZM69.2108 41.7088L69.2644 41.849L69.2679 41.8475L69.2108 41.7088ZM60.67 41.7088L60.6236 41.8515L60.6246 41.8518L60.67 41.7088ZM54.7981 36.4193L54.6602 36.4784L54.6615 36.4812L54.7981 36.4193ZM54.507 27.927L54.365 27.8785L54.3639 27.8819L54.507 27.927ZM56.351 24.6272L56.2361 24.5308L56.2358 24.5311L56.351 24.6272ZM59.5538 22.2008L59.6182 22.3363L59.5538 22.2008ZM68.4343 22.1037L68.3717 22.24L68.3731 22.2407L68.4343 22.1037ZM71.4431 24.3845L71.3259 24.4783L71.3278 24.4806L71.4431 24.3845ZM73.2386 27.83L73.3825 27.7878V27.7878L73.2386 27.83ZM73.8209 32.1975V32.3475H73.9709V32.1975H73.8209ZM61.0582 23.5596L60.987 23.4275L60.9849 23.4287L61.0582 23.5596ZM58.9715 25.3065L59.0876 25.4015L58.9715 25.3065ZM57.6127 27.7329L57.754 27.7834L57.6127 27.7329ZM56.9819 30.4505L56.8327 30.4345L56.8149 30.6005H56.9819V30.4505ZM70.8122 30.4505V30.6005H70.9675L70.9621 30.4453L70.8122 30.4505ZM70.2784 27.6844L70.1355 27.7303L70.1371 27.7348L70.2784 27.6844ZM69.0167 25.258L69.1354 25.1663L69.0167 25.258ZM66.93 23.5596L66.8588 23.6917L66.8629 23.6937L66.93 23.5596ZM56.8328 32.2145C56.9638 33.3601 57.2421 34.4571 57.6679 35.5052L57.9458 35.3923C57.5305 34.37 57.2588 33.2995 57.1309 32.1804L56.8328 32.2145ZM57.6685 35.5068C58.095 36.5238 58.6533 37.4274 59.3439 38.2166L59.5697 38.019C58.9015 37.2554 58.3598 36.3796 57.9452 35.3908L57.6685 35.5068ZM59.3462 38.2192C60.0715 39.0104 60.9444 39.6523 61.9634 40.1454L62.0941 39.8754C61.1072 39.3979 60.2655 38.7781 59.5673 38.0164L59.3462 38.2192ZM61.967 40.1471C62.9929 40.6104 64.1793 40.8398 65.5227 40.8398V40.5398C64.2133 40.5398 63.0704 40.3162 62.0905 39.8737L61.967 40.1471ZM65.5227 40.8398C66.2481 40.8398 67.0045 40.7408 67.7913 40.5441L67.7186 40.2531C66.9526 40.4446 66.2208 40.5398 65.5227 40.5398V40.8398ZM67.7954 40.543C68.6152 40.3135 69.3708 40.0016 70.0617 39.6068L69.9128 39.3463C69.2449 39.728 68.5123 40.0308 67.7145 40.2542L67.7954 40.543ZM70.0617 39.6068C70.7535 39.2115 71.3638 38.7333 71.892 38.1721L71.6735 37.9665C71.1664 38.5052 70.5798 38.9652 69.9128 39.3463L70.0617 39.6068ZM71.8918 38.1723C72.4572 37.5736 72.8425 36.9052 73.0436 36.1676L72.7542 36.0887C72.5671 36.7747 72.2082 37.4003 71.6737 37.9663L71.8918 38.1723ZM72.8989 36.2782H73.3356V35.9782H72.8989V36.2782ZM73.1856 36.1282V39.7677H73.4856V36.1282H73.1856ZM73.3356 39.6177C73.1096 39.6177 72.8594 39.6926 72.5892 39.8277L72.7233 40.096C72.9707 39.9723 73.1734 39.9177 73.3356 39.9177V39.6177ZM72.5818 39.8316C72.3541 39.9617 72.0782 40.1241 71.7541 40.3185L71.9084 40.5757C72.2314 40.382 72.5054 40.2208 72.7307 40.0921L72.5818 39.8316ZM71.7541 40.3185C71.1161 40.7013 70.2502 41.1186 69.1537 41.5701L69.2679 41.8475C70.3713 41.3932 71.2524 40.9694 71.9084 40.5757L71.7541 40.3185ZM69.1572 41.5687C68.081 41.9802 66.6455 42.1897 64.8433 42.1897V42.4897C66.6645 42.4897 68.1407 42.2786 69.2644 41.8489L69.1572 41.5687ZM64.8433 42.1897C63.4022 42.1897 62.0264 41.9816 60.7153 41.5658L60.6246 41.8518C61.9664 42.2773 63.3728 42.4897 64.8433 42.4897V42.1897ZM60.7163 41.5662C59.441 41.1517 58.3103 40.5146 57.323 39.6546L57.126 39.8808C58.1445 40.7679 59.3108 41.4248 60.6236 41.8515L60.7163 41.5662ZM57.323 39.6546C56.3382 38.7969 55.5417 37.699 54.9348 36.3575L54.6615 36.4812C55.2839 37.8572 56.105 38.9916 57.126 39.8808L57.323 39.6546ZM54.936 36.3603C54.3635 35.0245 54.0746 33.4279 54.0746 31.5666H53.7746C53.7746 33.458 54.0681 35.0967 54.6603 36.4784L54.936 36.3603ZM54.0746 31.5666C54.0746 30.386 54.266 29.1881 54.65 27.9722L54.3639 27.8819C53.9715 29.1247 53.7746 30.3531 53.7746 31.5666H54.0746ZM54.6489 27.9756C55.0637 26.763 55.6695 25.6793 56.4662 24.7232L56.2358 24.5311C55.4149 25.5162 54.7914 26.6323 54.365 27.8785L54.6489 27.9756ZM56.4659 24.7236C57.292 23.7387 58.3417 22.9426 59.6182 22.3363L59.4895 22.0653C58.1778 22.6883 57.0923 23.5098 56.2361 24.5308L56.4659 24.7236ZM59.6182 22.3363C60.8875 21.7333 62.4173 21.4288 64.2125 21.4288V21.1288C62.3842 21.1288 60.8082 21.4389 59.4895 22.0653L59.6182 22.3363ZM64.2125 21.4288C65.8132 21.4288 67.1983 21.7009 68.3717 22.24L68.497 21.9674C67.2764 21.4066 65.8468 21.1288 64.2125 21.1288V21.4288ZM68.3731 22.2407C69.5825 22.7817 70.5656 23.5279 71.3259 24.4782L71.5602 24.2908C70.7676 23.3001 69.7449 22.5257 68.4956 21.9668L68.3731 22.2407ZM71.3278 24.4806C72.1222 25.4339 72.7116 26.5636 73.0946 27.8721L73.3825 27.7878C72.9891 26.4436 72.3814 25.2763 71.5583 24.2885L71.3278 24.4806ZM73.0946 27.8721C73.4783 29.183 73.6709 30.6244 73.6709 32.1975H73.9709C73.9709 30.6 73.7753 29.1298 73.3825 27.7878L73.0946 27.8721ZM73.8209 32.0475H56.9819V32.3475H73.8209V32.0475ZM64.0183 22.7302C62.8658 22.7302 61.8538 22.9608 60.9871 23.4275L61.1293 23.6916C61.9449 23.2525 62.9063 23.0302 64.0183 23.0302V22.7302ZM60.9849 23.4287C60.1598 23.8907 59.4497 24.4852 58.8554 25.2116L59.0876 25.4015C59.6579 24.7045 60.3389 24.1343 61.1315 23.6904L60.9849 23.4287ZM58.8554 25.2116C58.2617 25.9372 57.8005 26.7612 57.4715 27.6825L57.754 27.7834C58.072 26.893 58.5166 26.0994 59.0876 25.4015L58.8554 25.2116ZM57.4715 27.6825C57.1442 28.5988 56.9311 29.5162 56.8327 30.4345L57.131 30.4664C57.2267 29.573 57.4342 28.6787 57.754 27.7834L57.4715 27.6825ZM56.9819 30.6005H70.8122V30.3005H56.9819V30.6005ZM70.9621 30.4453C70.9292 29.4913 70.7482 28.554 70.4197 27.6339L70.1371 27.7348C70.4556 28.6265 70.6305 29.5333 70.6623 30.4556L70.9621 30.4453ZM70.4212 27.6385C70.125 26.7171 69.6966 25.8926 69.1354 25.1663L68.898 25.3497C69.4367 26.0469 69.8494 26.84 70.1356 27.7303L70.4212 27.6385ZM69.1354 25.1663C68.571 24.4359 67.8575 23.8556 66.9971 23.4254L66.8629 23.6937C67.6848 24.1047 68.3624 24.6567 68.898 25.3497L69.1354 25.1663ZM67.0011 23.4275C66.135 22.9611 65.1393 22.7302 64.0183 22.7302V23.0302C65.0973 23.0302 66.0427 23.2521 66.8589 23.6916L67.0011 23.4275ZM90.4336 41.5147V41.3647H90.2836V41.5147H90.4336ZM91.21 41.2236L91.2932 41.3484L91.21 41.2236ZM91.5497 40.0104L91.4012 40.0316L91.4032 40.045L91.4074 40.0578L91.5497 40.0104ZM91.3071 39.2825L91.1687 39.3411L91.1729 39.3495L91.3071 39.2825ZM85.1441 24.7242L85.2822 24.6657L85.1434 24.3378L85.0058 24.6662L85.1441 24.7242ZM78.7385 40.0104L78.6001 39.9524L78.5999 39.9529L78.7385 40.0104ZM74.4195 42H74.2695V42.15H74.4195V42ZM74.4195 41.5147V41.3647H74.2695V41.5147H74.4195ZM75.8754 40.8353L75.9741 40.9482L75.9746 40.9478L75.8754 40.8353ZM77.1856 39.1369L77.32 39.2041L77.3235 39.1959L77.1856 39.1369ZM83.7853 23.7051L83.9233 23.7642L83.9253 23.759L83.7853 23.7051ZM83.2515 22.1037H83.1015V22.2537H83.2515V22.1037ZM83.2515 21.6185V21.4685H83.1015V21.6185H83.2515ZM87.1823 21.6185L87.3202 21.5595L87.2812 21.4685H87.1823V21.6185ZM94.6555 39.0884L94.5175 39.1474L94.5196 39.1518L94.6555 39.0884ZM95.626 40.6898L95.5042 40.7778L95.5102 40.7851L95.626 40.6898ZM96.8877 41.5147H97.0378V41.3647H96.8877V41.5147ZM96.8877 42V42.15H97.0378V42H96.8877ZM90.4336 42H90.2836V42.15H90.4336V42ZM90.4336 41.6647C90.7018 41.6647 90.9899 41.5506 91.2932 41.3484L91.1268 41.0988C90.8478 41.2847 90.6184 41.3647 90.4336 41.3647V41.6647ZM91.2932 41.3484C91.627 41.1259 91.7968 40.8036 91.7968 40.3986H91.4968C91.4968 40.7053 91.3754 40.933 91.1268 41.0988L91.2932 41.3484ZM91.7968 40.3986C91.7968 40.3469 91.7847 40.2835 91.768 40.2166C91.7506 40.1468 91.725 40.0619 91.692 39.9629L91.4074 40.0578C91.4391 40.1529 91.4621 40.2298 91.477 40.2894C91.4926 40.352 91.4968 40.3856 91.4968 40.3986H91.7968ZM91.6982 39.9892C91.6631 39.7432 91.576 39.485 91.4413 39.2154L91.1729 39.3495C91.2969 39.5976 91.3717 39.8247 91.4012 40.0316L91.6982 39.9892ZM91.4452 39.224L85.2822 24.6657L85.006 24.7827L91.169 39.3409L91.4452 39.224ZM85.0058 24.6662L78.6001 39.9524L78.8768 40.0683L85.2824 24.7822L85.0058 24.6662ZM78.5999 39.9529C78.3354 40.5908 77.9463 41.0617 77.4349 41.3746C76.9222 41.6884 76.2757 41.85 75.4871 41.85V42.15C76.3161 42.15 77.0204 41.98 77.5915 41.6305C78.1638 41.2803 78.5916 40.7563 78.877 40.0678L78.5999 39.9529ZM75.4871 41.85H74.4195V42.15H75.4871V41.85ZM74.5695 42V41.5147H74.2695V42H74.5695ZM74.4195 41.6647C74.9236 41.6647 75.4428 41.4131 75.9741 40.9482L75.7766 40.7225C75.2726 41.1634 74.8213 41.3647 74.4195 41.3647V41.6647ZM75.9746 40.9478C76.5388 40.45 76.9875 39.8685 77.3198 39.204L77.0514 39.0698C76.7367 39.6994 76.3119 40.2502 75.7761 40.7229L75.9746 40.9478ZM77.3235 39.1959L83.9232 23.7641L83.6474 23.6462L77.0477 39.0779L77.3235 39.1959ZM83.9253 23.759C84.0895 23.332 84.178 22.9721 84.178 22.6861H83.878C83.878 22.9176 83.8046 23.2371 83.6453 23.6513L83.9253 23.759ZM84.178 22.6861C84.178 22.4554 84.0988 22.2605 83.9239 22.1293C83.757 22.0042 83.5248 21.9537 83.2515 21.9537V22.2537C83.4959 22.2537 83.6519 22.3003 83.7439 22.3693C83.8277 22.4322 83.878 22.5286 83.878 22.6861H84.178ZM83.4015 22.1037V21.6185H83.1015V22.1037H83.4015ZM83.2515 21.7685H87.1823V21.4685H83.2515V21.7685ZM87.0443 21.6775L94.5176 39.1473L94.7934 39.0294L87.3202 21.5595L87.0443 21.6775ZM94.5196 39.1518C94.7511 39.648 95.0801 40.19 95.5044 40.7776L95.7476 40.6019C95.3309 40.0249 95.0128 39.4993 94.7914 39.0249L94.5196 39.1518ZM95.5102 40.7851C95.9695 41.3427 96.4287 41.6647 96.8877 41.6647V41.3647C96.5703 41.3647 96.1885 41.1367 95.7418 40.5944L95.5102 40.7851ZM96.7378 41.5147V42H97.0378V41.5147H96.7378ZM96.8877 41.85H90.4336V42.15H96.8877V41.85ZM90.5836 42V41.5147H90.2836V42H90.5836ZM115.385 39.7192L115.238 39.7486L115.238 39.7517L115.385 39.7192ZM115.676 40.5927L115.539 40.6536L115.543 40.6633L115.549 40.6722L115.676 40.5927ZM116.161 41.2721L116.046 41.3681L116.055 41.3786L116.065 41.3873L116.161 41.2721ZM116.84 41.5147H116.991V41.3647H116.84V41.5147ZM116.84 42V42.15H116.991V42H116.84ZM110.532 42H110.382V42.15H110.532V42ZM110.532 41.5147V41.3647H110.382V41.5147H110.532ZM111.163 41.2236L111.269 41.3296L111.163 41.2236ZM111.648 40.5442L111.521 40.4647L111.517 40.4707L111.514 40.4771L111.648 40.5442ZM111.988 39.7192L112.134 39.7518L112.135 39.7486L111.988 39.7192ZM112.085 32.0519H112.235V31.8721L112.058 31.9043L112.085 32.0519ZM110.872 32.6342L110.953 32.7605L110.959 32.7563L110.872 32.6342ZM109.464 33.7989L109.567 33.9086L109.57 33.9049L109.464 33.7989ZM108.057 35.3032L107.941 35.2079L108.057 35.3032ZM106.795 36.9531L106.917 37.0403L106.918 37.0396L106.795 36.9531ZM105.97 38.0693L106.089 38.1614L105.97 38.0693ZM105.388 38.8942L105.507 38.9857L105.511 38.9799L105.515 38.9737L105.388 38.8942ZM104.417 40.1074L104.529 40.2084L104.533 40.2035L104.417 40.1074ZM103.301 41.078L103.216 40.9546L103.211 40.958L103.301 41.078ZM101.894 41.7574L101.936 41.9013L101.894 41.7574ZM98.1574 42H98.0074V42.15H98.1574V42ZM98.1574 41.5147V41.3647H98.0074V41.5147H98.1574ZM99.3221 41.175L99.2509 41.0429L99.2465 41.0455L99.3221 41.175ZM100.535 40.3501L100.631 40.4654L100.637 40.4606L100.535 40.3501ZM101.603 39.2339L101.488 39.137L101.488 39.1379L101.603 39.2339ZM102.525 38.0693L102.646 38.1575L102.647 38.157L102.525 38.0693ZM104.029 35.9826L103.909 35.8934L103.908 35.8949L104.029 35.9826ZM105.728 33.7989L105.844 33.8939L105.846 33.8913L105.728 33.7989ZM107.717 32.0519L107.791 32.1825L108.261 31.9169L107.721 31.9019L107.717 32.0519ZM104.612 31.5666L104.566 31.7094L104.612 31.5666ZM100.923 28.752L100.786 28.8137L100.791 28.8219L100.923 28.752ZM100.923 24.7727L100.791 24.7028L100.788 24.7085L100.923 24.7727ZM102.428 23.1713L102.511 23.2962L102.515 23.2934L102.428 23.1713ZM105 22.0552L105.036 22.2008L105.039 22.1999L105 22.0552ZM116.84 21.6185H116.991V21.4685H116.84V21.6185ZM116.84 22.1037V22.2537H116.991V22.1037H116.84ZM116.161 22.3949L116.267 22.501L116.161 22.3949ZM115.676 23.0258L115.549 22.9463L115.545 22.9523L115.542 22.9587L115.676 23.0258ZM104.078 27.8785L103.949 27.9558L103.953 27.9617L104.078 27.8785ZM105.339 29.1887L105.249 29.3088L105.253 29.3113L105.339 29.1887ZM107.184 30.1593L107.13 30.2996L107.136 30.3016L107.184 30.1593ZM112.085 30.499V30.649H112.235V30.499H112.085ZM112.085 23.1713H112.235V23.0213H112.085V23.1713ZM104.806 24.0934L104.715 23.9739L104.713 23.9758L104.806 24.0934ZM115.138 38.8457C115.138 39.1167 115.171 39.4179 115.238 39.7486L115.532 39.6898C115.468 39.3735 115.438 39.0924 115.438 38.8457H115.138ZM115.238 39.7517C115.305 40.0533 115.406 40.354 115.539 40.6536L115.813 40.5318C115.687 40.2491 115.593 39.9674 115.531 39.6867L115.238 39.7517ZM115.549 40.6722C115.713 40.9356 115.879 41.1678 116.046 41.3681L116.276 41.1761C116.12 40.9881 115.962 40.7674 115.803 40.5132L115.549 40.6722ZM116.065 41.3873C116.287 41.5721 116.548 41.6647 116.84 41.6647V41.3647C116.616 41.3647 116.424 41.2956 116.257 41.1569L116.065 41.3873ZM116.69 41.5147V42H116.991V41.5147H116.69ZM116.84 41.85H110.532V42.15H116.84V41.85ZM110.682 42V41.5147H110.382V42H110.682ZM110.532 41.6647C110.806 41.6647 111.053 41.5455 111.269 41.3296L111.057 41.1175C110.884 41.2898 110.71 41.3647 110.532 41.3647V41.6647ZM111.269 41.3296C111.475 41.1235 111.646 40.8837 111.782 40.6113L111.514 40.4771C111.391 40.7223 111.239 40.9354 111.057 41.1175L111.269 41.3296ZM111.775 40.6237C111.946 40.3508 112.066 40.0599 112.134 39.7517L111.841 39.6867C111.78 39.9608 111.674 40.22 111.521 40.4647L111.775 40.6237ZM112.135 39.7486C112.201 39.4179 112.235 39.1167 112.235 38.8457H111.935C111.935 39.0924 111.904 39.3735 111.841 39.6898L112.135 39.7486ZM112.235 38.8457V32.0519H111.935V38.8457H112.235ZM112.058 31.9043C111.672 31.9745 111.247 32.182 110.784 32.5121L110.959 32.7563C111.402 32.4393 111.786 32.2586 112.112 32.1994L112.058 31.9043ZM110.791 32.508C110.327 32.8063 109.849 33.2019 109.358 33.6928L109.57 33.9049C110.05 33.4253 110.511 33.0444 110.953 32.7604L110.791 32.508ZM109.362 33.6892C108.872 34.1469 108.398 34.6532 107.941 35.2079L108.173 35.3986C108.622 34.8533 109.087 34.3567 109.567 33.9085L109.362 33.6892ZM107.941 35.2079C107.486 35.7605 107.063 36.3135 106.673 36.8666L106.918 37.0396C107.304 36.4929 107.722 35.9458 108.173 35.3986L107.941 35.2079ZM106.673 36.866C106.35 37.318 106.077 37.6882 105.852 37.9772L106.089 38.1614C106.317 37.868 106.593 37.4942 106.917 37.0403L106.673 36.866ZM105.852 37.9772C105.623 38.2716 105.426 38.5508 105.261 38.8147L105.515 38.9737C105.674 38.7201 105.865 38.4493 106.089 38.1614L105.852 37.9772ZM105.269 38.8028C104.947 39.2219 104.624 39.6248 104.302 40.0114L104.533 40.2035C104.858 39.8137 105.182 39.4077 105.507 38.9857L105.269 38.8028ZM104.306 40.0065C103.991 40.3535 103.628 40.6696 103.216 40.9547L103.387 41.2013C103.816 40.9041 104.197 40.5731 104.528 40.2083L104.306 40.0065ZM103.211 40.958C102.84 41.2366 102.388 41.4559 101.852 41.6135L101.936 41.9013C102.5 41.7353 102.986 41.5017 103.391 41.198L103.211 40.958ZM101.852 41.6135C101.319 41.7702 100.687 41.85 99.9529 41.85V42.15C100.707 42.15 101.369 42.0681 101.936 41.9013L101.852 41.6135ZM99.9529 41.85H98.1574V42.15H99.9529V41.85ZM98.3074 42V41.5147H98.0074V42H98.3074ZM98.1574 41.6647C98.5761 41.6647 98.9902 41.5423 99.3977 41.3046L99.2465 41.0455C98.8776 41.2607 98.5151 41.3647 98.1574 41.3647V41.6647ZM99.3932 41.3071C99.8231 41.0756 100.236 40.7949 100.631 40.4653L100.439 40.2348C100.058 40.5523 99.6622 40.8215 99.251 41.043L99.3932 41.3071ZM100.637 40.4606C101.03 40.1004 101.39 39.7235 101.718 39.33L101.488 39.1379C101.169 39.5208 100.817 39.888 100.434 40.2395L100.637 40.4606ZM101.717 39.3308C102.075 38.9081 102.385 38.517 102.646 38.1575L102.404 37.981C102.147 38.3333 101.842 38.7186 101.488 39.137L101.717 39.3308ZM102.647 38.157L104.151 36.0703L103.908 35.8949L102.403 37.9816L102.647 38.157ZM104.15 36.0718C104.698 35.3296 105.263 34.6037 105.844 33.8938L105.612 33.7039C105.028 34.4175 104.46 35.1474 103.909 35.8934L104.15 36.0718ZM105.846 33.8913C106.417 33.1611 107.066 32.5924 107.791 32.1825L107.644 31.9213C106.881 32.3525 106.203 32.9485 105.61 33.7064L105.846 33.8913ZM107.721 31.9019C106.568 31.8699 105.547 31.7098 104.657 31.4238L104.566 31.7094C105.488 32.0057 106.537 32.1692 107.713 32.2018L107.721 31.9019ZM104.657 31.4238C103.765 31.137 103.022 30.7563 102.424 30.2842L102.238 30.5197C102.869 31.0181 103.646 31.4139 104.566 31.7094L104.657 31.4238ZM102.424 30.2842C101.823 29.8103 101.369 29.276 101.056 28.6821L100.791 28.8219C101.125 29.4573 101.609 30.0231 102.238 30.5197L102.424 30.2842ZM101.06 28.6904C100.778 28.0628 100.637 27.4044 100.637 26.7138H100.337C100.337 27.4467 100.487 28.1471 100.787 28.8136L101.06 28.6904ZM100.637 26.7138C100.637 26.0567 100.777 25.4316 101.059 24.837L100.788 24.7085C100.487 25.3433 100.337 26.0122 100.337 26.7138H100.637ZM101.056 24.8426C101.366 24.2537 101.849 23.7376 102.511 23.2961L102.345 23.0465C101.648 23.5109 101.128 24.0624 100.791 24.7029L101.056 24.8426ZM102.515 23.2934C103.175 22.8216 104.014 22.4562 105.036 22.2007L104.963 21.9097C103.915 22.1719 103.039 22.5505 102.341 23.0493L102.515 23.2934ZM105.039 22.1999C106.09 21.9132 107.354 21.7685 108.833 21.7685V21.4685C107.336 21.4685 106.044 21.6149 104.96 21.9105L105.039 22.1999ZM108.833 21.7685H116.84V21.4685H108.833V21.7685ZM116.69 21.6185V22.1037H116.991V21.6185H116.69ZM116.84 21.9537C116.539 21.9537 116.275 22.0685 116.055 22.2888L116.267 22.501C116.435 22.3331 116.624 22.2537 116.84 22.2537V21.9537ZM116.055 22.2888C115.883 22.4608 115.715 22.6808 115.549 22.9463L115.803 23.1053C115.961 22.8531 116.116 22.6525 116.267 22.501L116.055 22.2888ZM115.542 22.9587C115.407 23.2288 115.306 23.5154 115.238 23.8182L115.531 23.8833C115.593 23.6037 115.686 23.3403 115.81 23.0928L115.542 22.9587ZM115.238 23.8182C115.172 24.1169 115.138 24.3869 115.138 24.6272H115.438C115.438 24.4145 115.468 24.1669 115.531 23.8833L115.238 23.8182ZM115.138 24.6272V38.8457H115.438V24.6272H115.138ZM103.491 26.4227C103.491 26.9394 103.646 27.451 103.949 27.9557L104.206 27.8013C103.927 27.3354 103.791 26.8765 103.791 26.4227H103.491ZM103.953 27.9617C104.287 28.4626 104.72 28.9114 105.249 29.3087L105.429 29.0687C104.924 28.6896 104.516 28.265 104.203 27.7953L103.953 27.9617ZM105.253 29.3113C105.814 29.7073 106.44 30.0365 107.13 30.2995L107.237 30.0191C106.568 29.7644 105.965 29.4466 105.426 29.0662L105.253 29.3113ZM107.136 30.3016C107.832 30.5336 108.576 30.649 109.367 30.649V30.349C108.606 30.349 107.894 30.2379 107.231 30.017L107.136 30.3016ZM109.367 30.649H112.085V30.349H109.367V30.649ZM112.235 30.499V23.1713H111.935V30.499H112.235ZM112.085 23.0213H108.931V23.3213H112.085V23.0213ZM108.931 23.0213C106.982 23.0213 105.565 23.3281 104.715 23.9739L104.896 24.2128C105.664 23.6292 106.997 23.3213 108.931 23.3213V23.0213ZM104.713 23.9758C103.903 24.6171 103.491 25.4358 103.491 26.4227H103.791C103.791 25.5332 104.156 24.799 104.899 24.211L104.713 23.9758Z" fill="url(#paint1_linear_1_241)"/>
<path d="M5.24027 57.1164C4.68599 57.1164 4.18713 57.0277 3.7437 56.8503C3.30028 56.6619 2.91782 56.4125 2.59634 56.1021C2.28594 55.7806 2.04205 55.4037 1.86468 54.9713C1.6984 54.539 1.61525 54.0678 1.61525 53.5579C1.61525 53.0147 1.70948 52.5214 1.89794 52.078C2.0864 51.6234 2.34691 51.2355 2.67948 50.914C3.01205 50.5925 3.40559 50.3431 3.8601 50.1657C4.31462 49.9883 4.80793 49.8996 5.34004 49.8996C5.87215 49.8996 6.35992 49.9883 6.80335 50.1657C7.24678 50.332 7.62923 50.5703 7.95072 50.8807C8.2722 51.1911 8.52163 51.5625 8.699 51.9948C8.87637 52.4161 8.96505 52.8817 8.96505 53.3916C8.96505 53.8683 8.88191 54.3339 8.71563 54.7884C8.56043 55.2318 8.32209 55.6254 8.0006 55.969C7.6902 56.3127 7.3022 56.5898 6.83661 56.8005C6.38209 57.0111 5.84998 57.1164 5.24027 57.1164ZM5.1405 50.4484C4.74141 50.4705 4.38667 50.5703 4.07627 50.7477C3.77696 50.914 3.52199 51.1357 3.31136 51.4128C3.11182 51.6789 2.95662 51.9837 2.84576 52.3274C2.74599 52.671 2.69611 53.0202 2.69611 53.375C2.69611 53.7852 2.75708 54.1842 2.87902 54.5722C3.01205 54.9492 3.19496 55.2873 3.42776 55.5866C3.67165 55.8859 3.95987 56.1242 4.29244 56.3016C4.62501 56.479 4.99638 56.5677 5.40655 56.5677C5.81672 56.5677 6.17701 56.479 6.48741 56.3016C6.80889 56.1242 7.07495 55.897 7.28558 55.6198C7.4962 55.3316 7.6514 55.0101 7.75117 54.6554C7.86203 54.3006 7.91746 53.9459 7.91746 53.5912C7.91746 53.2253 7.86203 52.8595 7.75117 52.4937C7.64032 52.1168 7.46849 51.7786 7.23569 51.4793C7.00289 51.1689 6.70912 50.9195 6.35438 50.7311C6.01072 50.5426 5.6061 50.4484 5.1405 50.4484ZM13.7447 55.9191C13.7447 56.0078 13.7558 56.1076 13.778 56.2185C13.8001 56.3182 13.8334 56.4125 13.8777 56.5011C13.9221 56.5898 13.972 56.6674 14.0274 56.7339C14.0939 56.8005 14.166 56.8337 14.2436 56.8337V57H12.1484V56.8337C12.226 56.8337 12.2925 56.806 12.3479 56.7506C12.4144 56.6841 12.4699 56.6065 12.5142 56.5178C12.5585 56.418 12.5918 56.3182 12.614 56.2185C12.6361 56.1076 12.6472 56.0078 12.6472 55.9191V51.047C12.6472 50.9694 12.6361 50.8807 12.614 50.7809C12.5918 50.6812 12.5585 50.5869 12.5142 50.4983C12.4699 50.4096 12.4144 50.3375 12.3479 50.2821C12.2925 50.2156 12.226 50.1823 12.1484 50.1823V50.016H14.2436V50.1823C14.1549 50.1823 14.0773 50.2156 14.0108 50.2821C13.9553 50.3375 13.9055 50.4096 13.8611 50.4983C13.8279 50.5869 13.8001 50.6812 13.778 50.7809C13.7558 50.8807 13.7447 50.9694 13.7447 51.047V53.059H17.536V51.047C17.536 50.9694 17.5249 50.8807 17.5028 50.7809C17.4806 50.6812 17.4473 50.5869 17.403 50.4983C17.3697 50.4096 17.3198 50.3375 17.2533 50.2821C17.1979 50.2156 17.1258 50.1823 17.0372 50.1823V50.016H19.1323V50.1823C19.0437 50.1823 18.9661 50.2156 18.8995 50.2821C18.8441 50.3375 18.7942 50.4096 18.7499 50.4983C18.7055 50.5869 18.6723 50.6812 18.6501 50.7809C18.639 50.8807 18.6335 50.9694 18.6335 51.047V55.9191C18.6335 56.0078 18.6446 56.1076 18.6667 56.2185C18.6889 56.3182 18.7222 56.4125 18.7665 56.5011C18.8109 56.5898 18.8607 56.6674 18.9162 56.7339C18.9827 56.8005 19.0547 56.8337 19.1323 56.8337V57H17.0372V56.8337C17.1148 56.8337 17.1813 56.806 17.2367 56.7506C17.3032 56.6841 17.3586 56.6065 17.403 56.5178C17.4473 56.418 17.4806 56.3182 17.5028 56.2185C17.5249 56.1076 17.536 56.0078 17.536 55.9191V53.6078H13.7447V55.9191ZM27.3893 56.8337C27.4669 56.8337 27.5556 56.8005 27.6554 56.7339C27.7551 56.6674 27.805 56.5732 27.805 56.4513C27.805 56.4291 27.7939 56.3847 27.7718 56.3182C27.7607 56.2406 27.733 56.1575 27.6886 56.0688L25.5768 51.0803L23.3818 56.3182C23.1934 56.7727 22.822 57 22.2677 57H21.9019V56.8337C22.0571 56.8337 22.2234 56.7561 22.4008 56.6009C22.5892 56.4346 22.7389 56.2406 22.8497 56.0189L25.1112 50.7311C25.1666 50.5869 25.1943 50.4705 25.1943 50.3819C25.1943 50.2488 25.1057 50.1823 24.9283 50.1823V50.016H26.2752L28.836 56.0023C28.9136 56.1686 29.0244 56.3515 29.1686 56.551C29.3238 56.7395 29.4679 56.8337 29.6009 56.8337V57H27.3893V56.8337ZM36.6541 57V56.1519L36.571 56.2351C36.2938 56.5122 35.9723 56.7284 35.6065 56.8836C35.2518 57.0388 34.8194 57.1164 34.3095 57.1164C33.9215 57.1164 33.5889 57.0721 33.3118 56.9834C33.0346 56.8947 32.8074 56.7727 32.63 56.6175C32.4526 56.4513 32.3196 56.2628 32.2309 56.0522C32.1533 55.8415 32.1145 55.6198 32.1145 55.387C32.1145 55.0101 32.2143 54.6776 32.4138 54.3893C32.6245 54.1011 32.9238 53.8461 33.3118 53.6244C33.6998 53.4027 34.1709 53.2032 34.7252 53.0258C35.2906 52.8373 35.9335 52.6544 36.6541 52.477C36.6319 52.0447 36.5433 51.6955 36.3881 51.4295C36.2329 51.1634 36.0499 50.9583 35.8393 50.8142C35.6287 50.659 35.407 50.5592 35.1742 50.5149C34.9414 50.4595 34.7418 50.4317 34.5756 50.4317C34.2873 50.4317 34.0324 50.4761 33.8106 50.5648C33.5889 50.6424 33.3949 50.7532 33.2286 50.8973C33.0624 51.0304 32.9238 51.1856 32.8129 51.3629C32.7132 51.5403 32.6356 51.7177 32.5801 51.895H32.4305V50.598C32.5302 50.598 32.6466 50.5648 32.7797 50.4983C32.9127 50.4207 33.0679 50.3375 33.2453 50.2488C33.4337 50.1601 33.6554 50.0825 33.9104 50.016C34.1765 49.9384 34.4924 49.8996 34.8582 49.8996C35.4679 49.8996 35.9613 49.9772 36.3382 50.1324C36.7151 50.2876 37.0033 50.4927 37.2029 50.7477C37.4135 51.0027 37.5521 51.2964 37.6186 51.629C37.6851 51.9505 37.7183 52.283 37.7183 52.6267V55.9191C37.7183 56.1409 37.7738 56.3515 37.8846 56.551C37.9955 56.7395 38.1451 56.8337 38.3336 56.8337V57H36.6541ZM36.6541 55.4203V53.0424L36.4878 53.0757C36.2218 53.1422 35.8947 53.2309 35.5067 53.3417C35.1298 53.4526 34.7695 53.5967 34.4259 53.7741C34.0822 53.9514 33.7885 54.1621 33.5446 54.406C33.3007 54.6498 33.1788 54.9325 33.1788 55.254C33.1788 55.6087 33.3229 55.9025 33.6111 56.1353C33.8993 56.3681 34.2762 56.4845 34.7418 56.4845C35.1077 56.4845 35.4291 56.4069 35.7063 56.2517C35.9834 56.0854 36.2384 55.8748 36.4712 55.6198L36.6541 55.4203ZM48.1948 55.9191C48.1948 56.0078 48.2059 56.1076 48.2281 56.2185C48.2613 56.3182 48.3001 56.4125 48.3445 56.5011C48.3888 56.5898 48.4442 56.6674 48.5108 56.7339C48.5884 56.8005 48.6604 56.8337 48.7269 56.8337V57H46.5985V56.8337C46.6761 56.8337 46.7481 56.806 46.8147 56.7506C46.8812 56.6841 46.9366 56.6065 46.9809 56.5178C47.0253 56.418 47.0585 56.3182 47.0807 56.2185C47.1029 56.1076 47.114 56.0078 47.114 55.9191V51.9283L43.1564 55.8027V55.9191C43.1564 56.0078 43.1675 56.1076 43.1896 56.2185C43.2118 56.3182 43.2451 56.4125 43.2894 56.5011C43.3338 56.5898 43.3836 56.6674 43.4391 56.7339C43.5056 56.8005 43.5776 56.8337 43.6552 56.8337V57H41.5434V56.8337C41.621 56.8337 41.6931 56.806 41.7596 56.7506C41.8261 56.6841 41.8815 56.6065 41.9259 56.5178C41.9702 56.418 42.0035 56.3182 42.0256 56.2185C42.0478 56.1076 42.0589 56.0078 42.0589 55.9191V51.047C42.0589 50.9694 42.0478 50.8807 42.0256 50.7809C42.0035 50.6812 41.9702 50.5869 41.9259 50.4983C41.8815 50.4096 41.8261 50.3375 41.7596 50.2821C41.6931 50.2156 41.621 50.1823 41.5434 50.1823V50.016H43.6552V50.1823C43.5665 50.1823 43.4889 50.2156 43.4224 50.2821C43.367 50.3375 43.3171 50.4096 43.2728 50.4983C43.2395 50.5869 43.2118 50.6812 43.1896 50.7809C43.1675 50.8807 43.1564 50.9694 43.1564 51.047V55.0212L47.114 51.1468V51.047C47.114 50.9694 47.1029 50.8807 47.0807 50.7809C47.0585 50.6812 47.0253 50.5869 46.9809 50.4983C46.9366 50.4096 46.8812 50.3375 46.8147 50.2821C46.7481 50.2156 46.6761 50.1823 46.5985 50.1823V50.016H48.7269V50.1823C48.6382 50.1823 48.5551 50.2156 48.4775 50.2821C48.411 50.3375 48.3556 50.4096 48.3112 50.4983C48.278 50.5869 48.2502 50.6812 48.2281 50.7809C48.2059 50.8807 48.1948 50.9694 48.1948 51.047V55.9191ZM46.9144 47.7712C46.9144 47.9485 46.8701 48.1425 46.7814 48.3532C46.6927 48.5527 46.5652 48.7412 46.3989 48.9185C46.2327 49.0848 46.0331 49.2234 45.8003 49.3343C45.5786 49.4451 45.3292 49.5005 45.052 49.5005C44.7971 49.5005 44.5532 49.4507 44.3204 49.3509C44.0987 49.24 43.9047 49.1015 43.7384 48.9352C43.5721 48.7689 43.4391 48.586 43.3393 48.3864C43.2395 48.1758 43.1896 47.9707 43.1896 47.7712H43.2894C43.3005 47.8377 43.3338 47.9319 43.3892 48.0539C43.4557 48.1647 43.5555 48.2811 43.6885 48.4031C43.8215 48.525 43.9933 48.6303 44.204 48.719C44.4257 48.8077 44.7028 48.852 45.0354 48.852C45.3791 48.852 45.6617 48.8077 45.8835 48.719C46.1052 48.6303 46.2825 48.525 46.4156 48.4031C46.5486 48.2811 46.6428 48.1647 46.6983 48.0539C46.7537 47.9319 46.7925 47.8377 46.8147 47.7712H46.9144ZM53.6206 55.9191C53.6206 56.0078 53.6317 56.1076 53.6539 56.2185C53.6761 56.3182 53.7093 56.4125 53.7537 56.5011C53.798 56.5898 53.8479 56.6674 53.9033 56.7339C53.9698 56.8005 54.0419 56.8337 54.1195 56.8337V57H52.0243V56.8337C52.1019 56.8337 52.1684 56.806 52.2239 56.7506C52.2904 56.6841 52.3458 56.6065 52.3901 56.5178C52.4345 56.418 52.4677 56.3182 52.4899 56.2185C52.5121 56.1076 52.5232 56.0078 52.5232 55.9191V51.047C52.5232 50.9694 52.5121 50.8807 52.4899 50.7809C52.4677 50.6812 52.4345 50.5869 52.3901 50.4983C52.3458 50.4096 52.2904 50.3375 52.2239 50.2821C52.1684 50.2156 52.1019 50.1823 52.0243 50.1823V50.016H54.1195V50.1823C54.0308 50.1823 53.9532 50.2156 53.8867 50.2821C53.8313 50.3375 53.7814 50.4096 53.737 50.4983C53.7038 50.5869 53.6761 50.6812 53.6539 50.7809C53.6317 50.8807 53.6206 50.9694 53.6206 51.047V53.059H57.4119V51.047C57.4119 50.9694 57.4009 50.8807 57.3787 50.7809C57.3565 50.6812 57.3233 50.5869 57.2789 50.4983C57.2457 50.4096 57.1958 50.3375 57.1293 50.2821C57.0738 50.2156 57.0018 50.1823 56.9131 50.1823V50.016H59.0083V50.1823C58.9196 50.1823 58.842 50.2156 58.7755 50.2821C58.7201 50.3375 58.6702 50.4096 58.6258 50.4983C58.5815 50.5869 58.5482 50.6812 58.5261 50.7809C58.515 50.8807 58.5094 50.9694 58.5094 51.047V55.9191C58.5094 56.0078 58.5205 56.1076 58.5427 56.2185C58.5649 56.3182 58.5981 56.4125 58.6425 56.5011C58.6868 56.5898 58.7367 56.6674 58.7921 56.7339C58.8586 56.8005 58.9307 56.8337 59.0083 56.8337V57H56.9131V56.8337C56.9907 56.8337 57.0572 56.806 57.1126 56.7506C57.1791 56.6841 57.2346 56.6065 57.2789 56.5178C57.3233 56.418 57.3565 56.3182 57.3787 56.2185C57.4009 56.1076 57.4119 56.0078 57.4119 55.9191V53.6078H53.6206V55.9191ZM62.0106 53.5745V52.7431H65.7853V53.5745H62.0106ZM73.432 51.6456C73.432 51.9117 73.3156 52.1999 73.0828 52.5103C72.85 52.8096 72.534 53.048 72.1349 53.2253C72.7557 53.3584 73.1992 53.5912 73.4652 53.9237C73.7424 54.2452 73.8809 54.5889 73.8809 54.9547C73.8809 55.2983 73.7978 55.6032 73.6315 55.8693C73.4652 56.1353 73.238 56.357 72.9497 56.5344C72.6726 56.7118 72.3511 56.8448 71.9853 56.9335C71.6305 57.0222 71.2592 57.0665 70.8712 57.0665C70.5053 57.0665 70.1783 57.0333 69.8901 56.9667C69.6019 56.8891 69.3524 56.8115 69.1418 56.7339C68.9312 56.6453 68.7538 56.5677 68.6097 56.5011C68.4767 56.4235 68.3713 56.3847 68.2937 56.3847V55.0378H68.4434C68.4656 55.2706 68.5432 55.4813 68.6762 55.6697C68.8092 55.8471 68.9755 56.0023 69.1751 56.1353C69.3857 56.2573 69.6185 56.3515 69.8735 56.418C70.1395 56.4845 70.4111 56.5178 70.6883 56.5178C70.9432 56.5178 71.1926 56.4901 71.4365 56.4346C71.6915 56.3792 71.9132 56.2961 72.1017 56.1852C72.3012 56.0633 72.462 55.9136 72.5839 55.7362C72.7058 55.5589 72.7668 55.3538 72.7668 55.121C72.7668 54.8771 72.7003 54.6609 72.5673 54.4725C72.4342 54.2729 72.2569 54.1066 72.0352 53.9736C71.8245 53.8406 71.5862 53.7408 71.3201 53.6743C71.0652 53.6078 70.8102 53.5745 70.5552 53.5745H70.0231V53.0424H70.6051C70.8379 53.0424 71.0596 53.0036 71.2702 52.926C71.492 52.8484 71.6804 52.7486 71.8356 52.6267C71.9908 52.5048 72.1128 52.3662 72.2014 52.211C72.3012 52.0447 72.3511 51.8784 72.3511 51.7121C72.3511 51.5126 72.2957 51.3352 72.1848 51.18C72.085 51.0248 71.9465 50.8918 71.7691 50.7809C71.5917 50.6701 71.3922 50.5869 71.1705 50.5315C70.9598 50.465 70.7381 50.4317 70.5053 50.4317C70.2947 50.4317 70.0896 50.4595 69.8901 50.5149C69.6905 50.5592 69.5076 50.6368 69.3413 50.7477C69.1861 50.8585 69.0531 50.9971 68.9423 51.1634C68.8425 51.3297 68.776 51.5292 68.7427 51.762H68.5931V50.465C68.6817 50.465 68.7649 50.4539 68.8425 50.4317C68.9201 50.3985 69.0088 50.3541 69.1085 50.2987C69.2859 50.21 69.5021 50.1269 69.7571 50.0493C70.012 49.9606 70.3335 49.9163 70.7215 49.9163C71.5862 49.9163 72.2513 50.0715 72.7169 50.3819C73.1936 50.6923 73.432 51.1135 73.432 51.6456ZM81.2783 57V56.1519L81.1951 56.2351C80.918 56.5122 80.5965 56.7284 80.2307 56.8836C79.8759 57.0388 79.4436 57.1164 78.9336 57.1164C78.5457 57.1164 78.2131 57.0721 77.9359 56.9834C77.6588 56.8947 77.4315 56.7727 77.2542 56.6175C77.0768 56.4513 76.9438 56.2628 76.8551 56.0522C76.7775 55.8415 76.7387 55.6198 76.7387 55.387C76.7387 55.0101 76.8385 54.6776 77.038 54.3893C77.2486 54.1011 77.5479 53.8461 77.9359 53.6244C78.3239 53.4027 78.7951 53.2032 79.3494 53.0258C79.9147 52.8373 80.5577 52.6544 81.2783 52.477C81.2561 52.0447 81.1674 51.6955 81.0122 51.4295C80.857 51.1634 80.6741 50.9583 80.4635 50.8142C80.2528 50.659 80.0311 50.5592 79.7983 50.5149C79.5655 50.4595 79.366 50.4317 79.1997 50.4317C78.9115 50.4317 78.6565 50.4761 78.4348 50.5648C78.2131 50.6424 78.0191 50.7532 77.8528 50.8973C77.6865 51.0304 77.5479 51.1856 77.4371 51.3629C77.3373 51.5403 77.2597 51.7177 77.2043 51.895H77.0546V50.598C77.1544 50.598 77.2708 50.5648 77.4038 50.4983C77.5369 50.4207 77.6921 50.3375 77.8694 50.2488C78.0579 50.1601 78.2796 50.0825 78.5346 50.016C78.8006 49.9384 79.1166 49.8996 79.4824 49.8996C80.0921 49.8996 80.5854 49.9772 80.9623 50.1324C81.3392 50.2876 81.6275 50.4927 81.827 50.7477C82.0376 51.0027 82.1762 51.2964 82.2427 51.629C82.3092 51.9505 82.3425 52.283 82.3425 52.6267V55.9191C82.3425 56.1409 82.3979 56.3515 82.5088 56.551C82.6196 56.7395 82.7693 56.8337 82.9577 56.8337V57H81.2783ZM81.2783 55.4203V53.0424L81.112 53.0757C80.8459 53.1422 80.5189 53.2309 80.1309 53.3417C79.754 53.4526 79.3937 53.5967 79.05 53.7741C78.7064 53.9514 78.4126 54.1621 78.1687 54.406C77.9249 54.6498 77.8029 54.9325 77.8029 55.254C77.8029 55.6087 77.947 55.9025 78.2353 56.1353C78.5235 56.3681 78.9004 56.4845 79.366 56.4845C79.7318 56.4845 80.0533 56.4069 80.3304 56.2517C80.6076 56.0854 80.8626 55.8748 81.0954 55.6198L81.2783 55.4203ZM92.819 55.9191C92.819 56.0078 92.8301 56.1076 92.8522 56.2185C92.8855 56.3182 92.9243 56.4125 92.9686 56.5011C93.013 56.5898 93.0684 56.6674 93.1349 56.7339C93.2125 56.8005 93.2846 56.8337 93.3511 56.8337V57H91.2226V56.8337C91.3002 56.8337 91.3723 56.806 91.4388 56.7506C91.5053 56.6841 91.5607 56.6065 91.6051 56.5178C91.6494 56.418 91.6827 56.3182 91.7049 56.2185C91.727 56.1076 91.7381 56.0078 91.7381 55.9191V51.9283L87.7805 55.8027V55.9191C87.7805 56.0078 87.7916 56.1076 87.8138 56.2185C87.836 56.3182 87.8692 56.4125 87.9136 56.5011C87.9579 56.5898 88.0078 56.6674 88.0632 56.7339C88.1297 56.8005 88.2018 56.8337 88.2794 56.8337V57H86.1676V56.8337C86.2452 56.8337 86.3172 56.806 86.3837 56.7506C86.4503 56.6841 86.5057 56.6065 86.55 56.5178C86.5944 56.418 86.6276 56.3182 86.6498 56.2185C86.672 56.1076 86.6831 56.0078 86.6831 55.9191V51.047C86.6831 50.9694 86.672 50.8807 86.6498 50.7809C86.6276 50.6812 86.5944 50.5869 86.55 50.4983C86.5057 50.4096 86.4503 50.3375 86.3837 50.2821C86.3172 50.2156 86.2452 50.1823 86.1676 50.1823V50.016H88.2794V50.1823C88.1907 50.1823 88.1131 50.2156 88.0466 50.2821C87.9912 50.3375 87.9413 50.4096 87.8969 50.4983C87.8637 50.5869 87.836 50.6812 87.8138 50.7809C87.7916 50.8807 87.7805 50.9694 87.7805 51.047V55.0212L91.7381 51.1468V51.047C91.7381 50.9694 91.727 50.8807 91.7049 50.7809C91.6827 50.6812 91.6494 50.5869 91.6051 50.4983C91.5607 50.4096 91.5053 50.3375 91.4388 50.2821C91.3723 50.2156 91.3002 50.1823 91.2226 50.1823V50.016H93.3511V50.1823C93.2624 50.1823 93.1793 50.2156 93.1017 50.2821C93.0351 50.3375 92.9797 50.4096 92.9354 50.4983C92.9021 50.5869 92.8744 50.6812 92.8522 50.7809C92.8301 50.8807 92.819 50.9694 92.819 51.047V55.9191ZM91.5386 47.7712C91.5386 47.9485 91.4942 48.1425 91.4055 48.3532C91.3169 48.5527 91.1894 48.7412 91.0231 48.9185C90.8568 49.0848 90.6573 49.2234 90.4245 49.3343C90.2028 49.4451 89.9533 49.5005 89.6762 49.5005C89.4212 49.5005 89.1773 49.4507 88.9445 49.3509C88.7228 49.24 88.5288 49.1015 88.3625 48.9352C88.1962 48.7689 88.0632 48.586 87.9634 48.3864C87.8637 48.1758 87.8138 47.9707 87.8138 47.7712H87.9136C87.9246 47.8377 87.9579 47.9319 88.0133 48.0539C88.0798 48.1647 88.1796 48.2811 88.3126 48.4031C88.4457 48.525 88.6175 48.6303 88.8281 48.719C89.0498 48.8077 89.327 48.852 89.6596 48.852C90.0032 48.852 90.2859 48.8077 90.5076 48.719C90.7293 48.6303 90.9067 48.525 91.0397 48.4031C91.1727 48.2811 91.267 48.1647 91.3224 48.0539C91.3778 47.9319 91.4166 47.8377 91.4388 47.7712H91.5386ZM104.231 55.9191C104.231 56.0078 104.242 56.1076 104.264 56.2185C104.286 56.3182 104.32 56.4125 104.364 56.5011C104.42 56.5898 104.48 56.6674 104.547 56.7339C104.614 56.8005 104.691 56.8337 104.78 56.8337V57H102.618V56.8337C102.707 56.8337 102.784 56.806 102.851 56.7506C102.917 56.6841 102.973 56.6065 103.017 56.5178C103.062 56.418 103.095 56.3182 103.117 56.2185C103.139 56.1076 103.15 56.0078 103.15 55.9191V51.4295L100.373 57.1497L97.7127 51.762V55.9191C97.7127 56.0078 97.7238 56.1076 97.7459 56.2185C97.7681 56.3182 97.8014 56.4125 97.8457 56.5011C97.8901 56.5898 97.9455 56.6674 98.012 56.7339C98.0785 56.8005 98.1561 56.8337 98.2448 56.8337V57H96.6318V56.8337C96.7205 56.8337 96.7981 56.8005 96.8646 56.7339C96.9312 56.6674 96.981 56.5898 97.0143 56.5011C97.0586 56.4125 97.0919 56.3182 97.1141 56.2185C97.1362 56.1076 97.1473 56.0078 97.1473 55.9191V51.047C97.1473 50.8475 97.1196 50.6535 97.0642 50.465C97.0198 50.2765 96.8757 50.1823 96.6318 50.1823V50.016H98.1118L100.656 55.2207L103.2 50.016H104.78V50.1823C104.614 50.1823 104.48 50.2876 104.381 50.4983C104.281 50.6978 104.231 50.8807 104.231 51.047V55.9191ZM114.954 57V56.8337C115.032 56.8337 115.104 56.806 115.17 56.7506C115.237 56.6841 115.292 56.6065 115.337 56.5178C115.392 56.418 115.431 56.3182 115.453 56.2185C115.475 56.1076 115.486 56.0078 115.486 55.9191V51.047C115.486 50.9694 115.475 50.8807 115.453 50.7809C115.431 50.6812 115.392 50.5869 115.337 50.4983C115.292 50.4096 115.237 50.3375 115.17 50.2821C115.104 50.2156 115.032 50.1823 114.954 50.1823V50.016H117.116V50.1823C116.95 50.1823 116.817 50.2876 116.717 50.4983C116.617 50.6978 116.567 50.8807 116.567 51.047V55.9191C116.567 56.0078 116.578 56.1076 116.6 56.2185C116.623 56.3182 116.656 56.4125 116.7 56.5011C116.756 56.5898 116.817 56.6674 116.883 56.7339C116.95 56.8005 117.027 56.8337 117.116 56.8337V57H114.954ZM111.03 53.0424C112.05 53.0424 112.804 53.2309 113.291 53.6078C113.79 53.9847 114.04 54.4503 114.04 55.0046C114.04 55.2817 113.973 55.5422 113.84 55.7861C113.718 56.03 113.53 56.2406 113.275 56.418C113.02 56.5954 112.698 56.7395 112.31 56.8503C111.922 56.9501 111.462 57 110.93 57H108.103V56.8337C108.181 56.8337 108.253 56.806 108.319 56.7506C108.386 56.6841 108.441 56.6065 108.486 56.5178C108.541 56.418 108.58 56.3182 108.602 56.2185C108.624 56.1076 108.635 56.0078 108.635 55.9191V51.047C108.635 50.9694 108.624 50.8807 108.602 50.7809C108.58 50.6812 108.541 50.5869 108.486 50.4983C108.441 50.4096 108.386 50.3375 108.319 50.2821C108.253 50.2156 108.181 50.1823 108.103 50.1823V50.016H110.265V50.1823C110.099 50.1823 109.966 50.2876 109.866 50.4983C109.766 50.6978 109.716 50.8807 109.716 51.047V53.0424H111.03ZM110.897 56.4513C111.629 56.4513 112.155 56.3349 112.477 56.1021C112.809 55.8582 112.975 55.5589 112.975 55.2041C112.975 55.0046 112.931 54.8106 112.842 54.6221C112.754 54.4226 112.615 54.2508 112.427 54.1066C112.249 53.9514 112.028 53.8295 111.762 53.7408C111.496 53.641 111.191 53.5912 110.847 53.5912H109.716V56.4513H110.897Z" fill="black"/>
<path d="M5.24027 57.1164C4.68599 57.1164 4.18713 57.0277 3.7437 56.8503C3.30028 56.6619 2.91782 56.4125 2.59634 56.1021C2.28594 55.7806 2.04205 55.4037 1.86468 54.9713C1.6984 54.539 1.61525 54.0678 1.61525 53.5579C1.61525 53.0147 1.70948 52.5214 1.89794 52.078C2.0864 51.6234 2.34691 51.2355 2.67948 50.914C3.01205 50.5925 3.40559 50.3431 3.8601 50.1657C4.31462 49.9883 4.80793 49.8996 5.34004 49.8996C5.87215 49.8996 6.35992 49.9883 6.80335 50.1657C7.24678 50.332 7.62923 50.5703 7.95072 50.8807C8.2722 51.1911 8.52163 51.5625 8.699 51.9948C8.87637 52.4161 8.96505 52.8817 8.96505 53.3916C8.96505 53.8683 8.88191 54.3339 8.71563 54.7884C8.56043 55.2318 8.32209 55.6254 8.0006 55.969C7.6902 56.3127 7.3022 56.5898 6.83661 56.8005C6.38209 57.0111 5.84998 57.1164 5.24027 57.1164ZM5.1405 50.4484C4.74141 50.4705 4.38667 50.5703 4.07627 50.7477C3.77696 50.914 3.52199 51.1357 3.31136 51.4128C3.11182 51.6789 2.95662 51.9837 2.84576 52.3274C2.74599 52.671 2.69611 53.0202 2.69611 53.375C2.69611 53.7852 2.75708 54.1842 2.87902 54.5722C3.01205 54.9492 3.19496 55.2873 3.42776 55.5866C3.67165 55.8859 3.95987 56.1242 4.29244 56.3016C4.62501 56.479 4.99638 56.5677 5.40655 56.5677C5.81672 56.5677 6.17701 56.479 6.48741 56.3016C6.80889 56.1242 7.07495 55.897 7.28558 55.6198C7.4962 55.3316 7.6514 55.0101 7.75117 54.6554C7.86203 54.3006 7.91746 53.9459 7.91746 53.5912C7.91746 53.2253 7.86203 52.8595 7.75117 52.4937C7.64032 52.1168 7.46849 51.7786 7.23569 51.4793C7.00289 51.1689 6.70912 50.9195 6.35438 50.7311C6.01072 50.5426 5.6061 50.4484 5.1405 50.4484ZM13.7447 55.9191C13.7447 56.0078 13.7558 56.1076 13.778 56.2185C13.8001 56.3182 13.8334 56.4125 13.8777 56.5011C13.9221 56.5898 13.972 56.6674 14.0274 56.7339C14.0939 56.8005 14.166 56.8337 14.2436 56.8337V57H12.1484V56.8337C12.226 56.8337 12.2925 56.806 12.3479 56.7506C12.4144 56.6841 12.4699 56.6065 12.5142 56.5178C12.5585 56.418 12.5918 56.3182 12.614 56.2185C12.6361 56.1076 12.6472 56.0078 12.6472 55.9191V51.047C12.6472 50.9694 12.6361 50.8807 12.614 50.7809C12.5918 50.6812 12.5585 50.5869 12.5142 50.4983C12.4699 50.4096 12.4144 50.3375 12.3479 50.2821C12.2925 50.2156 12.226 50.1823 12.1484 50.1823V50.016H14.2436V50.1823C14.1549 50.1823 14.0773 50.2156 14.0108 50.2821C13.9553 50.3375 13.9055 50.4096 13.8611 50.4983C13.8279 50.5869 13.8001 50.6812 13.778 50.7809C13.7558 50.8807 13.7447 50.9694 13.7447 51.047V53.059H17.536V51.047C17.536 50.9694 17.5249 50.8807 17.5028 50.7809C17.4806 50.6812 17.4473 50.5869 17.403 50.4983C17.3697 50.4096 17.3198 50.3375 17.2533 50.2821C17.1979 50.2156 17.1258 50.1823 17.0372 50.1823V50.016H19.1323V50.1823C19.0437 50.1823 18.9661 50.2156 18.8995 50.2821C18.8441 50.3375 18.7942 50.4096 18.7499 50.4983C18.7055 50.5869 18.6723 50.6812 18.6501 50.7809C18.639 50.8807 18.6335 50.9694 18.6335 51.047V55.9191C18.6335 56.0078 18.6446 56.1076 18.6667 56.2185C18.6889 56.3182 18.7222 56.4125 18.7665 56.5011C18.8109 56.5898 18.8607 56.6674 18.9162 56.7339C18.9827 56.8005 19.0547 56.8337 19.1323 56.8337V57H17.0372V56.8337C17.1148 56.8337 17.1813 56.806 17.2367 56.7506C17.3032 56.6841 17.3586 56.6065 17.403 56.5178C17.4473 56.418 17.4806 56.3182 17.5028 56.2185C17.5249 56.1076 17.536 56.0078 17.536 55.9191V53.6078H13.7447V55.9191ZM27.3893 56.8337C27.4669 56.8337 27.5556 56.8005 27.6554 56.7339C27.7551 56.6674 27.805 56.5732 27.805 56.4513C27.805 56.4291 27.7939 56.3847 27.7718 56.3182C27.7607 56.2406 27.733 56.1575 27.6886 56.0688L25.5768 51.0803L23.3818 56.3182C23.1934 56.7727 22.822 57 22.2677 57H21.9019V56.8337C22.0571 56.8337 22.2234 56.7561 22.4008 56.6009C22.5892 56.4346 22.7389 56.2406 22.8497 56.0189L25.1112 50.7311C25.1666 50.5869 25.1943 50.4705 25.1943 50.3819C25.1943 50.2488 25.1057 50.1823 24.9283 50.1823V50.016H26.2752L28.836 56.0023C28.9136 56.1686 29.0244 56.3515 29.1686 56.551C29.3238 56.7395 29.4679 56.8337 29.6009 56.8337V57H27.3893V56.8337ZM36.6541 57V56.1519L36.571 56.2351C36.2938 56.5122 35.9723 56.7284 35.6065 56.8836C35.2518 57.0388 34.8194 57.1164 34.3095 57.1164C33.9215 57.1164 33.5889 57.0721 33.3118 56.9834C33.0346 56.8947 32.8074 56.7727 32.63 56.6175C32.4526 56.4513 32.3196 56.2628 32.2309 56.0522C32.1533 55.8415 32.1145 55.6198 32.1145 55.387C32.1145 55.0101 32.2143 54.6776 32.4138 54.3893C32.6245 54.1011 32.9238 53.8461 33.3118 53.6244C33.6998 53.4027 34.1709 53.2032 34.7252 53.0258C35.2906 52.8373 35.9335 52.6544 36.6541 52.477C36.6319 52.0447 36.5433 51.6955 36.3881 51.4295C36.2329 51.1634 36.0499 50.9583 35.8393 50.8142C35.6287 50.659 35.407 50.5592 35.1742 50.5149C34.9414 50.4595 34.7418 50.4317 34.5756 50.4317C34.2873 50.4317 34.0324 50.4761 33.8106 50.5648C33.5889 50.6424 33.3949 50.7532 33.2286 50.8973C33.0624 51.0304 32.9238 51.1856 32.8129 51.3629C32.7132 51.5403 32.6356 51.7177 32.5801 51.895H32.4305V50.598C32.5302 50.598 32.6466 50.5648 32.7797 50.4983C32.9127 50.4207 33.0679 50.3375 33.2453 50.2488C33.4337 50.1601 33.6554 50.0825 33.9104 50.016C34.1765 49.9384 34.4924 49.8996 34.8582 49.8996C35.4679 49.8996 35.9613 49.9772 36.3382 50.1324C36.7151 50.2876 37.0033 50.4927 37.2029 50.7477C37.4135 51.0027 37.5521 51.2964 37.6186 51.629C37.6851 51.9505 37.7183 52.283 37.7183 52.6267V55.9191C37.7183 56.1409 37.7738 56.3515 37.8846 56.551C37.9955 56.7395 38.1451 56.8337 38.3336 56.8337V57H36.6541ZM36.6541 55.4203V53.0424L36.4878 53.0757C36.2218 53.1422 35.8947 53.2309 35.5067 53.3417C35.1298 53.4526 34.7695 53.5967 34.4259 53.7741C34.0822 53.9514 33.7885 54.1621 33.5446 54.406C33.3007 54.6498 33.1788 54.9325 33.1788 55.254C33.1788 55.6087 33.3229 55.9025 33.6111 56.1353C33.8993 56.3681 34.2762 56.4845 34.7418 56.4845C35.1077 56.4845 35.4291 56.4069 35.7063 56.2517C35.9834 56.0854 36.2384 55.8748 36.4712 55.6198L36.6541 55.4203ZM48.1948 55.9191C48.1948 56.0078 48.2059 56.1076 48.2281 56.2185C48.2613 56.3182 48.3001 56.4125 48.3445 56.5011C48.3888 56.5898 48.4442 56.6674 48.5108 56.7339C48.5884 56.8005 48.6604 56.8337 48.7269 56.8337V57H46.5985V56.8337C46.6761 56.8337 46.7481 56.806 46.8147 56.7506C46.8812 56.6841 46.9366 56.6065 46.9809 56.5178C47.0253 56.418 47.0585 56.3182 47.0807 56.2185C47.1029 56.1076 47.114 56.0078 47.114 55.9191V51.9283L43.1564 55.8027V55.9191C43.1564 56.0078 43.1675 56.1076 43.1896 56.2185C43.2118 56.3182 43.2451 56.4125 43.2894 56.5011C43.3338 56.5898 43.3836 56.6674 43.4391 56.7339C43.5056 56.8005 43.5776 56.8337 43.6552 56.8337V57H41.5434V56.8337C41.621 56.8337 41.6931 56.806 41.7596 56.7506C41.8261 56.6841 41.8815 56.6065 41.9259 56.5178C41.9702 56.418 42.0035 56.3182 42.0256 56.2185C42.0478 56.1076 42.0589 56.0078 42.0589 55.9191V51.047C42.0589 50.9694 42.0478 50.8807 42.0256 50.7809C42.0035 50.6812 41.9702 50.5869 41.9259 50.4983C41.8815 50.4096 41.8261 50.3375 41.7596 50.2821C41.6931 50.2156 41.621 50.1823 41.5434 50.1823V50.016H43.6552V50.1823C43.5665 50.1823 43.4889 50.2156 43.4224 50.2821C43.367 50.3375 43.3171 50.4096 43.2728 50.4983C43.2395 50.5869 43.2118 50.6812 43.1896 50.7809C43.1675 50.8807 43.1564 50.9694 43.1564 51.047V55.0212L47.114 51.1468V51.047C47.114 50.9694 47.1029 50.8807 47.0807 50.7809C47.0585 50.6812 47.0253 50.5869 46.9809 50.4983C46.9366 50.4096 46.8812 50.3375 46.8147 50.2821C46.7481 50.2156 46.6761 50.1823 46.5985 50.1823V50.016H48.7269V50.1823C48.6382 50.1823 48.5551 50.2156 48.4775 50.2821C48.411 50.3375 48.3556 50.4096 48.3112 50.4983C48.278 50.5869 48.2502 50.6812 48.2281 50.7809C48.2059 50.8807 48.1948 50.9694 48.1948 51.047V55.9191ZM46.9144 47.7712C46.9144 47.9485 46.8701 48.1425 46.7814 48.3532C46.6927 48.5527 46.5652 48.7412 46.3989 48.9185C46.2327 49.0848 46.0331 49.2234 45.8003 49.3343C45.5786 49.4451 45.3292 49.5005 45.052 49.5005C44.7971 49.5005 44.5532 49.4507 44.3204 49.3509C44.0987 49.24 43.9047 49.1015 43.7384 48.9352C43.5721 48.7689 43.4391 48.586 43.3393 48.3864C43.2395 48.1758 43.1896 47.9707 43.1896 47.7712H43.2894C43.3005 47.8377 43.3338 47.9319 43.3892 48.0539C43.4557 48.1647 43.5555 48.2811 43.6885 48.4031C43.8215 48.525 43.9933 48.6303 44.204 48.719C44.4257 48.8077 44.7028 48.852 45.0354 48.852C45.3791 48.852 45.6617 48.8077 45.8835 48.719C46.1052 48.6303 46.2825 48.525 46.4156 48.4031C46.5486 48.2811 46.6428 48.1647 46.6983 48.0539C46.7537 47.9319 46.7925 47.8377 46.8147 47.7712H46.9144ZM53.6206 55.9191C53.6206 56.0078 53.6317 56.1076 53.6539 56.2185C53.6761 56.3182 53.7093 56.4125 53.7537 56.5011C53.798 56.5898 53.8479 56.6674 53.9033 56.7339C53.9698 56.8005 54.0419 56.8337 54.1195 56.8337V57H52.0243V56.8337C52.1019 56.8337 52.1684 56.806 52.2239 56.7506C52.2904 56.6841 52.3458 56.6065 52.3901 56.5178C52.4345 56.418 52.4677 56.3182 52.4899 56.2185C52.5121 56.1076 52.5232 56.0078 52.5232 55.9191V51.047C52.5232 50.9694 52.5121 50.8807 52.4899 50.7809C52.4677 50.6812 52.4345 50.5869 52.3901 50.4983C52.3458 50.4096 52.2904 50.3375 52.2239 50.2821C52.1684 50.2156 52.1019 50.1823 52.0243 50.1823V50.016H54.1195V50.1823C54.0308 50.1823 53.9532 50.2156 53.8867 50.2821C53.8313 50.3375 53.7814 50.4096 53.737 50.4983C53.7038 50.5869 53.6761 50.6812 53.6539 50.7809C53.6317 50.8807 53.6206 50.9694 53.6206 51.047V53.059H57.4119V51.047C57.4119 50.9694 57.4009 50.8807 57.3787 50.7809C57.3565 50.6812 57.3233 50.5869 57.2789 50.4983C57.2457 50.4096 57.1958 50.3375 57.1293 50.2821C57.0738 50.2156 57.0018 50.1823 56.9131 50.1823V50.016H59.0083V50.1823C58.9196 50.1823 58.842 50.2156 58.7755 50.2821C58.7201 50.3375 58.6702 50.4096 58.6258 50.4983C58.5815 50.5869 58.5482 50.6812 58.5261 50.7809C58.515 50.8807 58.5094 50.9694 58.5094 51.047V55.9191C58.5094 56.0078 58.5205 56.1076 58.5427 56.2185C58.5649 56.3182 58.5981 56.4125 58.6425 56.5011C58.6868 56.5898 58.7367 56.6674 58.7921 56.7339C58.8586 56.8005 58.9307 56.8337 59.0083 56.8337V57H56.9131V56.8337C56.9907 56.8337 57.0572 56.806 57.1126 56.7506C57.1791 56.6841 57.2346 56.6065 57.2789 56.5178C57.3233 56.418 57.3565 56.3182 57.3787 56.2185C57.4009 56.1076 57.4119 56.0078 57.4119 55.9191V53.6078H53.6206V55.9191ZM62.0106 53.5745V52.7431H65.7853V53.5745H62.0106ZM73.432 51.6456C73.432 51.9117 73.3156 52.1999 73.0828 52.5103C72.85 52.8096 72.534 53.048 72.1349 53.2253C72.7557 53.3584 73.1992 53.5912 73.4652 53.9237C73.7424 54.2452 73.8809 54.5889 73.8809 54.9547C73.8809 55.2983 73.7978 55.6032 73.6315 55.8693C73.4652 56.1353 73.238 56.357 72.9497 56.5344C72.6726 56.7118 72.3511 56.8448 71.9853 56.9335C71.6305 57.0222 71.2592 57.0665 70.8712 57.0665C70.5053 57.0665 70.1783 57.0333 69.8901 56.9667C69.6019 56.8891 69.3524 56.8115 69.1418 56.7339C68.9312 56.6453 68.7538 56.5677 68.6097 56.5011C68.4767 56.4235 68.3713 56.3847 68.2937 56.3847V55.0378H68.4434C68.4656 55.2706 68.5432 55.4813 68.6762 55.6697C68.8092 55.8471 68.9755 56.0023 69.1751 56.1353C69.3857 56.2573 69.6185 56.3515 69.8735 56.418C70.1395 56.4845 70.4111 56.5178 70.6883 56.5178C70.9432 56.5178 71.1926 56.4901 71.4365 56.4346C71.6915 56.3792 71.9132 56.2961 72.1017 56.1852C72.3012 56.0633 72.462 55.9136 72.5839 55.7362C72.7058 55.5589 72.7668 55.3538 72.7668 55.121C72.7668 54.8771 72.7003 54.6609 72.5673 54.4725C72.4342 54.2729 72.2569 54.1066 72.0352 53.9736C71.8245 53.8406 71.5862 53.7408 71.3201 53.6743C71.0652 53.6078 70.8102 53.5745 70.5552 53.5745H70.0231V53.0424H70.6051C70.8379 53.0424 71.0596 53.0036 71.2702 52.926C71.492 52.8484 71.6804 52.7486 71.8356 52.6267C71.9908 52.5048 72.1128 52.3662 72.2014 52.211C72.3012 52.0447 72.3511 51.8784 72.3511 51.7121C72.3511 51.5126 72.2957 51.3352 72.1848 51.18C72.085 51.0248 71.9465 50.8918 71.7691 50.7809C71.5917 50.6701 71.3922 50.5869 71.1705 50.5315C70.9598 50.465 70.7381 50.4317 70.5053 50.4317C70.2947 50.4317 70.0896 50.4595 69.8901 50.5149C69.6905 50.5592 69.5076 50.6368 69.3413 50.7477C69.1861 50.8585 69.0531 50.9971 68.9423 51.1634C68.8425 51.3297 68.776 51.5292 68.7427 51.762H68.5931V50.465C68.6817 50.465 68.7649 50.4539 68.8425 50.4317C68.9201 50.3985 69.0088 50.3541 69.1085 50.2987C69.2859 50.21 69.5021 50.1269 69.7571 50.0493C70.012 49.9606 70.3335 49.9163 70.7215 49.9163C71.5862 49.9163 72.2513 50.0715 72.7169 50.3819C73.1936 50.6923 73.432 51.1135 73.432 51.6456ZM81.2783 57V56.1519L81.1951 56.2351C80.918 56.5122 80.5965 56.7284 80.2307 56.8836C79.8759 57.0388 79.4436 57.1164 78.9336 57.1164C78.5457 57.1164 78.2131 57.0721 77.9359 56.9834C77.6588 56.8947 77.4315 56.7727 77.2542 56.6175C77.0768 56.4513 76.9438 56.2628 76.8551 56.0522C76.7775 55.8415 76.7387 55.6198 76.7387 55.387C76.7387 55.0101 76.8385 54.6776 77.038 54.3893C77.2486 54.1011 77.5479 53.8461 77.9359 53.6244C78.3239 53.4027 78.7951 53.2032 79.3494 53.0258C79.9147 52.8373 80.5577 52.6544 81.2783 52.477C81.2561 52.0447 81.1674 51.6955 81.0122 51.4295C80.857 51.1634 80.6741 50.9583 80.4635 50.8142C80.2528 50.659 80.0311 50.5592 79.7983 50.5149C79.5655 50.4595 79.366 50.4317 79.1997 50.4317C78.9115 50.4317 78.6565 50.4761 78.4348 50.5648C78.2131 50.6424 78.0191 50.7532 77.8528 50.8973C77.6865 51.0304 77.5479 51.1856 77.4371 51.3629C77.3373 51.5403 77.2597 51.7177 77.2043 51.895H77.0546V50.598C77.1544 50.598 77.2708 50.5648 77.4038 50.4983C77.5369 50.4207 77.6921 50.3375 77.8694 50.2488C78.0579 50.1601 78.2796 50.0825 78.5346 50.016C78.8006 49.9384 79.1166 49.8996 79.4824 49.8996C80.0921 49.8996 80.5854 49.9772 80.9623 50.1324C81.3392 50.2876 81.6275 50.4927 81.827 50.7477C82.0376 51.0027 82.1762 51.2964 82.2427 51.629C82.3092 51.9505 82.3425 52.283 82.3425 52.6267V55.9191C82.3425 56.1409 82.3979 56.3515 82.5088 56.551C82.6196 56.7395 82.7693 56.8337 82.9577 56.8337V57H81.2783ZM81.2783 55.4203V53.0424L81.112 53.0757C80.8459 53.1422 80.5189 53.2309 80.1309 53.3417C79.754 53.4526 79.3937 53.5967 79.05 53.7741C78.7064 53.9514 78.4126 54.1621 78.1687 54.406C77.9249 54.6498 77.8029 54.9325 77.8029 55.254C77.8029 55.6087 77.947 55.9025 78.2353 56.1353C78.5235 56.3681 78.9004 56.4845 79.366 56.4845C79.7318 56.4845 80.0533 56.4069 80.3304 56.2517C80.6076 56.0854 80.8626 55.8748 81.0954 55.6198L81.2783 55.4203ZM92.819 55.9191C92.819 56.0078 92.8301 56.1076 92.8522 56.2185C92.8855 56.3182 92.9243 56.4125 92.9686 56.5011C93.013 56.5898 93.0684 56.6674 93.1349 56.7339C93.2125 56.8005 93.2846 56.8337 93.3511 56.8337V57H91.2226V56.8337C91.3002 56.8337 91.3723 56.806 91.4388 56.7506C91.5053 56.6841 91.5607 56.6065 91.6051 56.5178C91.6494 56.418 91.6827 56.3182 91.7049 56.2185C91.727 56.1076 91.7381 56.0078 91.7381 55.9191V51.9283L87.7805 55.8027V55.9191C87.7805 56.0078 87.7916 56.1076 87.8138 56.2185C87.836 56.3182 87.8692 56.4125 87.9136 56.5011C87.9579 56.5898 88.0078 56.6674 88.0632 56.7339C88.1297 56.8005 88.2018 56.8337 88.2794 56.8337V57H86.1676V56.8337C86.2452 56.8337 86.3172 56.806 86.3837 56.7506C86.4503 56.6841 86.5057 56.6065 86.55 56.5178C86.5944 56.418 86.6276 56.3182 86.6498 56.2185C86.672 56.1076 86.6831 56.0078 86.6831 55.9191V51.047C86.6831 50.9694 86.672 50.8807 86.6498 50.7809C86.6276 50.6812 86.5944 50.5869 86.55 50.4983C86.5057 50.4096 86.4503 50.3375 86.3837 50.2821C86.3172 50.2156 86.2452 50.1823 86.1676 50.1823V50.016H88.2794V50.1823C88.1907 50.1823 88.1131 50.2156 88.0466 50.2821C87.9912 50.3375 87.9413 50.4096 87.8969 50.4983C87.8637 50.5869 87.836 50.6812 87.8138 50.7809C87.7916 50.8807 87.7805 50.9694 87.7805 51.047V55.0212L91.7381 51.1468V51.047C91.7381 50.9694 91.727 50.8807 91.7049 50.7809C91.6827 50.6812 91.6494 50.5869 91.6051 50.4983C91.5607 50.4096 91.5053 50.3375 91.4388 50.2821C91.3723 50.2156 91.3002 50.1823 91.2226 50.1823V50.016H93.3511V50.1823C93.2624 50.1823 93.1793 50.2156 93.1017 50.2821C93.0351 50.3375 92.9797 50.4096 92.9354 50.4983C92.9021 50.5869 92.8744 50.6812 92.8522 50.7809C92.8301 50.8807 92.819 50.9694 92.819 51.047V55.9191ZM91.5386 47.7712C91.5386 47.9485 91.4942 48.1425 91.4055 48.3532C91.3169 48.5527 91.1894 48.7412 91.0231 48.9185C90.8568 49.0848 90.6573 49.2234 90.4245 49.3343C90.2028 49.4451 89.9533 49.5005 89.6762 49.5005C89.4212 49.5005 89.1773 49.4507 88.9445 49.3509C88.7228 49.24 88.5288 49.1015 88.3625 48.9352C88.1962 48.7689 88.0632 48.586 87.9634 48.3864C87.8637 48.1758 87.8138 47.9707 87.8138 47.7712H87.9136C87.9246 47.8377 87.9579 47.9319 88.0133 48.0539C88.0798 48.1647 88.1796 48.2811 88.3126 48.4031C88.4457 48.525 88.6175 48.6303 88.8281 48.719C89.0498 48.8077 89.327 48.852 89.6596 48.852C90.0032 48.852 90.2859 48.8077 90.5076 48.719C90.7293 48.6303 90.9067 48.525 91.0397 48.4031C91.1727 48.2811 91.267 48.1647 91.3224 48.0539C91.3778 47.9319 91.4166 47.8377 91.4388 47.7712H91.5386ZM104.231 55.9191C104.231 56.0078 104.242 56.1076 104.264 56.2185C104.286 56.3182 104.32 56.4125 104.364 56.5011C104.42 56.5898 104.48 56.6674 104.547 56.7339C104.614 56.8005 104.691 56.8337 104.78 56.8337V57H102.618V56.8337C102.707 56.8337 102.784 56.806 102.851 56.7506C102.917 56.6841 102.973 56.6065 103.017 56.5178C103.062 56.418 103.095 56.3182 103.117 56.2185C103.139 56.1076 103.15 56.0078 103.15 55.9191V51.4295L100.373 57.1497L97.7127 51.762V55.9191C97.7127 56.0078 97.7238 56.1076 97.7459 56.2185C97.7681 56.3182 97.8014 56.4125 97.8457 56.5011C97.8901 56.5898 97.9455 56.6674 98.012 56.7339C98.0785 56.8005 98.1561 56.8337 98.2448 56.8337V57H96.6318V56.8337C96.7205 56.8337 96.7981 56.8005 96.8646 56.7339C96.9312 56.6674 96.981 56.5898 97.0143 56.5011C97.0586 56.4125 97.0919 56.3182 97.1141 56.2185C97.1362 56.1076 97.1473 56.0078 97.1473 55.9191V51.047C97.1473 50.8475 97.1196 50.6535 97.0642 50.465C97.0198 50.2765 96.8757 50.1823 96.6318 50.1823V50.016H98.1118L100.656 55.2207L103.2 50.016H104.78V50.1823C104.614 50.1823 104.48 50.2876 104.381 50.4983C104.281 50.6978 104.231 50.8807 104.231 51.047V55.9191ZM114.954 57V56.8337C115.032 56.8337 115.104 56.806 115.17 56.7506C115.237 56.6841 115.292 56.6065 115.337 56.5178C115.392 56.418 115.431 56.3182 115.453 56.2185C115.475 56.1076 115.486 56.0078 115.486 55.9191V51.047C115.486 50.9694 115.475 50.8807 115.453 50.7809C115.431 50.6812 115.392 50.5869 115.337 50.4983C115.292 50.4096 115.237 50.3375 115.17 50.2821C115.104 50.2156 115.032 50.1823 114.954 50.1823V50.016H117.116V50.1823C116.95 50.1823 116.817 50.2876 116.717 50.4983C116.617 50.6978 116.567 50.8807 116.567 51.047V55.9191C116.567 56.0078 116.578 56.1076 116.6 56.2185C116.623 56.3182 116.656 56.4125 116.7 56.5011C116.756 56.5898 116.817 56.6674 116.883 56.7339C116.95 56.8005 117.027 56.8337 117.116 56.8337V57H114.954ZM111.03 53.0424C112.05 53.0424 112.804 53.2309 113.291 53.6078C113.79 53.9847 114.04 54.4503 114.04 55.0046C114.04 55.2817 113.973 55.5422 113.84 55.7861C113.718 56.03 113.53 56.2406 113.275 56.418C113.02 56.5954 112.698 56.7395 112.31 56.8503C111.922 56.9501 111.462 57 110.93 57H108.103V56.8337C108.181 56.8337 108.253 56.806 108.319 56.7506C108.386 56.6841 108.441 56.6065 108.486 56.5178C108.541 56.418 108.58 56.3182 108.602 56.2185C108.624 56.1076 108.635 56.0078 108.635 55.9191V51.047C108.635 50.9694 108.624 50.8807 108.602 50.7809C108.58 50.6812 108.541 50.5869 108.486 50.4983C108.441 50.4096 108.386 50.3375 108.319 50.2821C108.253 50.2156 108.181 50.1823 108.103 50.1823V50.016H110.265V50.1823C110.099 50.1823 109.966 50.2876 109.866 50.4983C109.766 50.6978 109.716 50.8807 109.716 51.047V53.0424H111.03ZM110.897 56.4513C111.629 56.4513 112.155 56.3349 112.477 56.1021C112.809 55.8582 112.975 55.5589 112.975 55.2041C112.975 55.0046 112.931 54.8106 112.842 54.6221C112.754 54.4226 112.615 54.2508 112.427 54.1066C112.249 53.9514 112.028 53.8295 111.762 53.7408C111.496 53.641 111.191 53.5912 110.847 53.5912H109.716V56.4513H110.897Z" fill="url(#paint2_linear_1_241)"/>
<defs>
<linearGradient id="paint0_linear_1_241" x1="7" y1="54" x2="87" y2="-26" gradientUnits="userSpaceOnUse">
<stop stop-color="#FFD076"/>
<stop offset="0.095" stop-color="#C3732F"/>
<stop offset="0.42" stop-color="#FFD076"/>
<stop offset="0.64" stop-color="#FFD076"/>
<stop offset="0.92" stop-color="#CF8938"/>
<stop offset="1" stop-color="#B47427"/>
</linearGradient>
<linearGradient id="paint1_linear_1_241" x1="7.5" y1="54" x2="112" y2="15" gradientUnits="userSpaceOnUse">
<stop stop-color="#FFD076"/>
<stop offset="0.21" stop-color="#C3732F"/>
<stop offset="0.325" stop-color="#FFD076"/>
<stop offset="0.555" stop-color="#FFD076"/>
<stop offset="0.75" stop-color="#FFD076"/>
<stop offset="0.825" stop-color="#CF8938"/>
<stop offset="0.89" stop-color="#B47427"/>
<stop offset="1" stop-color="#FFD076"/>
</linearGradient>
<linearGradient id="paint2_linear_1_241" x1="7.88333" y1="61" x2="24.0991" y2="13.1635" gradientUnits="userSpaceOnUse">
<stop offset="0.035" stop-color="#FFD076"/>
<stop offset="0.14" stop-color="#C3732F"/>
<stop offset="0.42" stop-color="#FFD076"/>
<stop offset="0.64" stop-color="#FFD076"/>
<stop offset="0.92" stop-color="#CF8938"/>
<stop offset="1" stop-color="#B47427"/>
</linearGradient>
</defs>
</svg>
