<svg width="30" height="30" viewBox="0 0 30 30" fill="none" xmlns="http://www.w3.org/2000/svg">
<path d="M17.7188 14.4521H10.8943V11.6463H17.7188C18.1175 11.6463 18.3946 11.7185 18.5337 11.8446C18.6728 11.9706 18.759 12.2045 18.759 12.546V13.5535C18.759 13.9133 18.6728 14.1472 18.5337 14.2732C18.3946 14.3993 18.1175 14.4532 17.7188 14.4532V14.4521Z" fill="white"/>
<path fill-rule="evenodd" clip-rule="evenodd" d="M15 30C6.717 30 0 23.283 0 15C0 6.717 6.717 0 15 0C23.283 0 30 6.717 30 15C30 23.283 23.283 30 15 30ZM18.187 9.00107H8V21H10.8943V17.0963H16.2281L18.759 21H22L19.2096 17.0779C20.2383 16.9195 20.7003 16.592 21.0812 16.0522C21.4622 15.5123 21.6533 14.6493 21.6533 13.4974V12.5977C21.6533 11.9146 21.5837 11.3748 21.4622 10.961C21.3408 10.5473 21.1332 10.1874 20.8384 9.86415C20.5269 9.55815 20.1802 9.34264 19.7639 9.19825C19.3476 9.0722 18.8275 9 18.187 9V9.00107ZM22.5 9C23.3284 9 24 8.32843 24 7.5C24 6.67157 23.3284 6 22.5 6C21.6716 6 21 6.67157 21 7.5C21 8.32843 21.6716 9 22.5 9Z" fill="white"/>
</svg>
