<svg width="30" height="30" viewBox="0 0 30 30" fill="none" xmlns="http://www.w3.org/2000/svg">
<path d="M13.3909 10.6645C13.3909 11.7294 14.2542 12.5928 15.3191 12.5928C16.384 12.5928 17.2473 11.7294 17.2473 10.6645C17.2473 9.59963 16.384 8.73633 15.3191 8.73633C14.2542 8.73633 13.3909 9.59963 13.3909 10.6645Z" fill="white"/>
<path fill-rule="evenodd" clip-rule="evenodd" d="M0 15C0 23.283 6.717 30 15 30C23.283 30 30 23.283 30 15C30 6.717 23.283 0 15 0C6.717 0 0 6.717 0 15ZM10.6546 10.6644C10.6546 8.08838 12.743 6 15.3191 6C17.8952 6 19.9835 8.08838 19.9835 10.6644C19.9835 13.2406 17.8952 15.3291 15.3191 15.3291C12.743 15.3291 10.6546 13.2406 10.6546 10.6644ZM20.0114 17.7284C19.9522 17.7758 18.8332 18.6602 16.9658 19.0406L19.7845 21.8342C20.2802 22.3291 20.2808 23.1321 19.7859 23.6278C19.291 24.1234 18.4882 24.1242 17.9923 23.6292L15.2558 20.9644L12.7703 23.612C12.5215 23.8702 12.1895 24 11.8572 24C11.5403 24 11.2231 23.8821 10.977 23.6448C10.4727 23.1585 10.4581 22.3557 10.9443 21.8514L13.6198 19.0553C11.7001 18.6839 10.5349 17.7765 10.4749 17.7284C9.92845 17.2902 9.84067 16.492 10.2789 15.9455C10.717 15.399 11.5152 15.3113 12.0618 15.7494C12.0733 15.7588 13.292 16.6743 15.2557 16.6757C17.2195 16.6743 18.413 15.7588 18.4245 15.7494C18.9711 15.3113 19.7692 15.399 20.2074 15.9455C20.6456 16.492 20.5578 17.2902 20.0114 17.7284Z" fill="white"/>
</svg>
