<svg width="30" height="30" viewBox="0 0 30 30" fill="none" xmlns="http://www.w3.org/2000/svg">
<path fill-rule="evenodd" clip-rule="evenodd" d="M0 15C0 23.283 6.717 30 15 30C23.283 30 30 23.283 30 15C30 6.717 23.283 0 15 0C6.717 0 0 6.717 0 15ZM23.907 9.531C24.57 9.531 24.708 9.87 24.57 10.335C24.3093 11.5265 21.9656 14.8823 21.6623 15.3165C21.641 15.3469 21.63 15.363 21.63 15.363C21.399 15.732 21.306 15.918 21.63 16.335C21.7438 16.4946 21.9872 16.7329 22.2659 17.0057C22.5529 17.2866 22.8773 17.6041 23.136 17.91C24.075 18.969 24.783 19.86 24.981 20.475C25.161 21.093 24.849 21.405 24.225 21.405H22.038C21.452 21.405 21.1563 21.0762 20.5181 20.3664C20.248 20.0661 19.9166 19.6976 19.476 19.257C18.18 18.006 17.622 17.844 17.298 17.844C16.857 17.844 16.725 17.97 16.725 18.594V20.556C16.725 21.096 16.551 21.408 15.162 21.408C12.843 21.408 10.299 20.001 8.49 17.406C5.778 13.605 5.037 10.731 5.037 10.152C5.037 9.828 5.163 9.534 5.787 9.534H7.974C8.532 9.534 8.742 9.777 8.952 10.383C10.023 13.5 11.826 16.224 12.567 16.224C12.843 16.224 12.972 16.095 12.972 15.39V12.168C12.9219 11.2499 12.6012 10.8535 12.3637 10.5599C12.217 10.3787 12.102 10.2366 12.102 10.035C12.102 9.789 12.312 9.531 12.66 9.531H16.098C16.56 9.531 16.722 9.78 16.722 10.335V14.667C16.722 15.132 16.923 15.294 17.061 15.294C17.34 15.294 17.571 15.132 18.081 14.622C19.656 12.861 20.769 10.149 20.769 10.149C20.907 9.825 21.165 9.531 21.72 9.531H23.907Z" fill="white"/>
</svg>
