<svg width="44" height="46" viewBox="0 0 44 46" fill="none" xmlns="http://www.w3.org/2000/svg">
<path d="M44 24.2629C44 30.0692 41.7115 35.5278 37.5561 39.6336C33.4012 43.7388 27.8765 46 22 46C16.1235 46 10.5988 43.7388 6.44342 39.6331C2.28799 35.5278 0 30.0692 0 24.2629C0 18.4567 2.28851 12.998 6.44393 8.89228C10.5988 4.78652 16.1235 2.52536 22 2.52536C22.3337 2.52536 22.6047 2.79267 22.6047 3.12285C22.6047 3.45252 22.3342 3.72034 22 3.72034C10.5357 3.72034 1.20892 12.9357 1.20892 24.2629C1.20892 35.5902 10.5357 44.8055 22 44.8055C33.4643 44.8055 42.7911 35.5902 42.7911 24.2629C42.7911 16.2221 38.002 8.87746 30.5907 5.55012C30.2865 5.41365 30.152 5.05945 30.2902 4.75892C30.4283 4.45838 30.7868 4.32549 31.0909 4.46196C34.8863 6.1655 38.106 8.89074 40.4007 12.3428C42.7554 15.8848 44 20.0069 44 24.2629ZM21.6627 1.09323L24.7199 3.12285L21.6627 5.15247C21.3855 5.33647 21.312 5.70754 21.4982 5.9815C21.6151 6.15323 21.806 6.24574 22.0005 6.24574C22.1164 6.24574 22.2338 6.21303 22.3373 6.14403L26.1415 3.61863C26.3085 3.50772 26.4089 3.32167 26.4089 3.12285C26.4089 2.92403 26.3085 2.73798 26.1415 2.62707L22.3373 0.101669C22.06 -0.0823315 21.6845 -0.00975358 21.4982 0.264202C21.312 0.538158 21.3855 0.909225 21.6627 1.09323ZM26.3101 10.3111C27.2164 10.5841 28.0963 10.9449 28.9359 11.387L30.1691 10.1685C30.7418 9.60272 31.6739 9.60272 32.2466 10.1685L36.2649 14.1388C36.8375 14.7046 36.8375 15.6257 36.2649 16.1915L35.0327 17.4089C35.4802 18.2374 35.8449 19.1074 36.1221 20.0038H37.8633C38.6734 20.0038 39.3325 20.655 39.3325 21.4554V27.07C39.3325 27.8704 38.6734 28.5215 37.8633 28.5215H36.1211C35.8443 29.417 35.4797 30.2864 35.0322 31.1159L36.2654 32.3344C36.5422 32.6079 36.6948 32.9723 36.6948 33.3607C36.6948 33.7492 36.5422 34.1136 36.2654 34.387L32.2476 38.3573C31.675 38.9231 30.7428 38.9231 30.1701 38.3573L28.9379 37.1399C28.0994 37.582 27.219 37.9423 26.3116 38.2163V39.9367C26.3116 40.7371 25.6526 41.3882 24.8425 41.3882H19.1585C18.3484 41.3882 17.6894 40.7371 17.6894 39.9367V38.2153C16.7831 37.9418 15.9032 37.5815 15.0636 37.1394L13.8304 38.3579C13.2577 38.9237 12.3256 38.9237 11.7529 38.3579L7.73458 34.3875C7.45783 34.1141 7.30523 33.7497 7.30523 33.3612C7.30523 32.9728 7.45783 32.6084 7.73458 32.3349L8.96678 31.1175C8.51932 30.2889 8.15462 29.419 7.87735 28.5225H6.13614C5.32606 28.5225 4.66703 27.8714 4.66703 27.071V21.4554C4.66703 20.655 5.32606 20.0038 6.13614 20.0038H7.87839C8.15514 19.1079 8.51983 18.2385 8.96729 17.4094L7.73458 16.1915C7.16194 15.6257 7.16194 14.7046 7.73458 14.1388L11.7529 10.1685C12.3256 9.60272 13.2577 9.60272 13.8304 10.1685L15.0636 11.387C15.9027 10.9449 16.7826 10.5846 17.6894 10.3111V8.5897C17.6894 7.7893 18.3484 7.13814 19.1585 7.13814H24.841C25.6511 7.13814 26.3101 7.7893 26.3101 8.5897V10.3111ZM25.5476 11.3374C25.2838 11.2669 25.1007 11.0308 25.1007 10.7609V8.5897C25.1007 8.45068 24.9817 8.33312 24.841 8.33312H19.1585C19.0178 8.33312 18.8988 8.45068 18.8988 8.5897V10.7609C18.8988 11.0308 18.7157 11.2669 18.4519 11.3374C17.3381 11.6349 16.2642 12.0755 15.2591 12.6454C15.0222 12.7798 14.7237 12.7404 14.5303 12.5498L12.9753 11.0134C12.876 10.9153 12.7073 10.9153 12.608 11.0134L8.58967 14.9837C8.49035 15.0818 8.49035 15.2485 8.58967 15.3466L10.1447 16.883C10.3376 17.0736 10.3774 17.3691 10.2414 17.6032C9.66409 18.5957 9.2187 19.6573 8.91712 20.7577C8.84573 21.0184 8.60674 21.1993 8.33361 21.1993H6.13666C5.99596 21.1993 5.87698 21.3169 5.87698 21.4559V27.0705C5.87698 27.2095 5.99596 27.3271 6.13666 27.3271H8.33309C8.60622 27.3271 8.84521 27.508 8.9166 27.7681C9.21818 28.8696 9.66357 29.9312 10.2409 30.9232C10.3769 31.1573 10.3376 31.4522 10.1441 31.6434L8.58967 33.1793C8.52449 33.2437 8.51466 33.3209 8.51466 33.3607C8.51466 33.4006 8.52449 33.4778 8.58967 33.5422L12.608 37.5125C12.7073 37.6106 12.8755 37.6106 12.9753 37.5125L14.5303 35.9761C14.6467 35.8611 14.8013 35.8013 14.9581 35.8013C15.061 35.8013 15.165 35.8273 15.2591 35.8805C16.2642 36.4509 17.3381 36.8915 18.4514 37.1889C18.7152 37.2595 18.8983 37.4956 18.8983 37.7655V39.9367C18.8983 40.0757 19.0173 40.1933 19.158 40.1933H24.8405C24.9812 40.1933 25.1001 40.0757 25.1001 39.9367V37.7665C25.1001 37.4966 25.2833 37.2605 25.5466 37.19C26.6613 36.892 27.7358 36.4519 28.7398 35.8815C28.9767 35.7471 29.2752 35.7865 29.4687 35.9771L31.0232 37.513C31.1225 37.6111 31.2906 37.6116 31.3904 37.513L35.4083 33.5427C35.4734 33.4783 35.4833 33.4011 35.4833 33.3612C35.4833 33.3214 35.4734 33.2442 35.4083 33.1798L33.8533 31.6434C33.6603 31.4527 33.6205 31.1573 33.7565 30.9232C34.3344 29.9301 34.7798 28.8686 35.0808 27.7692C35.1522 27.5085 35.3912 27.3276 35.6643 27.3276H37.8618C38.0025 27.3276 38.1215 27.21 38.1215 27.071V21.4554C38.1215 21.3164 38.0025 21.1988 37.8618 21.1988H35.6654C35.3922 21.1988 35.1532 21.0179 35.0819 20.7577C34.7803 19.6558 34.3344 18.5947 33.7576 17.6026C33.6215 17.3686 33.6608 17.0736 33.8543 16.8825L35.4083 15.3471C35.5076 15.249 35.5076 15.0824 35.4083 14.9842L31.3904 11.0139C31.2911 10.9158 31.1225 10.9153 31.0232 11.0139L29.4682 12.5503C29.2747 12.7409 28.9762 12.7803 28.7393 12.6459C27.7347 12.075 26.6608 11.6349 25.5476 11.3374ZM22 12.9168C25.1446 12.9168 27.998 14.1726 30.0739 16.2027C30.0894 16.215 30.1055 16.2257 30.12 16.24C30.1344 16.2543 30.1448 16.2702 30.1577 16.2855C32.2124 18.3366 33.4834 21.1559 33.4834 24.2629C33.4834 27.3705 32.2124 30.1893 30.1572 32.2409C30.1448 32.2557 30.1339 32.2721 30.12 32.2859C30.106 32.2997 30.0894 32.3104 30.0744 32.3227C27.998 34.3533 25.1451 35.6091 22 35.6091C18.8554 35.6091 16.002 34.3533 13.9261 32.3227C13.9106 32.3104 13.8945 32.2997 13.88 32.2859C13.8656 32.2715 13.8552 32.2557 13.8428 32.2404C11.7881 30.1893 10.5166 27.37 10.5166 24.2629C10.5166 21.1559 11.7876 18.3371 13.8418 16.286C13.8547 16.2707 13.8656 16.2543 13.88 16.2395C13.8945 16.2252 13.9111 16.2145 13.9266 16.2017C16.0025 14.1721 18.8554 12.9168 22 12.9168ZM28.4703 17.0251L28.821 16.6786C27.1466 15.2065 24.9827 14.2666 22.6047 14.1296V14.6244C22.6047 14.9541 22.3342 15.2219 22 15.2219C21.6658 15.2219 21.3953 14.9546 21.3953 14.6244V14.1296C19.0168 14.2666 16.8534 15.2065 15.179 16.6786L15.5297 17.0251C15.7656 17.2582 15.7656 17.6369 15.5297 17.87C15.4117 17.9865 15.2571 18.0448 15.1024 18.0448C14.9477 18.0448 14.7931 17.9865 14.6751 17.87L14.3244 17.5234C12.8346 19.1779 11.8833 21.3154 11.7446 23.6654H12.2454C12.579 23.6654 12.8501 23.9328 12.8501 24.2629C12.8501 24.5931 12.5796 24.8604 12.2454 24.8604H11.7446C11.8833 27.2105 12.8346 29.348 14.3244 31.0025L14.6751 30.6559C14.911 30.4229 15.2938 30.4229 15.5302 30.6559C15.7661 30.889 15.7661 31.2677 15.5302 31.5008L15.1795 31.8473C16.854 33.3193 19.0173 34.2593 21.3958 34.3962V33.901C21.3958 33.5713 21.6663 33.3035 22.0005 33.3035C22.3347 33.3035 22.6052 33.5708 22.6052 33.901V34.3962C24.9838 34.2593 27.1471 33.3193 28.8216 31.8473L28.4708 31.5008C28.2349 31.2677 28.2349 30.889 28.4708 30.6559C28.7072 30.4229 29.09 30.4229 29.3259 30.6559L29.6766 31.0025C31.1665 29.348 32.1178 27.21 32.2564 24.8604H31.7551C31.4215 24.8604 31.1504 24.5931 31.1504 24.2629C31.1504 23.9328 31.421 23.6654 31.7551 23.6654H32.2564C32.1178 21.3154 31.1665 19.1779 29.6766 17.5234L29.3259 17.87C29.208 17.9865 29.0533 18.0448 28.8986 18.0448C28.744 18.0448 28.5893 17.9865 28.4713 17.87C28.2339 17.6364 28.2339 17.2582 28.4703 17.0251ZM26.1653 24.8604H23.5426C23.3005 25.4692 22.7009 25.9016 22 25.9016C21.0854 25.9016 20.3416 25.1666 20.3416 24.2629C20.3416 23.5704 20.7792 22.9785 21.3953 22.7388V18.5492C21.3953 18.2196 21.6658 17.9517 22 17.9517C22.3342 17.9517 22.6047 18.219 22.6047 18.5492V22.7388C23.033 22.9054 23.3739 23.2422 23.5426 23.6654H26.1653C26.4989 23.6654 26.77 23.9328 26.77 24.2629C26.77 24.5931 26.4994 24.8604 26.1653 24.8604ZM22.449 24.2629C22.449 24.0181 22.2478 23.8193 22 23.8193C21.7522 23.8193 21.551 24.0181 21.551 24.2629C21.551 24.5078 21.7522 24.7066 22 24.7066C22.2478 24.7066 22.449 24.5072 22.449 24.2629ZM21.2401 17.9584L22 17.1447L22.7599 17.9584C22.8789 18.0862 23.0413 18.1506 23.2043 18.1506C23.3507 18.1506 23.4976 18.0984 23.614 17.9921C23.8597 17.7682 23.8747 17.3905 23.6486 17.1478L22.4444 15.8577C22.33 15.735 22.1686 15.6655 22 15.6655C21.8314 15.6655 21.67 15.735 21.5556 15.8577L20.3514 17.1478C20.1248 17.39 20.1403 17.7682 20.386 17.9921C20.6312 18.2165 21.014 18.2012 21.2401 17.9584ZM26.7286 22.6683C26.502 22.9105 26.5175 23.2888 26.7632 23.5126L27.5868 24.2634L26.7632 25.0143C26.5175 25.2381 26.5025 25.6158 26.7286 25.8586C26.8476 25.9864 27.01 26.0508 27.1729 26.0508C27.3193 26.0508 27.4662 25.9987 27.5826 25.8924L28.8878 24.7025C29.0119 24.5895 29.0823 24.4301 29.0823 24.2634C29.0823 24.0968 29.0119 23.9374 28.8878 23.8244L27.5826 22.6345C27.3374 22.4102 26.9552 22.4255 26.7286 22.6683Z" fill="url(#paint0_linear_1_95)"/>
<defs>
<linearGradient id="paint0_linear_1_95" x1="71.5301" y1="60.1538" x2="16.6074" y2="83.2357" gradientUnits="userSpaceOnUse">
<stop stop-color="#B07E39"/>
<stop offset="0.35" stop-color="#EFB861"/>
<stop offset="1" stop-color="#AE6E2F"/>
</linearGradient>
</defs>
</svg>
