<svg width="35" height="44" viewBox="0 0 35 44" fill="none" xmlns="http://www.w3.org/2000/svg">
<path d="M30.2256 29.9518C30.2256 27.3993 28.1476 25.3225 25.5936 25.3225C23.0395 25.3225 20.9615 27.3993 20.9615 29.9518C20.9615 32.5043 23.0395 34.5811 25.5936 34.5811C28.1476 34.5811 30.2256 32.5043 30.2256 29.9518ZM25.5936 33.4395C23.6691 33.4395 22.1037 31.8751 22.1037 29.9518C22.1037 28.0285 23.6691 26.464 25.5936 26.464C27.518 26.464 29.0834 28.0285 29.0834 29.9518C29.0829 31.8751 27.5175 33.4395 25.5936 33.4395ZM34.9702 41.9208L32.4837 34.5136C32.5977 34.3909 32.7004 34.2545 32.788 34.1029C33.1984 33.3921 33.1827 32.5527 32.8051 31.8829C33.467 31.4913 33.9009 30.7721 33.9009 29.9518C33.9009 29.1309 33.467 28.4118 32.8051 28.0207C33.1827 27.3509 33.1984 26.5115 32.788 25.8006C32.3775 25.0898 31.6418 24.684 30.8728 24.6757C30.8684 24.2464 30.7393 23.8275 30.5025 23.4701V1.57102C30.5025 0.571022 30 0 28.9311 0H1.57137C0.5 0 0 0.5 0 1.57102V35.7165C0 37 0.5 37.2934 1.57137 37.2876H17.772L16.2164 41.9212C16.1161 42.22 16.2771 42.5436 16.5765 42.6438L16.6469 42.6673C16.6767 42.6771 16.7066 42.6844 16.7364 42.6893L16.7374 42.6898C16.7677 42.6947 16.7985 42.6971 16.8289 42.6971C16.8328 42.6971 16.8362 42.6961 16.8401 42.6961C16.8489 42.6961 16.8572 42.6947 16.866 42.6942C16.891 42.6927 16.9159 42.6898 16.9404 42.6849C16.9517 42.6824 16.9624 42.68 16.9737 42.6771C16.9957 42.6712 17.0177 42.6639 17.0387 42.6556C17.0495 42.6512 17.0603 42.6472 17.071 42.6424C17.0989 42.6292 17.1263 42.614 17.1517 42.5964L17.1591 42.592C17.1874 42.572 17.2134 42.5485 17.2378 42.5236C17.2403 42.5211 17.2432 42.5196 17.2457 42.5167L19.6969 39.907L20.0775 43.4661L20.0785 43.4715C20.0824 43.5038 20.0888 43.536 20.0981 43.5673C20.0995 43.5717 20.101 43.5756 20.1025 43.58C20.1118 43.6094 20.1235 43.6377 20.1372 43.6651C20.1392 43.669 20.1416 43.6729 20.1441 43.6768C20.1587 43.7042 20.1754 43.7301 20.1944 43.7546C20.1944 43.7546 20.1969 43.7575 20.1984 43.759C20.2184 43.7844 20.2409 43.8088 20.2654 43.8308C20.2894 43.8519 20.3153 43.8709 20.3427 43.888C20.3451 43.8895 20.3481 43.8915 20.3505 43.8929C20.3759 43.9081 20.4028 43.9218 20.4312 43.933C20.4366 43.9355 20.442 43.9374 20.4474 43.9394C20.4532 43.9413 20.4586 43.9443 20.464 43.9462L20.5344 43.9697C20.5926 43.9902 20.6538 44 20.7149 44C20.8025 44 20.8896 43.98 20.9693 43.9404C21.1048 43.8729 21.208 43.7546 21.2565 43.6108L23.3771 37.2934C23.3825 37.2915 23.3878 37.2895 23.3932 37.2876H23.7425C24.148 37.8767 24.826 38.2551 25.5931 38.2551C26.3601 38.2551 27.0386 37.8767 27.4437 37.2876H27.7929L27.8091 37.2934L29.9297 43.6108C29.9781 43.7546 30.0813 43.8729 30.2168 43.9404C30.2971 43.98 30.3841 44 30.4717 44C30.5328 44 30.5945 43.9902 30.6532 43.9702L30.7236 43.9467C30.7295 43.9448 30.7349 43.9423 30.7403 43.9399C30.7456 43.9379 30.751 43.936 30.7564 43.9335C30.7848 43.9218 30.8117 43.9086 30.8371 43.8934C30.8396 43.892 30.842 43.89 30.8449 43.8885C30.9012 43.8533 30.9496 43.8093 30.9897 43.759L30.9932 43.7546C31.0122 43.7301 31.0289 43.7037 31.0435 43.6764C31.0455 43.6724 31.0479 43.6685 31.0499 43.6646C31.0641 43.6372 31.0753 43.6089 31.0846 43.5796C31.0861 43.5752 31.0876 43.5712 31.0886 43.5668C31.0978 43.5356 31.1042 43.5038 31.1081 43.471L31.1091 43.4656L31.4897 39.9065L33.941 42.5162C33.9434 42.5187 33.9464 42.5201 33.9483 42.5226C33.9728 42.548 33.9987 42.5715 34.0271 42.5915C34.029 42.593 34.0315 42.594 34.0339 42.5954C34.0599 42.613 34.0868 42.6282 34.1151 42.6414C34.1254 42.6463 34.1362 42.6502 34.1469 42.6541C34.1684 42.6624 34.19 42.6697 34.2125 42.6756C34.2232 42.6785 34.2345 42.6815 34.2453 42.6834C34.2697 42.6883 34.2947 42.6912 34.3196 42.6927C34.3284 42.6932 34.3367 42.6947 34.3455 42.6947C34.3494 42.6947 34.3529 42.6956 34.3568 42.6956C34.3871 42.6956 34.4174 42.6932 34.4478 42.6883L34.4507 42.6878C34.4801 42.6829 34.5094 42.6761 34.5383 42.6663L34.6092 42.6428C34.753 42.5949 34.8714 42.4913 34.9389 42.3559C35.0079 42.2214 35.0186 42.0645 34.9702 41.9208ZM1.14224 36.1455V1.14156H29.3603V22.5842C28.896 22.4214 28.4024 22.419 27.9509 22.5608V6.68849C27.9509 6.37316 27.6951 6.11747 27.3796 6.11747C25.843 6.11747 24.5927 4.86836 24.5927 3.33227C24.5927 3.01693 24.3368 2.76124 24.0213 2.76124H6.4807C6.16517 2.76124 5.90933 3.01693 5.90933 3.33227C5.90933 4.86787 4.65947 6.11747 3.12245 6.11747C2.80693 6.11747 2.55109 6.37316 2.55109 6.68849V30.5986C2.55109 30.9139 2.80693 31.1696 3.12245 31.1696C4.65898 31.1696 5.90933 32.4187 5.90933 33.9548C5.90933 34.2701 6.16517 34.5258 6.4807 34.5258H18.6985L18.1546 36.146L1.14224 36.1455ZM18.381 28.0207C17.7192 28.4123 17.2853 29.1314 17.2853 29.9518C17.2853 30.7726 17.7192 31.4918 18.381 31.8829C18.1257 32.3361 18.0367 32.867 18.1325 33.3838H7.01048C6.76051 31.6746 5.40449 30.3194 3.69431 30.0691V7.21796C5.40449 6.96764 6.76051 5.61244 7.01048 3.90329H23.492C23.742 5.61244 25.0985 6.96764 26.8087 7.21796V22.0029C26.4579 21.7785 26.0412 21.649 25.5936 21.649C24.7722 21.649 24.0526 22.0826 23.6613 22.7441C22.9911 22.3672 22.1507 22.351 21.4399 22.7612C20.7286 23.1714 20.3226 23.9067 20.3143 24.6752C19.5453 24.6835 18.8096 25.0898 18.3991 25.8001C17.9877 26.511 18.0039 27.3509 18.381 28.0207ZM20.9537 40.9244L20.6998 38.5484C20.6763 38.3264 20.5251 38.1387 20.3133 38.0678C20.1015 37.9969 19.8682 38.0556 19.715 38.2184L18.0787 39.9603L19.6989 35.134C19.8975 35.1932 20.104 35.2259 20.3133 35.2284C20.3216 35.9969 20.7277 36.7322 21.4389 37.1424C21.6615 37.2709 21.8963 37.3575 22.135 37.4044L20.9537 40.9244ZM26.6918 36.1157C26.6385 36.6843 26.1664 37.1135 25.5936 37.1135C25.0207 37.1135 24.5487 36.6848 24.4953 36.1157C24.4728 35.8781 24.305 35.6796 24.0746 35.6175C24.0257 35.6043 23.9758 35.598 23.9269 35.598C23.7449 35.598 23.5698 35.685 23.4612 35.8385C23.3032 36.0609 23.0782 36.2071 22.8326 36.2692C22.8135 36.2726 22.7949 36.277 22.7764 36.2819C22.5234 36.3318 22.252 36.2927 22.0113 36.1538C21.5152 35.8678 21.321 35.2606 21.5593 34.7414C21.6591 34.5244 21.6126 34.2687 21.4438 34.1C21.2751 33.9313 21.0192 33.8854 20.802 33.9846C20.4297 34.1552 20.0125 34.1029 19.7004 33.8776L19.6974 33.8756C19.5751 33.7866 19.469 33.6722 19.3883 33.5329C19.1021 33.0372 19.2376 32.4143 19.7038 32.0838C19.8985 31.9455 19.9865 31.701 19.9249 31.4708C19.8633 31.2405 19.6642 31.0723 19.4264 31.0503C18.8575 30.997 18.428 30.5252 18.428 29.9528C18.428 29.3803 18.857 28.9085 19.4264 28.8552C19.6642 28.8327 19.8628 28.665 19.9249 28.4348C19.9865 28.2045 19.8985 27.9596 19.7038 27.8217C19.2376 27.4912 19.1021 26.8679 19.3883 26.3726C19.6744 25.8769 20.282 25.6828 20.802 25.9209C21.0187 26.0201 21.2751 25.9742 21.4438 25.8055C21.6126 25.6368 21.6586 25.3807 21.5593 25.1641C21.321 24.6449 21.5152 24.0377 22.0113 23.7517C22.5073 23.4657 23.1305 23.6011 23.4617 24.067C23.5996 24.2616 23.8447 24.3496 24.0751 24.288C24.3055 24.2264 24.4738 24.0274 24.4958 23.7898C24.5492 23.2212 25.0212 22.792 25.594 22.792C26.1669 22.792 26.6389 23.2208 26.6923 23.7898C26.7148 24.0274 26.8826 24.2259 27.113 24.288C27.3434 24.3496 27.5884 24.2616 27.7264 24.067C28.0571 23.6011 28.6808 23.4657 29.1768 23.7517C29.6729 24.0377 29.8671 24.6449 29.6288 25.1641C29.529 25.3812 29.5755 25.6368 29.7443 25.8055C29.913 25.9742 30.1694 26.0201 30.3861 25.9209C30.9056 25.6828 31.5132 25.8769 31.7993 26.3726C32.0855 26.8684 31.95 27.4912 31.4838 27.8222C31.2891 27.96 31.2011 28.205 31.2627 28.4352C31.3243 28.6655 31.5234 28.8337 31.7612 28.8557C32.3301 28.909 32.7596 29.3808 32.7596 29.9532C32.7596 30.5257 32.3306 30.9975 31.7612 31.0508C31.5234 31.0733 31.3248 31.241 31.2627 31.4712C31.2011 31.7015 31.2891 31.9464 31.4838 32.0843C31.95 32.4148 32.0855 33.0381 31.7993 33.5339C31.7186 33.6737 31.612 33.7881 31.4892 33.8771L31.4882 33.8776C31.1761 34.1034 30.7584 34.1562 30.3856 33.9856C30.1689 33.8864 29.9126 33.9323 29.7438 34.101C29.575 34.2696 29.529 34.5253 29.6283 34.7424C29.8666 35.2616 29.6724 35.8688 29.1763 36.1548C28.9352 36.2941 28.6642 36.3328 28.4108 36.2829C28.3927 36.278 28.3741 36.2736 28.355 36.2702C28.1089 36.2086 27.8839 36.0624 27.7259 35.84C27.588 35.6454 27.3429 35.5574 27.1125 35.619C26.8816 35.6791 26.7138 35.8781 26.6918 36.1157ZM31.4711 38.2184C31.3185 38.0556 31.0846 37.9969 30.8728 38.0678C30.661 38.1387 30.5103 38.3264 30.4864 38.5484L30.2325 40.9244L29.0511 37.4044C29.2893 37.3575 29.5246 37.2709 29.7467 37.1424C30.458 36.7322 30.864 35.9969 30.8723 35.2284C31.0817 35.2259 31.2881 35.1932 31.4867 35.134L33.1069 39.9603L31.4711 38.2184ZM6.86079 9.62671C6.86079 9.31138 7.11663 9.05569 7.43216 9.05569H23.0708C23.3864 9.05569 23.6422 9.31138 23.6422 9.62671C23.6422 9.94204 23.3864 10.1977 23.0708 10.1977H7.43216C7.11663 10.1977 6.86079 9.94204 6.86079 9.62671ZM6.86079 13.2337C6.86079 12.9184 7.11663 12.6627 7.43216 12.6627H23.0708C23.3864 12.6627 23.6422 12.9184 23.6422 13.2337C23.6422 13.5491 23.3864 13.8048 23.0708 13.8048H7.43216C7.11663 13.8043 6.86079 13.5486 6.86079 13.2337ZM6.86079 16.8403C6.86079 16.5249 7.11663 16.2692 7.43216 16.2692H23.0708C23.3864 16.2692 23.6422 16.5249 23.6422 16.8403C23.6422 17.1556 23.3864 17.4113 23.0708 17.4113H7.43216C7.11663 17.4108 6.86079 17.1556 6.86079 16.8403ZM23.0704 21.0178H7.43216C7.11663 21.0178 6.86079 20.7621 6.86079 20.4468C6.86079 20.1315 7.11663 19.8758 7.43216 19.8758H23.0708C23.3864 19.8758 23.6422 20.1315 23.6422 20.4468C23.6422 20.7621 23.3859 21.0178 23.0704 21.0178ZM16.621 24.0538C16.621 24.3692 16.3651 24.6248 16.0496 24.6248H7.43216C7.11663 24.6248 6.86079 24.3692 6.86079 24.0538C6.86079 23.7385 7.11663 23.4828 7.43216 23.4828H16.0501C16.3651 23.4828 16.621 23.7385 16.621 24.0538ZM16.621 27.6604C16.621 27.9757 16.3651 28.2314 16.0496 28.2314H7.43216C7.11663 28.2314 6.86079 27.9757 6.86079 27.6604C6.86079 27.345 7.11663 27.0893 7.43216 27.0893H16.0501C16.3651 27.0898 16.621 27.345 16.621 27.6604ZM28.0189 29.5333L25.4453 31.7577C25.3377 31.8506 25.2047 31.8966 25.0716 31.8966C24.9317 31.8966 24.7918 31.8452 24.6822 31.7436L23.152 30.3184C22.9212 30.1033 22.9084 29.7425 23.1237 29.5118C23.3389 29.281 23.6999 29.2683 23.9308 29.4834L25.0858 30.559L27.2715 28.6699C27.5102 28.4636 27.8707 28.49 28.0771 28.7281C28.2836 28.9667 28.2572 29.3275 28.0189 29.5333Z" fill="url(#paint0_linear_1_101)"/>
<defs>
<linearGradient id="paint0_linear_1_101" x1="66.8989" y1="57.5384" x2="21.0896" y2="73.5485" gradientUnits="userSpaceOnUse">
<stop stop-color="#B07E39"/>
<stop offset="0.35" stop-color="#EFB861"/>
<stop offset="1" stop-color="#AE6E2F"/>
</linearGradient>
</defs>
</svg>
