<svg width="16" height="16" viewBox="0 0 16 16" fill="none" xmlns="http://www.w3.org/2000/svg">
<path fill-rule="evenodd" clip-rule="evenodd" d="M11.0932 10.2919L11.8327 9.55219C11.9352 9.45009 12.0739 9.39277 12.2186 9.39277C12.3632 9.39277 12.502 9.45009 12.6045 9.55219L15.2182 12.1656C15.3883 12.3369 15.4838 12.5686 15.4838 12.81C15.4838 13.0514 15.3883 13.283 15.2182 13.4544L14.7364 13.9359L11.0932 10.2919ZM12.0049 16H12.0264C12.1666 15.9993 12.3061 15.9799 12.4412 15.9422C12.713 15.864 12.9599 15.7167 13.1578 15.5147L14.3719 14.3006L10.728 10.6569L9.9778 11.4072C9.81168 11.5745 9.59434 11.6814 9.36042 11.7109C9.12649 11.7403 8.88945 11.6906 8.68704 11.5697C8.2511 11.3117 7.83107 11.0278 7.42923 10.7194C7.02693 10.411 6.64348 10.0789 6.28093 9.72466L6.27593 9.71969C5.92199 9.35715 5.58994 8.97386 5.28156 8.57185C4.97319 8.16993 4.68929 7.74981 4.43142 7.31376C4.31048 7.11127 4.26078 6.87413 4.29023 6.64011C4.31967 6.4061 4.42657 6.18867 4.5939 6.02245L5.34383 5.27221L1.70074 1.62845L0.486796 2.8425C0.283259 3.03933 0.135713 3.28675 0.059281 3.55939C-0.0171508 3.83203 -0.0197196 4.12009 0.051838 4.39406C0.419584 5.89964 0.94519 7.28467 1.61919 8.53901C2.27874 9.77456 3.11028 10.9103 4.08895 11.9121C5.09057 12.8909 6.22606 13.7225 7.46144 14.3821C8.71567 15.0562 10.1009 15.5818 11.6065 15.9496C11.7369 15.9818 11.8706 15.9988 12.0049 16ZM2.0654 1.26348L2.54691 0.782231C2.71808 0.611891 2.94973 0.516266 3.19121 0.516266C3.43268 0.516266 3.66434 0.611891 3.83551 0.782231L6.44845 3.39562C6.55067 3.49804 6.60809 3.63684 6.60809 3.78156C6.60809 3.92627 6.55067 4.06508 6.44845 4.1675L5.70892 4.90749L2.0654 1.26348ZM9.14022 3.19038C9.1061 3.19075 9.07226 3.18435 9.04063 3.17156C9.009 3.15876 8.98023 3.13982 8.95597 3.11583C8.93171 3.09183 8.91246 3.06327 8.89931 3.03178C8.88617 3.00029 8.87941 2.96651 8.87941 2.93239C8.87941 2.89827 8.88617 2.86449 8.89931 2.833C8.91246 2.80152 8.93171 2.77295 8.95597 2.74896C8.98023 2.72496 9.009 2.70602 9.04063 2.69323C9.07226 2.68043 9.1061 2.67403 9.14022 2.67441C10.2503 2.67464 11.3149 3.11577 12.0998 3.9008C12.8847 4.68583 13.3258 5.75048 13.326 6.86067C13.326 6.92912 13.2988 6.99477 13.2504 7.04317C13.202 7.09157 13.1364 7.11876 13.0679 7.11876C12.9995 7.11876 12.9339 7.09157 12.8855 7.04317C12.8371 6.99477 12.8099 6.92912 12.8099 6.86067C12.81 6.37868 12.7151 5.90139 12.5307 5.45607C12.3463 5.01075 12.076 4.60612 11.7353 4.26529C11.3945 3.92446 10.9899 3.6541 10.5447 3.46967C10.0994 3.28523 9.62216 3.19033 9.14022 3.19038ZM9.14022 0.516294C9.10608 0.51667 9.07221 0.51027 9.04057 0.497466C9.00892 0.484662 8.98013 0.465707 8.95586 0.4417C8.93159 0.417692 8.91232 0.389108 8.89917 0.357602C8.88602 0.326097 8.87925 0.292295 8.87925 0.258155C8.87925 0.224015 8.88602 0.190213 8.89917 0.158708C8.91232 0.127202 8.93159 0.0986181 8.95586 0.0746104C8.98013 0.0506027 9.00892 0.0316481 9.04057 0.0188438C9.07221 0.00603955 9.10608 -0.000359991 9.14022 1.56262e-05C10.0411 -6.23631e-05 10.9332 0.177342 11.7655 0.522098C12.5978 0.866853 13.3541 1.37221 13.9911 2.0093C14.6281 2.64639 15.1334 3.40273 15.4781 4.23514C15.8228 5.06754 16.0001 5.95971 16 6.86067C15.9993 6.92863 15.9717 6.99356 15.9234 7.04135C15.8751 7.08915 15.8099 7.11595 15.7419 7.11595C15.674 7.11595 15.6087 7.08915 15.5604 7.04135C15.5121 6.99356 15.4846 6.92863 15.4838 6.86067C15.4839 6.02751 15.3199 5.20249 15.0011 4.43272C14.6824 3.66296 14.2151 2.96354 13.626 2.37439C13.037 1.78525 12.3376 1.31792 11.5679 0.999109C10.7982 0.680294 9.97331 0.516233 9.14022 0.516294Z" fill="url(#paint0_linear_175_525)"/>
<defs>
<linearGradient id="paint0_linear_175_525" x1="26.0109" y1="20.9231" x2="6.31395" y2="29.5772" gradientUnits="userSpaceOnUse">
<stop stop-color="#B07E39"/>
<stop offset="0.35" stop-color="#EFB861"/>
<stop offset="1" stop-color="#AE6E2F"/>
</linearGradient>
</defs>
</svg>
