<svg width="124" height="114" viewBox="0 0 124 114" fill="none" xmlns="http://www.w3.org/2000/svg">
<path d="M79.8625 21.6719C73.865 27.0783 73.3842 36.3576 78.7919 42.3551C81.6798 45.5584 85.6698 47.1869 89.6764 47.1869C93.1718 47.1869 96.6796 45.9456 99.4751 43.4256C102.381 40.8065 104.092 37.2118 104.295 33.3058C104.497 29.3999 103.166 25.6482 100.547 22.7424C95.1379 16.745 85.8599 16.2641 79.8625 21.6719ZM101.077 33.1391C100.919 36.1868 99.584 38.9905 97.3175 41.0338C92.6386 45.2512 85.4011 44.8764 81.1824 40.1975C76.965 35.5186 77.3398 28.2811 82.0187 24.0623C84.1997 22.0963 86.9346 21.1291 89.6626 21.1291C92.7874 21.1291 95.9012 22.4008 98.1538 24.8987C100.197 27.1651 101.235 30.0915 101.077 33.1391ZM117.966 35.8299C123.933 26.3095 125.669 14.6921 122.298 4.03087C122.157 3.58722 121.831 3.22487 121.404 3.03887C111.149 -1.41548 99.4145 -0.887791 89.3278 4.06256C89.2754 4.03913 89.2245 4.01296 89.1735 3.98953L89.0853 4.18518C85.8517 5.79993 82.7889 7.8666 80.0058 10.3769L67.9144 21.2779L39.9414 18.8144C39.4964 18.7744 39.0541 18.9232 38.7221 19.2222L17.1861 38.6378C16.7576 39.0236 16.5688 39.6105 16.6901 40.1741C16.8113 40.7376 17.226 41.1936 17.7758 41.3686L38.6367 48.0108C35.0007 52.7752 34.8064 59.1846 38.5099 63.2918L38.6215 63.4158L30.2377 63.5508C29.6067 63.5604 29.0391 63.9393 28.7869 64.518C28.5348 65.0966 28.645 65.7704 29.068 66.2388L49.8986 89.3441C50.2086 89.6886 50.6467 89.8759 51.0945 89.8759C51.2571 89.8759 51.421 89.8511 51.5809 89.8002C52.183 89.61 52.6183 89.0837 52.6927 88.4568L53.693 80.1323L53.8046 80.2563C55.8354 82.509 58.7233 83.7393 61.961 83.7393C62.0423 83.7393 62.125 83.738 62.2076 83.7366C64.5857 83.6911 66.932 82.9816 69.0166 81.7071L73.4682 103.144C73.5853 103.709 73.9959 104.168 74.5443 104.347C74.7082 104.4 74.8777 104.427 75.0444 104.427C75.437 104.427 75.8228 104.283 76.1232 104.012L97.6592 84.5963C97.9912 84.2973 98.1841 83.873 98.191 83.4252L98.6292 55.3489L110.721 44.4479C113.505 41.9376 115.876 39.1063 117.816 36.0559L118.02 35.9884C118.003 35.9374 117.984 35.8837 117.966 35.8299ZM106.648 3.21936C111 3.21936 115.344 4.035 119.442 5.70762C122.002 14.4758 120.822 23.9011 116.482 31.9804C114.204 26.7545 110.905 21.6802 106.79 17.1142C102.674 12.5497 97.9678 8.74286 93.0051 5.93633C97.3754 4.14247 102.017 3.21936 106.648 3.21936ZM40.3575 22.0839L53.0427 23.2012L40.9582 34.0953C40.2983 34.6905 40.2445 35.7087 40.8411 36.37C41.1594 36.7227 41.5975 36.9018 42.037 36.9018C42.4214 36.9018 42.8072 36.7654 43.1144 36.4871L57.424 23.587L64.6463 24.2235L44.8284 42.0905L41.1304 45.4248L21.4269 39.1517L40.3575 22.0839ZM49.9179 84.5564L33.8324 66.7128L41.4845 66.5901L50.8314 76.9579L49.9179 84.5564ZM95.2495 65.5458L80.9399 78.4459C80.2799 79.0411 80.2262 80.0593 80.8228 80.7206C81.141 81.0733 81.5792 81.2524 82.0187 81.2524C82.4031 81.2524 82.7889 81.116 83.0961 80.8377L95.1806 69.9437L94.9822 82.6757L76.0515 99.7422L71.8466 79.4958L95.3624 58.2959L95.2495 65.5458ZM108.564 42.0589L74.5842 72.6923L64.9508 62.0063C64.3556 61.3463 63.3374 61.2926 62.6761 61.8878C62.0161 62.483 61.9624 63.5012 62.559 64.1625L72.1924 74.8485L69.0387 77.6923C67.0698 79.4668 64.6229 80.4712 62.147 80.5181C59.7662 80.5635 57.6445 79.7052 56.1978 78.1001L40.9017 61.1342C37.8389 57.7366 38.616 52.0257 42.635 48.4049L45.7887 45.5612L55.4235 56.2472C55.7417 56.5999 56.1799 56.779 56.6194 56.779C57.0038 56.779 57.3896 56.6426 57.6968 56.3643C58.3568 55.7691 58.4105 54.7509 57.8139 54.0896L48.1805 43.4036L82.1606 12.7701C84.3967 10.7544 86.8258 9.04873 89.3829 7.65855C94.7865 10.3521 99.9491 14.338 104.395 19.2704C108.843 24.2029 112.272 29.7498 114.394 35.4028C112.749 37.8029 110.8 40.0432 108.564 42.0589ZM90.1544 23.1516C87.64 23.0221 85.2344 23.8763 83.3675 25.56C81.5006 27.2423 80.4012 29.5514 80.2717 32.0617C80.1422 34.572 80.9977 36.9818 82.68 38.8486C84.5345 40.9057 87.0985 41.9528 89.6736 41.9528C91.9194 41.9528 94.1734 41.155 95.9687 39.5361C99.8223 36.0628 100.131 30.1011 96.6576 26.2475C94.9739 24.382 92.6648 23.2825 90.1544 23.1516ZM93.8111 37.1457C91.276 39.4314 87.3548 39.2275 85.0705 36.6924C83.9641 35.4648 83.4006 33.879 83.486 32.2284C83.5714 30.5778 84.2948 29.0595 85.5224 27.9518C86.6687 26.9185 88.1264 26.3591 89.6585 26.3591C89.7673 26.3591 89.8762 26.3619 89.9864 26.3674C91.6369 26.4528 93.1566 27.1761 94.263 28.4037C96.5487 30.9388 96.3462 34.86 93.8111 37.1457ZM44.7058 98.1564C45.301 98.8163 45.2486 99.8345 44.5887 100.431C36.1567 108.032 26.9008 113.05 19.8287 113.856C19.768 113.863 19.7074 113.867 19.6468 113.867C19.1935 113.867 18.7581 113.676 18.4509 113.335C18.1023 112.95 17.9618 112.419 18.0747 111.911C18.4109 110.383 18.9799 108.735 19.757 107.013C13.2291 110.664 6.99054 112.943 1.79219 113.535C1.73157 113.542 1.67094 113.546 1.61032 113.546C1.15703 113.546 0.721657 113.355 0.414413 113.014C0.0658358 112.629 -0.0746973 112.097 0.0382803 111.59C1.16392 106.481 4.07654 100.511 8.38209 94.395C6.5896 94.9902 4.89081 95.3857 3.33667 95.562C3.27605 95.5689 3.21543 95.573 3.15481 95.573C2.70152 95.573 2.26614 95.3815 1.9589 95.0412C1.61032 94.6554 1.46979 94.125 1.58277 93.6166C3.11485 86.6643 9.06271 77.9775 17.4933 70.3763C18.1547 69.7811 19.1728 69.8334 19.768 70.4948C20.3632 71.1547 20.3109 72.1743 19.6509 72.7695C12.7896 78.9557 7.54991 86.0567 5.43503 91.9082C7.61054 91.3653 10.0313 90.427 12.565 89.1374C12.5664 89.1374 12.5664 89.1361 12.5678 89.1361C12.5747 89.1333 12.5816 89.1292 12.5884 89.1264C12.5981 89.1223 12.6063 89.1182 12.616 89.114C12.6532 89.0961 12.689 89.0796 12.7276 89.0644C12.7469 89.0562 12.7676 89.0506 12.7868 89.0438C12.8158 89.0341 12.8433 89.0231 12.8723 89.0148C12.8998 89.0066 12.926 89.001 12.9536 88.9941C12.9756 88.9886 12.999 88.9831 13.0211 88.979C13.0514 88.9735 13.0817 88.9694 13.112 88.9652C13.1327 88.9625 13.1533 88.9597 13.174 88.9583C13.2043 88.9556 13.2346 88.9542 13.2649 88.9528C13.287 88.9514 13.309 88.9514 13.3311 88.9514C13.3586 88.9514 13.3848 88.9528 13.4123 88.9556C13.4385 88.957 13.4633 88.9583 13.4895 88.9611C13.5129 88.9639 13.535 88.9666 13.5584 88.9707C13.5873 88.9749 13.6176 88.9804 13.6466 88.9859C13.6659 88.99 13.6851 88.9955 13.7044 88.9997C13.7361 89.0079 13.7678 89.0162 13.7995 89.0258C13.816 89.0314 13.8339 89.0369 13.8505 89.0438C13.8822 89.0548 13.9139 89.0658 13.9455 89.0796L13.9993 89.1044C14.0282 89.1182 14.0558 89.1306 14.0847 89.1457C14.1067 89.1581 14.1288 89.1719 14.1508 89.1843C14.1729 89.1981 14.1949 89.2105 14.217 89.2256C14.2445 89.2449 14.2721 89.2656 14.2983 89.2849C14.3107 89.2945 14.3244 89.3028 14.3368 89.3138C14.3396 89.3152 14.341 89.3179 14.3437 89.3207C14.3713 89.3427 14.3975 89.3675 14.4236 89.3923C14.4374 89.4047 14.4512 89.4171 14.4636 89.4295C14.4829 89.4488 14.5008 89.4695 14.5187 89.4902C14.5366 89.5108 14.5559 89.5301 14.5738 89.5522C14.5835 89.5632 14.5903 89.5756 14.6 89.588C14.6248 89.6197 14.6482 89.6527 14.6703 89.6858C14.6744 89.6927 14.6771 89.6982 14.6813 89.7051C14.7061 89.745 14.7295 89.785 14.7515 89.8263C14.7529 89.8277 14.7529 89.8291 14.7543 89.8305C14.7584 89.8387 14.7612 89.847 14.7653 89.8553C14.7832 89.8925 14.8011 89.931 14.8163 89.9696C14.8232 89.9889 14.8301 90.0082 14.837 90.0261C14.8466 90.055 14.8576 90.0854 14.8659 90.1143C14.8742 90.1405 14.8797 90.1666 14.8852 90.1942C14.8907 90.2176 14.8962 90.241 14.9003 90.2645C14.9059 90.2948 14.91 90.3251 14.9141 90.3554C14.9169 90.3761 14.9196 90.3967 14.9224 90.4188C14.9251 90.4491 14.9265 90.4794 14.9279 90.5097C14.9293 90.5318 14.9293 90.5538 14.9293 90.5758C14.9293 90.6034 14.9279 90.6323 14.9251 90.6599C14.9238 90.6847 14.9224 90.7095 14.9196 90.7343C14.9169 90.7591 14.9127 90.7825 14.91 90.8059C14.9059 90.8349 14.9017 90.8624 14.8948 90.89C14.8907 90.9106 14.8852 90.9313 14.8797 90.9506C14.8714 90.9809 14.8645 91.0112 14.8549 91.0415C14.8494 91.0608 14.8425 91.0787 14.8356 91.0966C14.8246 91.127 14.8135 91.1573 14.8011 91.1876C14.7929 91.2069 14.7832 91.2262 14.7736 91.2468C14.7612 91.273 14.7488 91.3006 14.7336 91.3267C14.7212 91.3502 14.7061 91.3736 14.6923 91.397C14.6799 91.4177 14.6675 91.4383 14.6537 91.459C14.6331 91.4893 14.6124 91.5169 14.5903 91.5458C14.5821 91.5568 14.5738 91.5692 14.5655 91.5802C9.3052 98.0255 5.55627 104.45 3.81476 109.953C9.46778 108.789 16.2464 105.723 23.2001 101.157C23.2111 101.15 23.2221 101.145 23.2331 101.138C23.2648 101.119 23.2965 101.099 23.3282 101.081C23.3502 101.07 23.3723 101.059 23.3943 101.05C23.4178 101.039 23.4426 101.026 23.466 101.017C23.4949 101.004 23.5252 100.995 23.5542 100.984C23.5721 100.977 23.5914 100.97 23.6093 100.964C23.6423 100.955 23.6754 100.946 23.7085 100.938C23.725 100.934 23.7415 100.93 23.7594 100.926C23.7925 100.919 23.8256 100.913 23.8586 100.909C23.8766 100.906 23.8958 100.904 23.9138 100.902C23.9441 100.9 23.9758 100.897 24.0061 100.895C24.0281 100.894 24.0502 100.893 24.0736 100.893C24.0998 100.893 24.1259 100.894 24.1535 100.895C24.1797 100.897 24.2072 100.898 24.2334 100.901C24.2554 100.904 24.2789 100.906 24.3009 100.909C24.3312 100.913 24.3602 100.917 24.3905 100.923C24.4111 100.927 24.4304 100.933 24.4511 100.937C24.4814 100.944 24.5117 100.95 24.5406 100.96C24.5627 100.967 24.5834 100.974 24.6054 100.982C24.6316 100.992 24.6591 101 24.6853 101.011C24.7115 101.022 24.7377 101.035 24.7638 101.047C24.7845 101.057 24.8052 101.066 24.8258 101.076C24.8603 101.094 24.892 101.113 24.925 101.134C24.9361 101.141 24.9457 101.145 24.9567 101.152C24.9581 101.153 24.9609 101.154 24.9622 101.156C24.9967 101.179 25.0311 101.204 25.0642 101.23C25.0738 101.237 25.0849 101.244 25.0931 101.252C25.1193 101.274 25.1455 101.298 25.1703 101.321C25.1854 101.335 25.2006 101.347 25.2158 101.362C25.2309 101.378 25.2447 101.394 25.2598 101.411C25.2819 101.435 25.3053 101.459 25.326 101.484C25.3342 101.495 25.3425 101.506 25.3508 101.517C25.3756 101.548 25.4004 101.582 25.4224 101.615C25.4238 101.617 25.4252 101.619 25.4266 101.621C25.4334 101.632 25.4403 101.645 25.4472 101.656C25.4665 101.688 25.4858 101.718 25.5023 101.751C25.5134 101.772 25.523 101.794 25.5326 101.814C25.545 101.839 25.5574 101.864 25.5671 101.89C25.5781 101.918 25.5878 101.945 25.5974 101.974C25.6043 101.995 25.6126 102.014 25.6181 102.035C25.6277 102.066 25.636 102.097 25.6429 102.128C25.647 102.148 25.6525 102.166 25.6566 102.185C25.6635 102.217 25.6677 102.248 25.6718 102.28C25.6746 102.301 25.6773 102.32 25.6801 102.341C25.6828 102.37 25.6842 102.399 25.6856 102.427C25.687 102.451 25.6883 102.474 25.6883 102.499C25.6883 102.525 25.687 102.55 25.6856 102.575C25.6842 102.602 25.6828 102.63 25.6801 102.658C25.6773 102.68 25.6746 102.702 25.6718 102.724C25.6677 102.754 25.6635 102.784 25.658 102.815C25.6539 102.835 25.6484 102.855 25.6442 102.875C25.6374 102.906 25.6305 102.936 25.6208 102.965C25.6139 102.987 25.607 103.009 25.5988 103.03C25.5891 103.056 25.5809 103.083 25.5698 103.109C25.5588 103.137 25.5464 103.163 25.534 103.189C25.5244 103.21 25.5161 103.229 25.5051 103.25C25.4872 103.283 25.4679 103.316 25.4472 103.349C25.4403 103.36 25.4348 103.371 25.4293 103.381C23.8793 105.775 22.6903 108.093 21.9242 110.208C27.963 108.707 35.567 104.231 42.4297 98.0448C43.0924 97.4441 44.1106 97.4964 44.7058 98.1564ZM16.9835 95.9065L30.8495 83.4059C31.5108 82.8107 32.529 82.8631 33.1242 83.5244C33.7194 84.1843 33.667 85.2039 33.0071 85.7991L19.1411 98.2997C18.8325 98.5766 18.4481 98.7144 18.0637 98.7144C17.6228 98.7144 17.1847 98.5353 16.8678 98.1825C16.2712 97.5198 16.3236 96.5017 16.9835 95.9065Z" fill="black"/>
<path d="M79.8625 21.6719C73.865 27.0783 73.3842 36.3576 78.7919 42.3551C81.6798 45.5584 85.6698 47.1869 89.6764 47.1869C93.1718 47.1869 96.6796 45.9456 99.4751 43.4256C102.381 40.8065 104.092 37.2118 104.295 33.3058C104.497 29.3999 103.166 25.6482 100.547 22.7424C95.1379 16.745 85.8599 16.2641 79.8625 21.6719ZM101.077 33.1391C100.919 36.1868 99.584 38.9905 97.3175 41.0338C92.6386 45.2512 85.4011 44.8764 81.1824 40.1975C76.965 35.5186 77.3398 28.2811 82.0187 24.0623C84.1997 22.0963 86.9346 21.1291 89.6626 21.1291C92.7874 21.1291 95.9012 22.4008 98.1538 24.8987C100.197 27.1651 101.235 30.0915 101.077 33.1391ZM117.966 35.8299C123.933 26.3095 125.669 14.6921 122.298 4.03087C122.157 3.58722 121.831 3.22487 121.404 3.03887C111.149 -1.41548 99.4145 -0.887791 89.3278 4.06256C89.2754 4.03913 89.2245 4.01296 89.1735 3.98953L89.0853 4.18518C85.8517 5.79993 82.7889 7.8666 80.0058 10.3769L67.9144 21.2779L39.9414 18.8144C39.4964 18.7744 39.0541 18.9232 38.7221 19.2222L17.1861 38.6378C16.7576 39.0236 16.5688 39.6105 16.6901 40.1741C16.8113 40.7376 17.226 41.1936 17.7758 41.3686L38.6367 48.0108C35.0007 52.7752 34.8064 59.1846 38.5099 63.2918L38.6215 63.4158L30.2377 63.5508C29.6067 63.5604 29.0391 63.9393 28.7869 64.518C28.5348 65.0966 28.645 65.7704 29.068 66.2388L49.8986 89.3441C50.2086 89.6886 50.6467 89.8759 51.0945 89.8759C51.2571 89.8759 51.421 89.8511 51.5809 89.8002C52.183 89.61 52.6183 89.0837 52.6927 88.4568L53.693 80.1323L53.8046 80.2563C55.8354 82.509 58.7233 83.7393 61.961 83.7393C62.0423 83.7393 62.125 83.738 62.2076 83.7366C64.5857 83.6911 66.932 82.9816 69.0166 81.7071L73.4682 103.144C73.5853 103.709 73.9959 104.168 74.5443 104.347C74.7082 104.4 74.8777 104.427 75.0444 104.427C75.437 104.427 75.8228 104.283 76.1232 104.012L97.6592 84.5963C97.9912 84.2973 98.1841 83.873 98.191 83.4252L98.6292 55.3489L110.721 44.4479C113.505 41.9376 115.876 39.1063 117.816 36.0559L118.02 35.9884C118.003 35.9374 117.984 35.8837 117.966 35.8299ZM106.648 3.21936C111 3.21936 115.344 4.035 119.442 5.70762C122.002 14.4758 120.822 23.9011 116.482 31.9804C114.204 26.7545 110.905 21.6802 106.79 17.1142C102.674 12.5497 97.9678 8.74286 93.0051 5.93633C97.3754 4.14247 102.017 3.21936 106.648 3.21936ZM40.3575 22.0839L53.0427 23.2012L40.9582 34.0953C40.2983 34.6905 40.2445 35.7087 40.8411 36.37C41.1594 36.7227 41.5975 36.9018 42.037 36.9018C42.4214 36.9018 42.8072 36.7654 43.1144 36.4871L57.424 23.587L64.6463 24.2235L44.8284 42.0905L41.1304 45.4248L21.4269 39.1517L40.3575 22.0839ZM49.9179 84.5564L33.8324 66.7128L41.4845 66.5901L50.8314 76.9579L49.9179 84.5564ZM95.2495 65.5458L80.9399 78.4459C80.2799 79.0411 80.2262 80.0593 80.8228 80.7206C81.141 81.0733 81.5792 81.2524 82.0187 81.2524C82.4031 81.2524 82.7889 81.116 83.0961 80.8377L95.1806 69.9437L94.9822 82.6757L76.0515 99.7422L71.8466 79.4958L95.3624 58.2959L95.2495 65.5458ZM108.564 42.0589L74.5842 72.6923L64.9508 62.0063C64.3556 61.3463 63.3374 61.2926 62.6761 61.8878C62.0161 62.483 61.9624 63.5012 62.559 64.1625L72.1924 74.8485L69.0387 77.6923C67.0698 79.4668 64.6229 80.4712 62.147 80.5181C59.7662 80.5635 57.6445 79.7052 56.1978 78.1001L40.9017 61.1342C37.8389 57.7366 38.616 52.0257 42.635 48.4049L45.7887 45.5612L55.4235 56.2472C55.7417 56.5999 56.1799 56.779 56.6194 56.779C57.0038 56.779 57.3896 56.6426 57.6968 56.3643C58.3568 55.7691 58.4105 54.7509 57.8139 54.0896L48.1805 43.4036L82.1606 12.7701C84.3967 10.7544 86.8258 9.04873 89.3829 7.65855C94.7865 10.3521 99.9491 14.338 104.395 19.2704C108.843 24.2029 112.272 29.7498 114.394 35.4028C112.749 37.8029 110.8 40.0432 108.564 42.0589ZM90.1544 23.1516C87.64 23.0221 85.2344 23.8763 83.3675 25.56C81.5006 27.2423 80.4012 29.5514 80.2717 32.0617C80.1422 34.572 80.9977 36.9818 82.68 38.8486C84.5345 40.9057 87.0985 41.9528 89.6736 41.9528C91.9194 41.9528 94.1734 41.155 95.9687 39.5361C99.8223 36.0628 100.131 30.1011 96.6576 26.2475C94.9739 24.382 92.6648 23.2825 90.1544 23.1516ZM93.8111 37.1457C91.276 39.4314 87.3548 39.2275 85.0705 36.6924C83.9641 35.4648 83.4006 33.879 83.486 32.2284C83.5714 30.5778 84.2948 29.0595 85.5224 27.9518C86.6687 26.9185 88.1264 26.3591 89.6585 26.3591C89.7673 26.3591 89.8762 26.3619 89.9864 26.3674C91.6369 26.4528 93.1566 27.1761 94.263 28.4037C96.5487 30.9388 96.3462 34.86 93.8111 37.1457ZM44.7058 98.1564C45.301 98.8163 45.2486 99.8345 44.5887 100.431C36.1567 108.032 26.9008 113.05 19.8287 113.856C19.768 113.863 19.7074 113.867 19.6468 113.867C19.1935 113.867 18.7581 113.676 18.4509 113.335C18.1023 112.95 17.9618 112.419 18.0747 111.911C18.4109 110.383 18.9799 108.735 19.757 107.013C13.2291 110.664 6.99054 112.943 1.79219 113.535C1.73157 113.542 1.67094 113.546 1.61032 113.546C1.15703 113.546 0.721657 113.355 0.414413 113.014C0.0658358 112.629 -0.0746973 112.097 0.0382803 111.59C1.16392 106.481 4.07654 100.511 8.38209 94.395C6.5896 94.9902 4.89081 95.3857 3.33667 95.562C3.27605 95.5689 3.21543 95.573 3.15481 95.573C2.70152 95.573 2.26614 95.3815 1.9589 95.0412C1.61032 94.6554 1.46979 94.125 1.58277 93.6166C3.11485 86.6643 9.06271 77.9775 17.4933 70.3763C18.1547 69.7811 19.1728 69.8334 19.768 70.4948C20.3632 71.1547 20.3109 72.1743 19.6509 72.7695C12.7896 78.9557 7.54991 86.0567 5.43503 91.9082C7.61054 91.3653 10.0313 90.427 12.565 89.1374C12.5664 89.1374 12.5664 89.1361 12.5678 89.1361C12.5747 89.1333 12.5816 89.1292 12.5884 89.1264C12.5981 89.1223 12.6063 89.1182 12.616 89.114C12.6532 89.0961 12.689 89.0796 12.7276 89.0644C12.7469 89.0562 12.7676 89.0506 12.7868 89.0438C12.8158 89.0341 12.8433 89.0231 12.8723 89.0148C12.8998 89.0066 12.926 89.001 12.9536 88.9941C12.9756 88.9886 12.999 88.9831 13.0211 88.979C13.0514 88.9735 13.0817 88.9694 13.112 88.9652C13.1327 88.9625 13.1533 88.9597 13.174 88.9583C13.2043 88.9556 13.2346 88.9542 13.2649 88.9528C13.287 88.9514 13.309 88.9514 13.3311 88.9514C13.3586 88.9514 13.3848 88.9528 13.4123 88.9556C13.4385 88.957 13.4633 88.9583 13.4895 88.9611C13.5129 88.9639 13.535 88.9666 13.5584 88.9707C13.5873 88.9749 13.6176 88.9804 13.6466 88.9859C13.6659 88.99 13.6851 88.9955 13.7044 88.9997C13.7361 89.0079 13.7678 89.0162 13.7995 89.0258C13.816 89.0314 13.8339 89.0369 13.8505 89.0438C13.8822 89.0548 13.9139 89.0658 13.9455 89.0796L13.9993 89.1044C14.0282 89.1182 14.0558 89.1306 14.0847 89.1457C14.1067 89.1581 14.1288 89.1719 14.1508 89.1843C14.1729 89.1981 14.1949 89.2105 14.217 89.2256C14.2445 89.2449 14.2721 89.2656 14.2983 89.2849C14.3107 89.2945 14.3244 89.3028 14.3368 89.3138C14.3396 89.3152 14.341 89.3179 14.3437 89.3207C14.3713 89.3427 14.3975 89.3675 14.4236 89.3923C14.4374 89.4047 14.4512 89.4171 14.4636 89.4295C14.4829 89.4488 14.5008 89.4695 14.5187 89.4902C14.5366 89.5108 14.5559 89.5301 14.5738 89.5522C14.5835 89.5632 14.5903 89.5756 14.6 89.588C14.6248 89.6197 14.6482 89.6527 14.6703 89.6858C14.6744 89.6927 14.6771 89.6982 14.6813 89.7051C14.7061 89.745 14.7295 89.785 14.7515 89.8263C14.7529 89.8277 14.7529 89.8291 14.7543 89.8305C14.7584 89.8387 14.7612 89.847 14.7653 89.8553C14.7832 89.8925 14.8011 89.931 14.8163 89.9696C14.8232 89.9889 14.8301 90.0082 14.837 90.0261C14.8466 90.055 14.8576 90.0854 14.8659 90.1143C14.8742 90.1405 14.8797 90.1666 14.8852 90.1942C14.8907 90.2176 14.8962 90.241 14.9003 90.2645C14.9059 90.2948 14.91 90.3251 14.9141 90.3554C14.9169 90.3761 14.9196 90.3967 14.9224 90.4188C14.9251 90.4491 14.9265 90.4794 14.9279 90.5097C14.9293 90.5318 14.9293 90.5538 14.9293 90.5758C14.9293 90.6034 14.9279 90.6323 14.9251 90.6599C14.9238 90.6847 14.9224 90.7095 14.9196 90.7343C14.9169 90.7591 14.9127 90.7825 14.91 90.8059C14.9059 90.8349 14.9017 90.8624 14.8948 90.89C14.8907 90.9106 14.8852 90.9313 14.8797 90.9506C14.8714 90.9809 14.8645 91.0112 14.8549 91.0415C14.8494 91.0608 14.8425 91.0787 14.8356 91.0966C14.8246 91.127 14.8135 91.1573 14.8011 91.1876C14.7929 91.2069 14.7832 91.2262 14.7736 91.2468C14.7612 91.273 14.7488 91.3006 14.7336 91.3267C14.7212 91.3502 14.7061 91.3736 14.6923 91.397C14.6799 91.4177 14.6675 91.4383 14.6537 91.459C14.6331 91.4893 14.6124 91.5169 14.5903 91.5458C14.5821 91.5568 14.5738 91.5692 14.5655 91.5802C9.3052 98.0255 5.55627 104.45 3.81476 109.953C9.46778 108.789 16.2464 105.723 23.2001 101.157C23.2111 101.15 23.2221 101.145 23.2331 101.138C23.2648 101.119 23.2965 101.099 23.3282 101.081C23.3502 101.07 23.3723 101.059 23.3943 101.05C23.4178 101.039 23.4426 101.026 23.466 101.017C23.4949 101.004 23.5252 100.995 23.5542 100.984C23.5721 100.977 23.5914 100.97 23.6093 100.964C23.6423 100.955 23.6754 100.946 23.7085 100.938C23.725 100.934 23.7415 100.93 23.7594 100.926C23.7925 100.919 23.8256 100.913 23.8586 100.909C23.8766 100.906 23.8958 100.904 23.9138 100.902C23.9441 100.9 23.9758 100.897 24.0061 100.895C24.0281 100.894 24.0502 100.893 24.0736 100.893C24.0998 100.893 24.1259 100.894 24.1535 100.895C24.1797 100.897 24.2072 100.898 24.2334 100.901C24.2554 100.904 24.2789 100.906 24.3009 100.909C24.3312 100.913 24.3602 100.917 24.3905 100.923C24.4111 100.927 24.4304 100.933 24.4511 100.937C24.4814 100.944 24.5117 100.95 24.5406 100.96C24.5627 100.967 24.5834 100.974 24.6054 100.982C24.6316 100.992 24.6591 101 24.6853 101.011C24.7115 101.022 24.7377 101.035 24.7638 101.047C24.7845 101.057 24.8052 101.066 24.8258 101.076C24.8603 101.094 24.892 101.113 24.925 101.134C24.9361 101.141 24.9457 101.145 24.9567 101.152C24.9581 101.153 24.9609 101.154 24.9622 101.156C24.9967 101.179 25.0311 101.204 25.0642 101.23C25.0738 101.237 25.0849 101.244 25.0931 101.252C25.1193 101.274 25.1455 101.298 25.1703 101.321C25.1854 101.335 25.2006 101.347 25.2158 101.362C25.2309 101.378 25.2447 101.394 25.2598 101.411C25.2819 101.435 25.3053 101.459 25.326 101.484C25.3342 101.495 25.3425 101.506 25.3508 101.517C25.3756 101.548 25.4004 101.582 25.4224 101.615C25.4238 101.617 25.4252 101.619 25.4266 101.621C25.4334 101.632 25.4403 101.645 25.4472 101.656C25.4665 101.688 25.4858 101.718 25.5023 101.751C25.5134 101.772 25.523 101.794 25.5326 101.814C25.545 101.839 25.5574 101.864 25.5671 101.89C25.5781 101.918 25.5878 101.945 25.5974 101.974C25.6043 101.995 25.6126 102.014 25.6181 102.035C25.6277 102.066 25.636 102.097 25.6429 102.128C25.647 102.148 25.6525 102.166 25.6566 102.185C25.6635 102.217 25.6677 102.248 25.6718 102.28C25.6746 102.301 25.6773 102.32 25.6801 102.341C25.6828 102.37 25.6842 102.399 25.6856 102.427C25.687 102.451 25.6883 102.474 25.6883 102.499C25.6883 102.525 25.687 102.55 25.6856 102.575C25.6842 102.602 25.6828 102.63 25.6801 102.658C25.6773 102.68 25.6746 102.702 25.6718 102.724C25.6677 102.754 25.6635 102.784 25.658 102.815C25.6539 102.835 25.6484 102.855 25.6442 102.875C25.6374 102.906 25.6305 102.936 25.6208 102.965C25.6139 102.987 25.607 103.009 25.5988 103.03C25.5891 103.056 25.5809 103.083 25.5698 103.109C25.5588 103.137 25.5464 103.163 25.534 103.189C25.5244 103.21 25.5161 103.229 25.5051 103.25C25.4872 103.283 25.4679 103.316 25.4472 103.349C25.4403 103.36 25.4348 103.371 25.4293 103.381C23.8793 105.775 22.6903 108.093 21.9242 110.208C27.963 108.707 35.567 104.231 42.4297 98.0448C43.0924 97.4441 44.1106 97.4964 44.7058 98.1564ZM16.9835 95.9065L30.8495 83.4059C31.5108 82.8107 32.529 82.8631 33.1242 83.5244C33.7194 84.1843 33.667 85.2039 33.0071 85.7991L19.1411 98.2997C18.8325 98.5766 18.4481 98.7144 18.0637 98.7144C17.6228 98.7144 17.1847 98.5353 16.8678 98.1825C16.2712 97.5198 16.3236 96.5017 16.9835 95.9065Z" fill="url(#paint0_linear_175_1459)"/>
<defs>
<linearGradient id="paint0_linear_175_1459" x1="201.585" y1="148.903" x2="53.3907" y2="219.808" gradientUnits="userSpaceOnUse">
<stop stop-color="#B07E39"/>
<stop offset="0.35" stop-color="#EFB861"/>
<stop offset="1" stop-color="#AE6E2F"/>
</linearGradient>
</defs>
</svg>
