<svg width="54" height="40" viewBox="0 0 54 40" fill="none" xmlns="http://www.w3.org/2000/svg">
<path d="M52.4393 22.3698L20.695 37.7144C20.596 37.7626 20.491 37.7852 20.3878 37.7852C20.128 37.7852 19.8784 37.6419 19.7572 37.3953C19.5874 37.0506 19.732 36.6346 20.08 36.4665L51.8243 21.1218C52.1531 20.9631 52.4003 20.685 52.5203 20.3385C52.6403 19.9921 52.6187 19.6224 52.4579 19.2968L46.9259 8.06981L20.1772 20.9994C20.0782 21.0475 19.9732 21.0701 19.87 21.0701C19.6102 21.0701 19.3606 20.9269 19.2394 20.6802C19.0696 20.3356 19.2142 19.9196 19.5622 19.7514L46.3109 6.82125L45.0719 4.30689L10.2208 21.1533C10.1218 21.2014 10.0168 21.224 9.91356 21.224C9.65376 21.224 9.40416 21.0808 9.28296 20.8342C9.11316 20.4895 9.25776 20.0735 9.60576 19.9053L44.4569 3.05892L44.0122 2.15622C43.852 1.83056 43.5713 1.58572 43.2215 1.46687C42.8717 1.34742 42.4984 1.36941 42.1696 1.52867L10.4248 16.8722C10.0768 17.0409 9.65676 16.8971 9.48696 16.5524C9.31716 16.2078 9.46176 15.7918 9.80976 15.6236L41.554 0.278919C42.2194 -0.0425822 42.973 -0.0877466 43.6774 0.151745C44.3812 0.39183 44.9477 0.886857 45.2723 1.5459L46.0247 3.07259L53.7185 18.6871C54.3911 20.0521 53.8169 21.7042 52.4393 22.3698ZM11.7676 24.9863C11.8708 24.9863 11.9758 24.9638 12.0748 24.9156L16.0306 23.0033C16.3786 22.8351 16.5232 22.4191 16.3534 22.0744C16.1836 21.7297 15.7636 21.5865 15.4156 21.7547L11.4598 23.6671C11.1118 23.8352 10.9672 24.2512 11.137 24.5959C11.2588 24.8431 11.5078 24.9863 11.7676 24.9863ZM41.4868 21.9508L38.6674 16.2286C38.2654 15.4126 38.6086 14.4255 39.4318 14.0274L45.2093 11.2349C45.6071 11.0424 46.0577 11.0156 46.4783 11.1588C46.8989 11.3021 47.2373 11.598 47.4317 11.992L48.8411 14.8528V14.854L50.2505 17.7148C50.4449 18.1088 50.4719 18.5551 50.3273 18.9717C50.1827 19.3883 49.8839 19.7235 49.4855 19.916L46.5971 21.312L43.7086 22.7079C43.4795 22.819 43.2322 22.8749 42.9832 22.8749C42.8008 22.8749 42.6172 22.8446 42.4396 22.784C42.0196 22.6413 41.6812 22.3448 41.4868 21.9508ZM48.9911 18.324L47.8889 16.0871L45.3977 17.2911L46.6139 19.7591L48.8723 18.6675C48.9551 18.6276 48.9893 18.5575 49.0025 18.5201C49.0151 18.4814 49.0313 18.4054 48.9911 18.324ZM43.5658 13.5751L44.7821 16.0431L47.2733 14.8392L46.1711 12.6023C46.1309 12.5203 46.0607 12.4864 46.0223 12.4734C45.9839 12.4603 45.9071 12.4442 45.8249 12.4841L43.5658 13.5751ZM39.928 15.6194L42.7474 21.3417C42.7876 21.4237 42.8584 21.4576 42.8962 21.4706C42.9347 21.4837 43.0114 21.4998 43.0942 21.4599L45.3527 20.3683L43.8293 17.2763L42.3058 14.1843L40.0474 15.2759C39.9208 15.3372 39.8662 15.4946 39.928 15.6194ZM26.968 27.8311L25.054 23.947C24.8842 23.6023 25.0288 23.1863 25.3768 23.0181L29.2984 21.1224C29.4658 21.0416 29.6584 21.0297 29.8342 21.0897C30.01 21.1497 30.1546 21.2763 30.2362 21.4421L32.1502 25.3263C32.32 25.6709 32.1754 26.0869 31.8274 26.2551L27.9058 28.1508C27.8092 28.1978 27.7036 28.2215 27.598 28.2215C27.5212 28.2215 27.4438 28.2091 27.37 28.1835C27.1942 28.1235 27.0496 27.9963 26.968 27.8311ZM26.6224 23.9618L27.9214 26.5974L30.5824 25.3108L29.2834 22.6752L26.6224 23.9618ZM37.5676 17.8985L39.4816 21.7826C39.6514 22.1273 39.5068 22.5433 39.1588 22.7115L35.2372 24.6072C35.1406 24.6541 35.035 24.6779 34.9294 24.6779C34.8526 24.6779 34.7752 24.6654 34.7014 24.6399C34.5256 24.5799 34.381 24.4533 34.2994 24.2875L32.3854 20.4033C32.2156 20.0586 32.3602 19.6427 32.7082 19.4745L36.6298 17.5787C36.7972 17.4979 36.9898 17.486 37.1656 17.5461C37.3414 17.6061 37.486 17.7327 37.5676 17.8985ZM37.9132 21.7672L36.6142 19.1316L33.9532 20.4182L35.2522 23.0538L37.9132 21.7672ZM0.701739 24.5234C0.80494 24.5234 0.90994 24.5008 1.00894 24.4527L6.59975 21.7505C6.94775 21.5824 7.09236 21.1664 6.92255 20.8217C6.75275 20.477 6.33275 20.3338 5.98475 20.502L0.393939 23.2041C0.0459377 23.3723 -0.0986627 23.7883 0.0711377 24.133C0.192338 24.3796 0.441939 24.5234 0.701739 24.5234ZM9.49356 24.5157C9.32376 24.171 8.90376 24.0278 8.55576 24.196L0.401739 28.1378C0.0537377 28.3059 -0.0908627 28.7219 0.0789377 29.0666C0.200738 29.3132 0.449739 29.4564 0.709539 29.4564C0.81274 29.4564 0.91774 29.4339 1.01674 29.3857L9.17076 25.4439C9.51876 25.2763 9.66336 24.8604 9.49356 24.5157ZM7.13076 30.5951C7.25256 30.8417 7.50156 30.9849 7.76136 30.9849C7.86456 30.9849 7.96956 30.9623 8.06856 30.9142L19.3138 25.4784C19.6618 25.3102 19.8064 24.8942 19.6366 24.5495C19.4668 24.2049 19.0468 24.0617 18.6988 24.2298L7.45356 29.6656C7.10556 29.8344 6.96096 30.2504 7.13076 30.5951ZM19.6444 29.4838C19.4746 29.1391 19.0546 28.9959 18.7066 29.1641L5.30975 35.6398C4.96175 35.808 4.81715 36.224 4.98695 36.5687C5.10875 36.8153 5.35775 36.9585 5.61755 36.9585C5.72075 36.9585 5.82575 36.9359 5.92475 36.8878L19.3216 30.412C19.6696 30.2439 19.8142 29.8285 19.6444 29.4838ZM23.566 32.5253C23.3962 32.1806 22.9762 32.0374 22.6282 32.2055L9.23136 38.6813C8.88336 38.8495 8.73876 39.2655 8.90856 39.6102C9.03036 39.8568 9.27936 40 9.53916 40C9.64236 40 9.74736 39.9774 9.84636 39.9293L23.2432 33.4535C23.5912 33.2859 23.7358 32.8699 23.566 32.5253Z" fill="url(#paint0_linear_1_104)"/>
<defs>
<linearGradient id="paint0_linear_1_104" x1="87.7869" y1="52.3077" x2="29.1176" y2="87.1069" gradientUnits="userSpaceOnUse">
<stop stop-color="#B07E39"/>
<stop offset="0.35" stop-color="#EFB861"/>
<stop offset="1" stop-color="#AE6E2F"/>
</linearGradient>
</defs>
</svg>
