<svg width="51" height="50" viewBox="0 0 51 50" fill="none" xmlns="http://www.w3.org/2000/svg">
<path d="M13.4653 30.682L11.3125 29.8619C10.9906 29.7384 10.6292 29.9005 10.5061 30.2229C10.3831 30.5457 10.5452 30.9066 10.8676 31.0296L13.0204 31.8503C13.0934 31.8784 13.1687 31.8913 13.2426 31.8913C13.4944 31.8913 13.7314 31.7377 13.8267 31.4888C13.9498 31.166 13.7876 30.8051 13.4653 30.682Z" fill="url(#paint0_linear_175_1498)"/>
<path d="M19.2897 32.9017L17.1373 32.0815C16.8155 31.958 16.454 32.1201 16.3305 32.443C16.2075 32.7658 16.3696 33.1262 16.6925 33.2497L18.8448 34.0699C18.9178 34.098 18.9931 34.1109 19.067 34.1109C19.3188 34.1109 19.5563 33.9578 19.6511 33.7084C19.7742 33.3856 19.612 33.0252 19.2897 32.9017Z" fill="url(#paint1_linear_175_1498)"/>
<path d="M25.1141 35.1222L22.9617 34.3021C22.6389 34.1781 22.2784 34.3407 22.1549 34.663C22.0319 34.9858 22.194 35.3468 22.5169 35.4698L24.6692 36.2904C24.7427 36.3186 24.8175 36.3314 24.8919 36.3314C25.1437 36.3314 25.3807 36.1779 25.476 35.929C25.599 35.6062 25.4369 35.2452 25.1141 35.1222Z" fill="url(#paint2_linear_175_1498)"/>
<path d="M0.5 23.5378C0.5 25.9429 2.45641 27.8988 4.86103 27.8988H5.7689L4.12052 32.2255C3.26462 34.4728 4.39613 36.9971 6.64292 37.8534L37.759 49.7139C38.2601 49.9051 38.7827 50 39.3053 50C39.9133 50 40.5203 49.8713 41.0939 49.6143C42.1596 49.1365 42.974 48.2758 43.3869 47.1915L50.2141 29.2716C51.07 27.0248 49.939 24.5001 47.6917 23.6437L42.5201 21.673V4.36101C42.5201 1.95592 40.5641 0 38.1595 0H4.86103C2.45641 0 0.5 1.95592 0.5 4.36101V23.5378ZM42.2187 46.7466C41.925 47.5191 41.3433 48.1328 40.5823 48.4737C39.8217 48.8151 38.9768 48.8404 38.2039 48.5457L7.08779 36.6852C5.48519 36.0744 4.6784 34.2739 5.28874 32.6709L7.10687 27.8988H23.3718C23.3818 27.9031 23.3885 27.9122 23.399 27.916L46.0972 36.566L42.2187 46.7466ZM40.2385 27.3705L48.4131 30.4861L46.5421 35.3978L26.8645 27.8988H38.1595C38.9115 27.8988 39.62 27.7072 40.2385 27.3705ZM47.2468 24.8119C48.8494 25.4227 49.6567 27.2237 49.0459 28.8258L48.8585 29.3183L41.38 26.4679C42.0857 25.6926 42.5201 24.6665 42.5201 23.5378V23.0105L47.2468 24.8119ZM1.74975 4.36101C1.74975 2.64588 3.14542 1.24975 4.86103 1.24975H38.1595C39.8747 1.24975 41.2703 2.64588 41.2703 4.36101V23.5378C41.2703 25.253 39.8747 26.6491 38.1595 26.6491H4.86103C3.14542 26.6491 1.74975 25.253 1.74975 23.5378V4.36101Z" fill="url(#paint3_linear_175_1498)"/>
<path d="M6.0817 16.7813C5.73648 16.7813 5.45658 17.0607 5.45658 17.4059C5.45658 17.7516 5.73648 18.031 6.0817 18.031H10.4995C10.8447 18.031 11.1246 17.7516 11.1246 17.4059C11.1246 17.0607 10.8447 16.7813 10.4995 16.7813H6.0817Z" fill="url(#paint4_linear_175_1498)"/>
<path d="M35.8832 16.7813H31.4654C31.1202 16.7813 30.8403 17.0607 30.8403 17.4059C30.8403 17.7516 31.1202 18.031 31.4654 18.031H35.8832C36.2284 18.031 36.5083 17.7516 36.5083 17.4059C36.5083 17.0607 36.2284 16.7813 35.8832 16.7813Z" fill="url(#paint5_linear_175_1498)"/>
<path d="M23.0042 18.031H27.4219C27.7672 18.031 28.0471 17.7516 28.0471 17.4059C28.0471 17.0607 27.7672 16.7813 27.4219 16.7813H23.0042C22.6589 16.7813 22.3791 17.0607 22.3791 17.4059C22.3791 17.7516 22.6589 18.031 23.0042 18.031Z" fill="url(#paint6_linear_175_1498)"/>
<path d="M14.5429 18.031H18.9612C19.3059 18.031 19.5858 17.7516 19.5858 17.4059C19.5858 17.0607 19.3059 16.7813 18.9612 16.7813H14.5429C14.1977 16.7813 13.9178 17.0607 13.9178 17.4059C13.9178 17.7516 14.1977 18.031 14.5429 18.031Z" fill="url(#paint7_linear_175_1498)"/>
<path d="M23.0042 22.8221H28.2421C28.5873 22.8221 28.8672 22.5427 28.8672 22.197C28.8672 21.8518 28.5873 21.5724 28.2421 21.5724H23.0042C22.6589 21.5724 22.3791 21.8518 22.3791 22.197C22.3791 22.5427 22.6589 22.8221 23.0042 22.8221Z" fill="url(#paint8_linear_175_1498)"/>
<path d="M23.0042 6.32647H35.8832C36.2284 6.32647 36.5083 6.04705 36.5083 5.70183C36.5083 5.35614 36.2284 5.07672 35.8832 5.07672H23.0042C22.6589 5.07672 22.3791 5.35614 22.3791 5.70183C22.3791 6.04705 22.6589 6.32647 23.0042 6.32647Z" fill="url(#paint9_linear_175_1498)"/>
<path d="M23.0042 11.1185H35.8832C36.2284 11.1185 36.5083 10.8391 36.5083 10.4934C36.5083 10.1482 36.2284 9.8683 35.8832 9.8683H23.0042C22.6589 9.8683 22.3791 10.1482 22.3791 10.4934C22.3791 10.8391 22.6589 11.1185 23.0042 11.1185Z" fill="url(#paint10_linear_175_1498)"/>
<path d="M6.05595 22.8221H19.4909C19.8357 22.8221 20.1156 22.5427 20.1156 22.197C20.1156 21.8518 19.8357 21.5724 19.4909 21.5724H6.05595C5.71073 21.5724 5.43083 21.8518 5.43083 22.197C5.43083 22.5427 5.71073 22.8221 6.05595 22.8221Z" fill="url(#paint11_linear_175_1498)"/>
<path d="M7.07969 13.5126H12.217C13.1263 13.5126 13.8654 12.7731 13.8654 11.8643V6.72509C13.8654 5.81627 13.1263 5.07672 12.217 5.07672H7.07969C6.17086 5.07672 5.43083 5.81627 5.43083 6.72509V11.8643C5.43083 12.7731 6.17086 13.5126 7.07969 13.5126ZM6.68106 6.72509C6.68106 6.50576 6.85987 6.32647 7.07969 6.32647H12.217C12.4368 6.32647 12.6156 6.50576 12.6156 6.72509V11.8643C12.6156 12.0841 12.4368 12.2629 12.217 12.2629H7.07969C6.85987 12.2629 6.68106 12.0841 6.68106 11.8643V6.72509Z" fill="url(#paint12_linear_175_1498)"/>
<path d="M39.096 36.7782L34.3006 34.9353C33.8886 34.7765 33.4409 34.7903 33.0389 34.9682C32.6365 35.148 32.328 35.4727 32.1701 35.8837L30.3272 40.681C30.0011 41.5302 30.4269 42.4853 31.2751 42.811L36.0701 44.6529C36.2622 44.7268 36.463 44.7635 36.6628 44.7635C36.8902 44.7635 37.1177 44.7159 37.3313 44.621C37.7342 44.4417 38.0432 44.1165 38.201 43.7055L40.0439 38.9082C40.2018 38.4972 40.1903 38.0494 40.011 37.6465C39.8317 37.2441 39.507 36.936 39.096 36.7782ZM38.8767 38.46L37.0337 43.2573C36.9956 43.3569 36.9207 43.4356 36.8235 43.479C36.7267 43.5214 36.6184 43.5257 36.5188 43.4861L31.7234 41.6442C31.6237 41.6056 31.5455 41.5312 31.5021 41.4344C31.4587 41.3371 31.4559 41.2284 31.494 41.1292L33.3369 36.3319C33.3751 36.2323 33.4499 36.1536 33.5472 36.1102C33.5992 36.0873 33.654 36.0754 33.7093 36.0754C33.7575 36.0754 33.8061 36.0844 33.8524 36.1026L38.6478 37.945C38.747 37.9827 38.8257 38.058 38.869 38.1548C38.912 38.2521 38.9153 38.3608 38.8767 38.46Z" fill="url(#paint13_linear_175_1498)"/>
<defs>
<linearGradient id="paint0_linear_175_1498" x1="81.7841" y1="65.3846" x2="20.2311" y2="92.4288" gradientUnits="userSpaceOnUse">
<stop stop-color="#B07E39"/>
<stop offset="0.35" stop-color="#EFB861"/>
<stop offset="1" stop-color="#AE6E2F"/>
</linearGradient>
<linearGradient id="paint1_linear_175_1498" x1="81.7841" y1="65.3846" x2="20.2311" y2="92.4288" gradientUnits="userSpaceOnUse">
<stop stop-color="#B07E39"/>
<stop offset="0.35" stop-color="#EFB861"/>
<stop offset="1" stop-color="#AE6E2F"/>
</linearGradient>
<linearGradient id="paint2_linear_175_1498" x1="81.7841" y1="65.3846" x2="20.2311" y2="92.4288" gradientUnits="userSpaceOnUse">
<stop stop-color="#B07E39"/>
<stop offset="0.35" stop-color="#EFB861"/>
<stop offset="1" stop-color="#AE6E2F"/>
</linearGradient>
<linearGradient id="paint3_linear_175_1498" x1="81.7841" y1="65.3846" x2="20.2311" y2="92.4288" gradientUnits="userSpaceOnUse">
<stop stop-color="#B07E39"/>
<stop offset="0.35" stop-color="#EFB861"/>
<stop offset="1" stop-color="#AE6E2F"/>
</linearGradient>
<linearGradient id="paint4_linear_175_1498" x1="81.7841" y1="65.3846" x2="20.2311" y2="92.4288" gradientUnits="userSpaceOnUse">
<stop stop-color="#B07E39"/>
<stop offset="0.35" stop-color="#EFB861"/>
<stop offset="1" stop-color="#AE6E2F"/>
</linearGradient>
<linearGradient id="paint5_linear_175_1498" x1="81.7841" y1="65.3846" x2="20.2311" y2="92.4288" gradientUnits="userSpaceOnUse">
<stop stop-color="#B07E39"/>
<stop offset="0.35" stop-color="#EFB861"/>
<stop offset="1" stop-color="#AE6E2F"/>
</linearGradient>
<linearGradient id="paint6_linear_175_1498" x1="81.7841" y1="65.3846" x2="20.2311" y2="92.4288" gradientUnits="userSpaceOnUse">
<stop stop-color="#B07E39"/>
<stop offset="0.35" stop-color="#EFB861"/>
<stop offset="1" stop-color="#AE6E2F"/>
</linearGradient>
<linearGradient id="paint7_linear_175_1498" x1="81.7841" y1="65.3846" x2="20.2311" y2="92.4288" gradientUnits="userSpaceOnUse">
<stop stop-color="#B07E39"/>
<stop offset="0.35" stop-color="#EFB861"/>
<stop offset="1" stop-color="#AE6E2F"/>
</linearGradient>
<linearGradient id="paint8_linear_175_1498" x1="81.7841" y1="65.3846" x2="20.2311" y2="92.4288" gradientUnits="userSpaceOnUse">
<stop stop-color="#B07E39"/>
<stop offset="0.35" stop-color="#EFB861"/>
<stop offset="1" stop-color="#AE6E2F"/>
</linearGradient>
<linearGradient id="paint9_linear_175_1498" x1="81.7841" y1="65.3846" x2="20.2311" y2="92.4288" gradientUnits="userSpaceOnUse">
<stop stop-color="#B07E39"/>
<stop offset="0.35" stop-color="#EFB861"/>
<stop offset="1" stop-color="#AE6E2F"/>
</linearGradient>
<linearGradient id="paint10_linear_175_1498" x1="81.7841" y1="65.3846" x2="20.2311" y2="92.4288" gradientUnits="userSpaceOnUse">
<stop stop-color="#B07E39"/>
<stop offset="0.35" stop-color="#EFB861"/>
<stop offset="1" stop-color="#AE6E2F"/>
</linearGradient>
<linearGradient id="paint11_linear_175_1498" x1="81.7841" y1="65.3846" x2="20.2311" y2="92.4288" gradientUnits="userSpaceOnUse">
<stop stop-color="#B07E39"/>
<stop offset="0.35" stop-color="#EFB861"/>
<stop offset="1" stop-color="#AE6E2F"/>
</linearGradient>
<linearGradient id="paint12_linear_175_1498" x1="81.7841" y1="65.3846" x2="20.2311" y2="92.4288" gradientUnits="userSpaceOnUse">
<stop stop-color="#B07E39"/>
<stop offset="0.35" stop-color="#EFB861"/>
<stop offset="1" stop-color="#AE6E2F"/>
</linearGradient>
<linearGradient id="paint13_linear_175_1498" x1="81.7841" y1="65.3846" x2="20.2311" y2="92.4288" gradientUnits="userSpaceOnUse">
<stop stop-color="#B07E39"/>
<stop offset="0.35" stop-color="#EFB861"/>
<stop offset="1" stop-color="#AE6E2F"/>
</linearGradient>
</defs>
</svg>
