<svg width="30" height="31" viewBox="0 0 30 31" fill="none" xmlns="http://www.w3.org/2000/svg">
<path d="M22.9091 30.1091V20.7273L21.1636 22.4727L20.0727 21.2727L23.6727 17.5636L27.2727 21.2727L26.1818 22.4727L24.5455 20.7273V30.1091H22.9091Z" fill="black"/>
<path d="M22.9091 30.1091V20.7273L21.1636 22.4727L20.0727 21.2727L23.6727 17.5636L27.2727 21.2727L26.1818 22.4727L24.5455 20.7273V30.1091H22.9091Z" fill="url(#paint0_linear_175_522)"/>
<path d="M14.9455 30C6.65455 30 0 23.3455 0 15.0545C0 6.76364 6.65455 0 14.9455 0C23.2364 0 30 6.76364 30 15.0545C30 16.0364 29.8909 17.0182 29.6727 18L29.5636 18.7636L27.9273 18.4364L28.0364 17.6727C28.2545 16.8 28.2545 15.9273 28.2545 15.0545C28.2545 7.63636 22.2545 1.63636 14.8364 1.63636C7.41818 1.63636 1.63636 7.63636 1.63636 15.0545C1.63636 22.4727 7.52727 28.3636 14.9455 28.3636C16.3636 28.3636 17.7818 28.1455 19.0909 27.7091L19.8545 27.4909L20.4 29.0182L19.6364 29.2364C18.1091 29.7818 16.4727 30 14.9455 30Z" fill="black"/>
<path d="M14.9455 30C6.65455 30 0 23.3455 0 15.0545C0 6.76364 6.65455 0 14.9455 0C23.2364 0 30 6.76364 30 15.0545C30 16.0364 29.8909 17.0182 29.6727 18L29.5636 18.7636L27.9273 18.4364L28.0364 17.6727C28.2545 16.8 28.2545 15.9273 28.2545 15.0545C28.2545 7.63636 22.2545 1.63636 14.8364 1.63636C7.41818 1.63636 1.63636 7.63636 1.63636 15.0545C1.63636 22.4727 7.52727 28.3636 14.9455 28.3636C16.3636 28.3636 17.7818 28.1455 19.0909 27.7091L19.8545 27.4909L20.4 29.0182L19.6364 29.2364C18.1091 29.7818 16.4727 30 14.9455 30Z" fill="url(#paint1_linear_175_522)"/>
<path d="M14.9455 25.4182C9.16364 25.4182 4.58182 20.7273 4.58182 15.0545C4.58182 9.27273 9.27273 4.69091 14.9455 4.69091C20.5091 4.69091 25.0909 9.05455 25.3091 14.5091V15.0545L24.1091 15.1636V14.6182C23.7818 9.70909 19.7455 5.89091 14.9455 5.89091C9.81818 5.89091 5.67273 10.0364 5.67273 15.1636C5.67273 20.2909 9.81818 24.4364 14.9455 24.4364C15.9273 24.4364 16.9091 24.3273 17.8909 24L18.4364 23.7818L18.8727 24.8727H18.2182C17.2364 25.3091 16.1455 25.4182 14.9455 25.4182Z" fill="black"/>
<path d="M14.9455 25.4182C9.16364 25.4182 4.58182 20.7273 4.58182 15.0545C4.58182 9.27273 9.27273 4.69091 14.9455 4.69091C20.5091 4.69091 25.0909 9.05455 25.3091 14.5091V15.0545L24.1091 15.1636V14.6182C23.7818 9.70909 19.7455 5.89091 14.9455 5.89091C9.81818 5.89091 5.67273 10.0364 5.67273 15.1636C5.67273 20.2909 9.81818 24.4364 14.9455 24.4364C15.9273 24.4364 16.9091 24.3273 17.8909 24L18.4364 23.7818L18.8727 24.8727H18.2182C17.2364 25.3091 16.1455 25.4182 14.9455 25.4182Z" fill="url(#paint2_linear_175_522)"/>
<path d="M14.1818 21.7091L13.9636 21.6C12.3273 21.1636 11.2364 19.6364 11.2364 17.8909V17.2364H12.7636V18.1091C12.7636 18.7636 13.0909 19.5273 13.6364 19.8545L14.0727 20.1818V15.8182L13.8545 15.7091C12.2182 15.2727 11.1273 13.7455 11.1273 12C11.1273 10.2545 12.2182 8.83636 13.8545 8.29091L14.0727 8.18182V7.09091H15.7091V8.29091L15.9273 8.4C17.5636 8.83636 18.6545 10.3636 18.6545 12.1091V12.8727H17.1273V12C17.1273 11.3455 16.8 10.5818 16.2545 10.2545L15.8182 9.92727V14.2909L16.0364 14.4C17.6727 14.8364 18.7636 16.3636 18.7636 18.1091C18.7636 19.8545 17.6727 21.2727 16.0364 21.8182L15.8182 21.9273V23.1273H14.1818V21.7091ZM15.8182 20.1818L16.2545 19.8545C16.8 19.4182 17.1273 18.7636 17.1273 18.1091C17.1273 17.4545 16.8 16.8 16.2545 16.3636L15.8182 16.0364V20.1818ZM13.7455 10.2545C13.2 10.6909 12.8727 11.3455 12.8727 12C12.8727 12.6545 13.2 13.4182 13.7455 13.7455L14.1818 14.0727V9.92727L13.7455 10.2545Z" fill="black"/>
<path d="M14.1818 21.7091L13.9636 21.6C12.3273 21.1636 11.2364 19.6364 11.2364 17.8909V17.2364H12.7636V18.1091C12.7636 18.7636 13.0909 19.5273 13.6364 19.8545L14.0727 20.1818V15.8182L13.8545 15.7091C12.2182 15.2727 11.1273 13.7455 11.1273 12C11.1273 10.2545 12.2182 8.83636 13.8545 8.29091L14.0727 8.18182V7.09091H15.7091V8.29091L15.9273 8.4C17.5636 8.83636 18.6545 10.3636 18.6545 12.1091V12.8727H17.1273V12C17.1273 11.3455 16.8 10.5818 16.2545 10.2545L15.8182 9.92727V14.2909L16.0364 14.4C17.6727 14.8364 18.7636 16.3636 18.7636 18.1091C18.7636 19.8545 17.6727 21.2727 16.0364 21.8182L15.8182 21.9273V23.1273H14.1818V21.7091ZM15.8182 20.1818L16.2545 19.8545C16.8 19.4182 17.1273 18.7636 17.1273 18.1091C17.1273 17.4545 16.8 16.8 16.2545 16.3636L15.8182 16.0364V20.1818ZM13.7455 10.2545C13.2 10.6909 12.8727 11.3455 12.8727 12C12.8727 12.6545 13.2 13.4182 13.7455 13.7455L14.1818 14.0727V9.92727L13.7455 10.2545Z" fill="url(#paint3_linear_175_522)"/>
<defs>
<linearGradient id="paint0_linear_175_522" x1="48.7705" y1="39.3734" x2="11.7954" y2="55.5601" gradientUnits="userSpaceOnUse">
<stop stop-color="#B07E39"/>
<stop offset="0.35" stop-color="#EFB861"/>
<stop offset="1" stop-color="#AE6E2F"/>
</linearGradient>
<linearGradient id="paint1_linear_175_522" x1="48.7705" y1="39.3734" x2="11.7954" y2="55.5601" gradientUnits="userSpaceOnUse">
<stop stop-color="#B07E39"/>
<stop offset="0.35" stop-color="#EFB861"/>
<stop offset="1" stop-color="#AE6E2F"/>
</linearGradient>
<linearGradient id="paint2_linear_175_522" x1="48.7705" y1="39.3734" x2="11.7954" y2="55.5601" gradientUnits="userSpaceOnUse">
<stop stop-color="#B07E39"/>
<stop offset="0.35" stop-color="#EFB861"/>
<stop offset="1" stop-color="#AE6E2F"/>
</linearGradient>
<linearGradient id="paint3_linear_175_522" x1="48.7705" y1="39.3734" x2="11.7954" y2="55.5601" gradientUnits="userSpaceOnUse">
<stop stop-color="#B07E39"/>
<stop offset="0.35" stop-color="#EFB861"/>
<stop offset="1" stop-color="#AE6E2F"/>
</linearGradient>
</defs>
</svg>
