<svg width="36" height="22" viewBox="0 0 36 22" fill="none" xmlns="http://www.w3.org/2000/svg">
<path d="M33.1525 1.35817H20.0339C19.4237 0.853365 18.661 0.5 17.7966 0.5H14.7966H9.1017C8.54237 0.5 8.0339 0.651442 7.52542 0.903846L3.35593 3.27644H0.508475C0.254237 3.27644 0 3.47837 0 3.78125V17.0577C0 17.3101 0.20339 17.5625 0.508475 17.5625H3.35593L7.52542 19.9351C8.0339 20.238 8.54237 20.3389 9.1017 20.3389H16.983L19.322 21.2981C19.678 21.4495 20.0339 21.5 20.3898 21.5C21.5085 21.5 22.5763 20.8438 22.983 19.7332C23.2881 19.0264 23.2373 18.2692 22.983 17.613C23.0339 17.613 23.0339 17.613 23.0847 17.613C24.2034 17.613 25.2712 16.9567 25.678 15.8462C25.983 15.1394 25.9322 14.3822 25.678 13.726C25.6271 13.5745 25.5254 13.4231 25.4237 13.2716C25.5763 13.2212 25.7288 13.1707 25.9322 13.1202C26.6441 12.8173 27.1525 12.3125 27.4576 11.6058C28.0169 10.1923 27.3559 8.52644 25.8814 7.97115L23.3898 6.96154H33.2034C34.7797 6.96154 36 5.69952 36 4.1851C36 2.62019 34.7288 1.35817 33.1525 1.35817ZM9.1017 19.3798C8.69491 19.3798 8.38983 19.2788 8.0339 19.0769L3.71186 16.6034H3.66102H3.61017H3.55932H3.50847C3.50847 16.6034 3.50847 16.6034 3.45763 16.6034H0.966102V4.28606H3.45763C3.50847 4.28606 3.50847 4.28606 3.55932 4.28606C3.61017 4.28606 3.61017 4.28606 3.66102 4.28606H3.71186L7.98305 1.8125C8.33898 1.5601 8.69491 1.50962 9.1017 1.50962H14.7966H17.7966C18.4576 1.50962 19.0169 1.76202 19.4746 2.21635C19.4746 2.21635 19.4746 2.26683 19.5254 2.26683C20.0339 2.77163 20.339 3.47837 20.339 4.28606V6.50721V11.4543V12.4639H18.8136C17.3898 12.4639 16.2712 11.3534 16.2712 9.9399V4.1851C16.2712 3.93269 16.0678 3.68029 15.7627 3.68029C15.4576 3.68029 15.2542 3.88221 15.2542 4.1851V5.90144C15.2542 7.61779 13.8305 9.03125 12.1017 9.03125C11.8475 9.03125 11.5932 9.23317 11.5932 9.53606C11.5932 9.78846 11.7966 10.0409 12.1017 10.0409C13.3729 10.0409 14.4915 9.48558 15.2542 8.57692V9.88942C15.2542 10.4952 15.4068 11.0505 15.661 11.5553C15.6102 11.6058 15.6102 11.7067 15.5593 11.8077C15.2542 12.5144 15.3051 13.2716 15.5593 13.9279C14.3898 13.8774 13.322 14.5337 12.8644 15.6947C12.5593 16.4014 12.6102 17.1587 12.8644 17.8149C13.1695 18.5216 13.678 19.0264 14.3898 19.3293H14.4407H9.1017V19.3798ZM22.0678 19.3798C21.7119 20.2885 20.6441 20.7428 19.678 20.3894L17.2881 19.4303H17.2373L14.8475 18.4712C13.9322 18.1178 13.4746 17.0577 13.8305 16.0986C14.1356 15.3918 14.7966 14.988 15.5085 14.988C15.7119 14.988 15.9661 15.0385 16.1695 15.1394L17.0847 15.4928L21 17.0577C21.9661 17.4111 22.4237 18.4712 22.0678 19.3798ZM24.7627 15.4928C24.4068 16.4014 23.339 16.8558 22.3729 16.5024L21.4576 16.149L17.5424 14.5841C16.7288 14.2308 16.2712 13.3726 16.4237 12.5649C17.0339 13.1202 17.8983 13.4736 18.8136 13.4736H20.8475C21.1017 13.4736 21.3559 13.2716 21.3559 12.9688V12.2115L23.7966 13.1707C24.2542 13.3726 24.6102 13.6755 24.7627 14.1298C24.9153 14.5841 24.9153 15.0385 24.7627 15.4928ZM25.4746 8.87981C26.3898 9.23317 26.8475 10.2933 26.4915 11.2524C26.2881 11.7067 25.983 12.0601 25.5254 12.2115C25.0678 12.4135 24.5593 12.4135 24.1525 12.2115L21.3051 11.101V7.21394L25.4746 8.87981ZM33.1525 6.0024H21.3051V4.28606C21.3051 3.57933 21.1525 2.97356 20.8475 2.41827H33.2034C34.2203 2.41827 35.0339 3.22596 35.0339 4.23558C35.0339 5.24519 34.1695 6.0024 33.1525 6.0024Z" fill="url(#paint0_linear_64_622)"/>
<defs>
<linearGradient id="paint0_linear_64_622" x1="58.5246" y1="27.9615" x2="24.7893" y2="53.3708" gradientUnits="userSpaceOnUse">
<stop stop-color="#B07E39"/>
<stop offset="0.35" stop-color="#EFB861"/>
<stop offset="1" stop-color="#AE6E2F"/>
</linearGradient>
</defs>
</svg>
