<svg width="44" height="44" viewBox="0 0 44 44" fill="none" xmlns="http://www.w3.org/2000/svg">
<path d="M25.522 17.6337C25.7266 17.6337 25.915 17.5247 26.0173 17.3482C26.1196 17.1712 26.1196 16.9537 26.0173 16.7767L24.5104 14.17C24.4081 13.993 24.2192 13.8844 24.0151 13.8844C23.811 13.8844 23.6221 13.9935 23.5198 14.17L22.013 16.7767C21.9107 16.9537 21.9107 17.1712 22.013 17.3482C22.1153 17.5252 22.3042 17.6337 22.5082 17.6337H23.443V23.7766C22.8357 24.0079 22.403 24.5955 22.403 25.2819C22.403 26.1697 23.1259 26.8923 24.0151 26.8923C24.7027 26.8923 25.291 26.4601 25.5225 25.8534H29.6545V26.7872C29.6545 26.9916 29.7637 27.1798 29.9404 27.282C30.0289 27.3328 30.1278 27.3587 30.2262 27.3587C30.325 27.3587 30.4239 27.3333 30.512 27.282L33.1215 25.7767C33.2987 25.6745 33.4073 25.4858 33.4073 25.2819C33.4073 25.0776 33.2982 24.8893 33.1215 24.7872L30.512 23.2819C30.3348 23.1797 30.117 23.1797 29.9399 23.2819C29.7627 23.384 29.6541 23.5728 29.6541 23.7766V24.7104H25.522C25.3585 24.2812 25.0164 23.9394 24.5868 23.7761V17.6337H25.522ZM30.7983 25.2819V24.7666L31.6919 25.2819L30.7983 25.7972V25.2819ZM24.0151 25.7493C23.7572 25.7493 23.5473 25.5396 23.5473 25.2819C23.5473 25.0243 23.7572 24.8145 24.0151 24.8145C24.273 24.8145 24.483 25.0243 24.483 25.2819C24.483 25.5396 24.273 25.7493 24.0151 25.7493ZM23.4993 16.4907L24.0151 15.598L24.531 16.4907H23.4993ZM41.714 31.4429C42.4036 29.4668 42.753 27.3959 42.753 25.2819C42.753 20.9821 41.2931 17.0172 38.8441 13.8536L40.1866 12.5126L40.7474 13.0729C40.8546 13.18 41.0004 13.2401 41.1517 13.2401C41.3034 13.2401 41.4487 13.18 41.5559 13.0729L43.6912 10.9394C43.9144 10.7164 43.9144 10.3547 43.6912 10.1312L39.1808 5.62564C38.9572 5.40222 38.5955 5.40222 38.3718 5.62564L36.2366 7.75867C36.1294 7.86573 36.0692 8.01093 36.0692 8.16249C36.0692 8.31404 36.1294 8.45924 36.2366 8.56631L36.7974 9.12658L35.455 10.4676C33.0383 8.60102 30.1547 7.31036 27.0118 6.80338V4.82876H29.0227C29.3384 4.82876 29.5948 4.57307 29.5948 4.25724V0.571022C29.5953 0.255689 29.3394 0 29.0232 0H19.0065C18.6909 0 18.4344 0.255689 18.4344 0.571511V4.25773C18.4344 4.57307 18.6904 4.82924 19.0065 4.82924H21.0175V6.80387C12.1054 8.2412 5.27677 15.9793 5.27677 25.2819C5.27677 25.8813 5.30564 26.4856 5.36193 27.0786C5.39178 27.3929 5.67123 27.6237 5.98543 27.5934C6.30012 27.5636 6.53063 27.2844 6.50077 26.9705C6.44743 26.4132 6.42051 25.8451 6.42051 25.2824C6.42051 15.5912 14.3132 7.70684 24.0146 7.70684C28.1393 7.70684 31.9371 9.13293 34.9401 11.5163C34.9675 11.5749 35.0037 11.6307 35.0522 11.6791C35.1295 11.7563 35.2235 11.8047 35.3223 11.8287C36.103 12.4843 36.8258 13.2064 37.4826 13.9866C37.5066 14.0854 37.555 14.1792 37.6323 14.2565C37.6808 14.3049 37.7366 14.3411 37.7953 14.3684C40.1812 17.3688 41.6088 21.162 41.6088 25.2824C41.6088 27.1358 41.323 28.953 40.7582 30.6959C40.2169 30.3414 39.6257 30.0574 38.9963 29.8589C39.4485 28.381 39.6776 26.8449 39.6776 25.2824C39.6776 16.655 32.6512 9.636 24.0146 9.636C15.3781 9.636 8.35219 16.654 8.35219 25.2819C8.35219 25.8862 8.38694 26.4944 8.45546 27.0898C8.49167 27.4032 8.77553 27.6281 9.08924 27.5919C9.40295 27.5557 9.62807 27.2722 9.59186 26.9588C9.54977 26.5941 9.52285 26.224 9.50817 25.8529H11.4286C11.7443 25.8529 12.0007 25.5972 12.0007 25.2814C12.0007 24.9661 11.7448 24.7099 11.4286 24.7099H9.50817C9.8023 17.1664 15.891 11.0841 23.443 10.7898V12.7082C23.443 13.0235 23.699 13.2797 24.0151 13.2797C24.3313 13.2797 24.5872 13.024 24.5872 12.7082V10.7898C32.1388 11.0836 38.228 17.1659 38.5221 24.7099H36.6017C36.286 24.7099 36.0295 24.9656 36.0295 25.2814C36.0295 25.5968 36.2855 25.8529 36.6017 25.8529H38.5231C38.4736 27.1324 38.2573 28.3898 37.8785 29.6032C37.5428 29.5548 37.1997 29.5284 36.8503 29.5284C32.9081 29.5284 29.7005 32.7326 29.7005 36.6706C29.7005 37.3115 29.7867 37.9324 29.9462 38.5235C28.2519 39.2832 26.4538 39.7017 24.5877 39.7731V37.8547C24.5877 37.5393 24.3318 37.2832 24.0156 37.2832C23.6995 37.2832 23.4435 37.5388 23.4435 37.8547V39.7731C19.2948 39.6117 15.4363 37.7026 12.7862 34.476C12.5856 34.232 12.2253 34.1968 11.9811 34.3968C11.7369 34.5967 11.7012 34.957 11.9019 35.201C14.8921 38.8408 19.307 40.9283 24.0156 40.9283C26.2199 40.9283 28.342 40.4815 30.3333 39.602C30.604 40.1999 30.9534 40.7543 31.3704 41.2515C29.0629 42.3163 26.5928 42.8575 24.0161 42.8575C20.1048 42.8575 16.4024 41.6025 13.3084 39.2289C13.0578 39.0363 12.6986 39.0837 12.5063 39.334C12.3139 39.5844 12.3609 39.9432 12.6115 40.1353C15.9062 42.6634 19.8493 44 24.0151 44C26.8997 44 29.659 43.3635 32.2249 42.1104C33.4729 43.1708 35.0874 43.8128 36.8503 43.8128C40.7924 43.8128 44 40.6086 44 36.6706C43.9995 34.608 43.1186 32.7477 41.714 31.4429ZM38.7771 6.8376L42.4784 10.5351L41.1521 11.8604L37.4503 8.16249L38.7771 6.8376ZM19.5787 1.14302H28.4511V3.68671H19.5787V1.14302ZM22.1622 6.65476V4.82924H25.8685V6.65476C25.2587 6.59462 24.6406 6.56333 24.0156 6.56333C23.3897 6.56333 22.7715 6.59462 22.1622 6.65476ZM36.3433 11.1975L37.6069 9.9352L39.3776 11.704L38.1139 12.9663C37.5638 12.3386 36.9721 11.7475 36.3433 11.1975ZM36.8498 42.6697C33.5385 42.6697 30.8443 39.9784 30.8443 36.6706C30.8443 33.3628 33.5385 30.6714 36.8498 30.6714C40.1611 30.6714 42.8553 33.3628 42.8553 36.6706C42.8553 39.9789 40.1611 42.6697 36.8498 42.6697ZM40.6211 34.4549L36.6437 39.5858C36.5493 39.7076 36.4098 39.7863 36.2566 39.8039C36.2351 39.8063 36.2131 39.8078 36.1915 39.8078C36.0604 39.8078 35.9326 39.7628 35.8299 39.6792L33.1685 37.5115C32.9238 37.312 32.8871 36.9522 33.0867 36.7077C33.2864 36.4628 33.6466 36.4266 33.8918 36.6261L36.0985 38.4232L39.7167 33.7558C39.91 33.5065 40.2698 33.4605 40.5193 33.6536C40.7689 33.8468 40.8149 34.2056 40.6211 34.4549ZM0 29.3255C0 29.0102 0.255959 28.754 0.572115 28.754H14.3396C14.6552 28.754 14.9117 29.0097 14.9117 29.3255C14.9117 29.6408 14.6557 29.897 14.3396 29.897H0.572115C0.255959 29.8965 0 29.6408 0 29.3255ZM5.45736 32.206H15.7432C16.0589 32.206 16.3153 32.4617 16.3153 32.7776C16.3153 33.0929 16.0594 33.3491 15.7432 33.3491H5.45736C5.14169 33.3491 4.88524 33.0934 4.88524 32.7776C4.88524 32.4617 5.1412 32.206 5.45736 32.206ZM0 36.2296C0 35.9143 0.255959 35.6581 0.572115 35.6581H10.8579C11.1736 35.6581 11.4301 35.9138 11.4301 36.2296C11.4301 36.5454 11.1741 36.8011 10.8579 36.8011H0.572115C0.255959 36.8011 0 36.5454 0 36.2296ZM8.30717 40.2532H0.572115C0.256448 40.2532 0 39.9975 0 39.6816C0 39.3658 0.255959 39.1101 0.572115 39.1101H8.30717C8.62283 39.1101 8.87928 39.3658 8.87928 39.6816C8.87928 39.9975 8.62283 40.2532 8.30717 40.2532ZM13.8355 43.3688C13.8355 43.6842 13.5795 43.9404 13.2634 43.9404H5.52832C5.21266 43.9404 4.95621 43.6847 4.95621 43.3688C4.95621 43.0535 5.21217 42.7973 5.52832 42.7973H13.2634C13.5795 42.7973 13.8355 43.0535 13.8355 43.3688Z" fill="url(#paint0_linear_1_98)"/>
<defs>
<linearGradient id="paint0_linear_1_98" x1="71.5301" y1="57.5384" x2="17.3634" y2="81.3374" gradientUnits="userSpaceOnUse">
<stop stop-color="#B07E39"/>
<stop offset="0.35" stop-color="#EFB861"/>
<stop offset="1" stop-color="#AE6E2F"/>
</linearGradient>
</defs>
</svg>
