<svg width="128" height="128" viewBox="0 0 128 128" fill="none" xmlns="http://www.w3.org/2000/svg">
<path d="M47.018 12.2311C47.3027 11.52 47.872 11.0933 48.5836 11.0933L58.6885 10.6667L62.2466 0.995556C62.5313 0.426667 63.1006 0 63.8122 0C64.5238 0 65.0931 0.426667 65.3777 1.13778L68.7935 10.6667L79.0408 11.0933C79.7524 11.0933 80.3217 11.52 80.6063 12.2311C80.891 12.9422 80.6063 13.6533 80.037 14.08L72.0669 20.3378L74.7711 30.1511C74.9134 30.8622 74.7711 31.5733 74.2018 32C73.9171 32.1422 73.6325 32.2844 73.2055 32.2844C72.9209 32.2844 72.4939 32.1422 72.2093 32L63.8122 26.3111L55.2728 32C54.7035 32.4267 53.9919 32.4267 53.4226 32C52.8533 31.5733 52.5686 30.8622 52.8533 30.1511L55.6998 20.48L47.7296 14.08C47.018 13.5111 46.7334 12.8 47.018 12.2311ZM53.1379 14.2222L58.5462 18.4889C59.1155 18.9156 59.2578 19.6267 59.1155 20.1956L57.2653 26.7378L62.9582 22.8978C63.5275 22.4711 64.2392 22.4711 64.8084 22.8978L70.3591 26.5956L68.5089 19.9111C68.3665 19.2 68.5089 18.6311 69.0781 18.2044L74.3441 14.08L67.5126 13.7956C66.801 13.7956 66.2317 13.3689 66.0894 12.6578L63.8122 6.4L61.3927 12.8C61.108 13.3689 60.5387 13.7956 59.8271 13.9378L53.1379 14.2222ZM79.0408 19.7689C78.7561 20.6222 79.1831 21.6178 80.1794 21.9022C101.955 28.8711 116.472 49.0667 116.472 71.9644C116.472 75.3778 116.187 78.7911 115.476 82.0622C115.333 82.9156 115.903 83.7689 116.756 84.0533C116.899 84.0533 117.041 84.0533 117.041 84.0533C117.753 84.0533 118.464 83.4845 118.607 82.7733C119.318 79.2178 119.603 75.6622 119.603 72.1067C119.603 60.0178 115.76 48.4978 108.644 38.8267C101.955 29.2978 92.2768 22.3289 81.1756 18.6311C80.1794 18.4889 79.3254 18.9156 79.0408 19.7689ZM10.4409 84.0533C10.5833 84.0533 10.5833 84.0533 10.7256 84.0533C11.5795 83.9111 12.1488 83.0578 12.0065 82.0622C11.4372 78.7911 11.1526 75.3778 11.1526 71.9644C11.1526 49.0667 25.8119 28.8711 47.5873 21.9022C48.4413 21.6178 49.0106 20.6222 48.7259 19.7689C48.4413 18.9156 47.445 18.3467 46.5911 18.6311C35.3475 22.1867 25.8119 29.1556 18.838 38.6844C11.7218 48.3556 7.87912 59.8756 7.87912 71.9644C7.87912 75.52 8.16376 79.2178 8.87538 82.6311C8.87538 83.4844 9.587 84.0533 10.4409 84.0533ZM94.8387 114.631C85.73 121.173 75.0557 124.729 63.8122 124.729C52.5686 124.729 41.8944 121.316 32.7857 114.631C32.0741 114.062 30.9355 114.204 30.5085 115.058C30.0816 115.911 30.0816 116.907 30.9355 117.333C40.4712 124.302 51.857 128 63.8122 128C75.7673 128 87.1532 124.302 96.8312 117.333C97.5428 116.764 97.6851 115.769 97.2582 115.058C96.5465 114.204 95.5503 114.062 94.8387 114.631ZM127.146 95.5733L119.176 101.831L121.88 111.644C122.022 112.356 121.88 113.067 121.311 113.493C120.742 113.92 120.03 113.92 119.461 113.493L111.064 107.804L102.524 113.493C102.239 113.636 101.955 113.778 101.67 113.778C101.386 113.778 100.959 113.636 100.674 113.493C100.105 113.067 99.82 112.356 100.105 111.644L102.951 101.973L94.981 95.5733C94.4117 95.1467 94.2694 94.4356 94.4117 93.7244C94.6963 93.0133 95.2656 92.5867 95.9772 92.5867L106.082 92.16L109.64 82.4889C109.925 81.7778 110.494 81.3511 111.206 81.3511C111.917 81.3511 112.487 81.7778 112.771 82.4889L116.187 92.0178L126.434 92.4445C127.146 92.4445 127.715 92.8711 128 93.5822C127.858 94.4356 127.715 95.1467 127.146 95.5733ZM121.595 95.7156L114.764 95.4311C114.052 95.4311 113.483 95.0044 113.341 94.2933L111.064 88.0356L108.644 94.4356C108.359 95.0044 107.79 95.4311 107.078 95.5733L100.389 95.8578L105.798 100.124C106.367 100.551 106.509 101.262 106.367 101.831L104.517 108.373L110.21 104.533C110.779 104.107 111.491 104.107 112.06 104.533L117.61 108.231L115.76 101.547C115.618 100.836 115.76 100.267 116.329 99.84L121.595 95.7156ZM27.6621 111.644C27.8044 112.356 27.6621 113.067 27.0928 113.493C26.8081 113.636 26.5235 113.778 26.0965 113.778C25.8119 113.778 25.3849 113.636 25.1002 113.493L16.7032 107.804L8.16376 113.493C7.59447 113.92 6.88285 113.92 6.31356 113.493C5.74427 113.067 5.45962 112.356 5.74427 111.644L8.59073 101.973L0.620626 95.5733C0.051333 95.1467 -0.0909901 94.4356 0.0513332 93.7244C0.193657 93.0133 0.905273 92.5867 1.61689 92.5867L11.7218 92.16L15.2799 82.4889C15.5646 81.7778 16.1339 81.3511 16.8455 81.3511C17.5571 81.3511 18.1264 81.7778 18.411 82.4889L21.8268 92.0178L32.0741 92.4445C32.7857 92.4445 33.355 92.8711 33.6396 93.5822C33.9243 94.2933 33.6396 95.0044 33.0703 95.4311L25.1002 101.689L27.6621 111.644ZM23.25 108.231L21.3998 101.547C21.2575 100.836 21.3998 100.267 21.9691 99.84L27.2351 95.7156L20.4036 95.4311C19.692 95.4311 19.1227 95.0044 18.9803 94.2933L16.7032 88.0356L14.2837 94.4356C13.999 95.0044 13.4297 95.4311 12.7181 95.5733L6.02891 95.8578L11.4372 100.124C12.0065 100.551 12.1488 101.262 12.0065 101.831L10.1563 108.373L15.8492 104.533C16.4185 104.107 17.1301 104.107 17.6994 104.533L23.25 108.231Z" fill="black"/>
<path d="M47.018 12.2311C47.3027 11.52 47.872 11.0933 48.5836 11.0933L58.6885 10.6667L62.2466 0.995556C62.5313 0.426667 63.1006 0 63.8122 0C64.5238 0 65.0931 0.426667 65.3777 1.13778L68.7935 10.6667L79.0408 11.0933C79.7524 11.0933 80.3217 11.52 80.6063 12.2311C80.891 12.9422 80.6063 13.6533 80.037 14.08L72.0669 20.3378L74.7711 30.1511C74.9134 30.8622 74.7711 31.5733 74.2018 32C73.9171 32.1422 73.6325 32.2844 73.2055 32.2844C72.9209 32.2844 72.4939 32.1422 72.2093 32L63.8122 26.3111L55.2728 32C54.7035 32.4267 53.9919 32.4267 53.4226 32C52.8533 31.5733 52.5686 30.8622 52.8533 30.1511L55.6998 20.48L47.7296 14.08C47.018 13.5111 46.7334 12.8 47.018 12.2311ZM53.1379 14.2222L58.5462 18.4889C59.1155 18.9156 59.2578 19.6267 59.1155 20.1956L57.2653 26.7378L62.9582 22.8978C63.5275 22.4711 64.2392 22.4711 64.8084 22.8978L70.3591 26.5956L68.5089 19.9111C68.3665 19.2 68.5089 18.6311 69.0781 18.2044L74.3441 14.08L67.5126 13.7956C66.801 13.7956 66.2317 13.3689 66.0894 12.6578L63.8122 6.4L61.3927 12.8C61.108 13.3689 60.5387 13.7956 59.8271 13.9378L53.1379 14.2222ZM79.0408 19.7689C78.7561 20.6222 79.1831 21.6178 80.1794 21.9022C101.955 28.8711 116.472 49.0667 116.472 71.9644C116.472 75.3778 116.187 78.7911 115.476 82.0622C115.333 82.9156 115.903 83.7689 116.756 84.0533C116.899 84.0533 117.041 84.0533 117.041 84.0533C117.753 84.0533 118.464 83.4845 118.607 82.7733C119.318 79.2178 119.603 75.6622 119.603 72.1067C119.603 60.0178 115.76 48.4978 108.644 38.8267C101.955 29.2978 92.2768 22.3289 81.1756 18.6311C80.1794 18.4889 79.3254 18.9156 79.0408 19.7689ZM10.4409 84.0533C10.5833 84.0533 10.5833 84.0533 10.7256 84.0533C11.5795 83.9111 12.1488 83.0578 12.0065 82.0622C11.4372 78.7911 11.1526 75.3778 11.1526 71.9644C11.1526 49.0667 25.8119 28.8711 47.5873 21.9022C48.4413 21.6178 49.0106 20.6222 48.7259 19.7689C48.4413 18.9156 47.445 18.3467 46.5911 18.6311C35.3475 22.1867 25.8119 29.1556 18.838 38.6844C11.7218 48.3556 7.87912 59.8756 7.87912 71.9644C7.87912 75.52 8.16376 79.2178 8.87538 82.6311C8.87538 83.4844 9.587 84.0533 10.4409 84.0533ZM94.8387 114.631C85.73 121.173 75.0557 124.729 63.8122 124.729C52.5686 124.729 41.8944 121.316 32.7857 114.631C32.0741 114.062 30.9355 114.204 30.5085 115.058C30.0816 115.911 30.0816 116.907 30.9355 117.333C40.4712 124.302 51.857 128 63.8122 128C75.7673 128 87.1532 124.302 96.8312 117.333C97.5428 116.764 97.6851 115.769 97.2582 115.058C96.5465 114.204 95.5503 114.062 94.8387 114.631ZM127.146 95.5733L119.176 101.831L121.88 111.644C122.022 112.356 121.88 113.067 121.311 113.493C120.742 113.92 120.03 113.92 119.461 113.493L111.064 107.804L102.524 113.493C102.239 113.636 101.955 113.778 101.67 113.778C101.386 113.778 100.959 113.636 100.674 113.493C100.105 113.067 99.82 112.356 100.105 111.644L102.951 101.973L94.981 95.5733C94.4117 95.1467 94.2694 94.4356 94.4117 93.7244C94.6963 93.0133 95.2656 92.5867 95.9772 92.5867L106.082 92.16L109.64 82.4889C109.925 81.7778 110.494 81.3511 111.206 81.3511C111.917 81.3511 112.487 81.7778 112.771 82.4889L116.187 92.0178L126.434 92.4445C127.146 92.4445 127.715 92.8711 128 93.5822C127.858 94.4356 127.715 95.1467 127.146 95.5733ZM121.595 95.7156L114.764 95.4311C114.052 95.4311 113.483 95.0044 113.341 94.2933L111.064 88.0356L108.644 94.4356C108.359 95.0044 107.79 95.4311 107.078 95.5733L100.389 95.8578L105.798 100.124C106.367 100.551 106.509 101.262 106.367 101.831L104.517 108.373L110.21 104.533C110.779 104.107 111.491 104.107 112.06 104.533L117.61 108.231L115.76 101.547C115.618 100.836 115.76 100.267 116.329 99.84L121.595 95.7156ZM27.6621 111.644C27.8044 112.356 27.6621 113.067 27.0928 113.493C26.8081 113.636 26.5235 113.778 26.0965 113.778C25.8119 113.778 25.3849 113.636 25.1002 113.493L16.7032 107.804L8.16376 113.493C7.59447 113.92 6.88285 113.92 6.31356 113.493C5.74427 113.067 5.45962 112.356 5.74427 111.644L8.59073 101.973L0.620626 95.5733C0.051333 95.1467 -0.0909901 94.4356 0.0513332 93.7244C0.193657 93.0133 0.905273 92.5867 1.61689 92.5867L11.7218 92.16L15.2799 82.4889C15.5646 81.7778 16.1339 81.3511 16.8455 81.3511C17.5571 81.3511 18.1264 81.7778 18.411 82.4889L21.8268 92.0178L32.0741 92.4445C32.7857 92.4445 33.355 92.8711 33.6396 93.5822C33.9243 94.2933 33.6396 95.0044 33.0703 95.4311L25.1002 101.689L27.6621 111.644ZM23.25 108.231L21.3998 101.547C21.2575 100.836 21.3998 100.267 21.9691 99.84L27.2351 95.7156L20.4036 95.4311C19.692 95.4311 19.1227 95.0044 18.9803 94.2933L16.7032 88.0356L14.2837 94.4356C13.999 95.0044 13.4297 95.4311 12.7181 95.5733L6.02891 95.8578L11.4372 100.124C12.0065 100.551 12.1488 101.262 12.0065 101.831L10.1563 108.373L15.8492 104.533C16.4185 104.107 17.1301 104.107 17.6994 104.533L23.25 108.231Z" fill="url(#paint0_linear_175_1436)"/>
<path d="M95.1233 60.7289C95.1233 60.5867 94.981 60.5867 94.981 60.4444L85.0184 47.36C84.7337 46.9333 84.1644 46.6489 83.7375 46.6489H43.8869C43.3176 46.6489 42.8907 46.9333 42.606 47.36L32.6434 60.4444C32.6434 60.4444 32.5011 60.5867 32.5011 60.7289C32.2164 61.2978 32.2164 61.8667 32.6434 62.4356L62.389 106.098L62.8159 106.524C62.8159 106.524 62.9582 106.667 63.1006 106.667H63.2429C63.2429 106.667 63.2429 106.667 63.3852 106.667C63.5275 106.667 63.5275 106.667 63.6699 106.667C63.8122 106.667 63.8122 106.667 63.9545 106.667H64.2392C64.3815 106.667 64.3815 106.667 64.5238 106.524C64.5238 106.524 64.6661 106.524 64.6661 106.382L64.9508 106.098L94.6963 62.4356C95.2656 62.0089 95.408 61.2978 95.1233 60.7289ZM83.7375 51.2L90.2843 59.8756H77.0482L83.7375 51.2ZM80.3217 50.0622L73.7748 58.7378L67.2279 50.0622H80.3217ZM70.3591 59.8756H57.123L63.8122 51.2L70.3591 59.8756ZM60.3964 50.0622L53.8495 58.7378L47.3027 50.0622H60.3964ZM43.8869 51.2L50.4338 59.8756H37.1977L43.8869 51.2ZM67.3703 96.9956L73.7748 68.8356C73.9171 67.9822 73.3478 66.9867 72.4939 66.8444C71.64 66.7022 70.6437 67.2711 70.5014 68.1245L63.8122 97.7067L57.123 68.1245C56.9807 67.2711 55.9844 66.7022 55.1305 66.8444C54.2765 66.9867 53.7072 67.9822 53.8495 68.8356L60.2541 96.9956L37.1977 63.1467H90.4266L67.3703 96.9956Z" fill="black"/>
<path d="M95.1233 60.7289C95.1233 60.5867 94.981 60.5867 94.981 60.4444L85.0184 47.36C84.7337 46.9333 84.1644 46.6489 83.7375 46.6489H43.8869C43.3176 46.6489 42.8907 46.9333 42.606 47.36L32.6434 60.4444C32.6434 60.4444 32.5011 60.5867 32.5011 60.7289C32.2164 61.2978 32.2164 61.8667 32.6434 62.4356L62.389 106.098L62.8159 106.524C62.8159 106.524 62.9582 106.667 63.1006 106.667H63.2429C63.2429 106.667 63.2429 106.667 63.3852 106.667C63.5275 106.667 63.5275 106.667 63.6699 106.667C63.8122 106.667 63.8122 106.667 63.9545 106.667H64.2392C64.3815 106.667 64.3815 106.667 64.5238 106.524C64.5238 106.524 64.6661 106.524 64.6661 106.382L64.9508 106.098L94.6963 62.4356C95.2656 62.0089 95.408 61.2978 95.1233 60.7289ZM83.7375 51.2L90.2843 59.8756H77.0482L83.7375 51.2ZM80.3217 50.0622L73.7748 58.7378L67.2279 50.0622H80.3217ZM70.3591 59.8756H57.123L63.8122 51.2L70.3591 59.8756ZM60.3964 50.0622L53.8495 58.7378L47.3027 50.0622H60.3964ZM43.8869 51.2L50.4338 59.8756H37.1977L43.8869 51.2ZM67.3703 96.9956L73.7748 68.8356C73.9171 67.9822 73.3478 66.9867 72.4939 66.8444C71.64 66.7022 70.6437 67.2711 70.5014 68.1245L63.8122 97.7067L57.123 68.1245C56.9807 67.2711 55.9844 66.7022 55.1305 66.8444C54.2765 66.9867 53.7072 67.9822 53.8495 68.8356L60.2541 96.9956L37.1977 63.1467H90.4266L67.3703 96.9956Z" fill="url(#paint1_linear_175_1436)"/>
<defs>
<linearGradient id="paint0_linear_175_1436" x1="208.087" y1="167.385" x2="50.5116" y2="236.618" gradientUnits="userSpaceOnUse">
<stop stop-color="#B07E39"/>
<stop offset="0.35" stop-color="#EFB861"/>
<stop offset="1" stop-color="#AE6E2F"/>
</linearGradient>
<linearGradient id="paint1_linear_175_1436" x1="208.087" y1="167.385" x2="50.5116" y2="236.618" gradientUnits="userSpaceOnUse">
<stop stop-color="#B07E39"/>
<stop offset="0.35" stop-color="#EFB861"/>
<stop offset="1" stop-color="#AE6E2F"/>
</linearGradient>
</defs>
</svg>
