<svg width="51" height="50" viewBox="0 0 51 50" fill="none" xmlns="http://www.w3.org/2000/svg">
<path d="M18.8117 6.87683C18.8117 3.08502 15.727 0 11.9349 0C8.1428 0 5.05748 3.08502 5.05748 6.87683C5.05748 10.6689 8.1428 13.754 11.9349 13.754C15.727 13.754 18.8117 10.6689 18.8117 6.87683ZM6.30748 6.87683C6.30748 3.77411 8.83188 1.25 11.9349 1.25C15.0373 1.25 17.5617 3.77411 17.5617 6.87683C17.5617 9.97955 15.0373 12.504 11.9349 12.504C8.83188 12.504 6.30748 9.97955 6.30748 6.87683Z" fill="url(#paint0_linear_175_1505)"/>
<path d="M45.9424 6.87683C45.9424 3.08502 42.857 0 39.0649 0C35.2728 0 32.1881 3.08502 32.1881 6.87683C32.1881 10.6689 35.2728 13.754 39.0649 13.754C42.857 13.754 45.9424 10.6689 45.9424 6.87683ZM33.4381 6.87683C33.4381 3.77411 35.9625 1.25 39.0649 1.25C42.1679 1.25 44.6924 3.77411 44.6924 6.87683C44.6924 9.97955 42.1679 12.504 39.0649 12.504C35.9625 12.504 33.4381 9.97955 33.4381 6.87683Z" fill="url(#paint1_linear_175_1505)"/>
<path d="M3.84777 33.0042V49.375C3.84777 49.7202 4.12731 50 4.47276 50H19.3964C19.7419 50 20.0214 49.7202 20.0214 49.375V33.0042C21.9159 32.7036 23.3692 31.0587 23.3692 29.0808V21.1835C23.3692 18.8712 21.4881 16.9901 19.1761 16.9901H4.6931C2.3811 16.9901 0.5 18.8712 0.5 21.1835V29.0808C0.5 31.0587 1.95324 32.7036 3.84777 33.0042ZM1.75 21.1835C1.75 19.5605 3.07018 18.2401 4.6931 18.2401H19.1761C20.799 18.2401 22.1192 19.5605 22.1192 21.1835V29.0808C22.1192 30.582 20.8979 31.8033 19.3964 31.8033C19.051 31.8033 18.7714 32.0831 18.7714 32.4283V48.75H5.09776V32.4283C5.09776 32.0831 4.81822 31.8033 4.47276 31.8033C2.9713 31.8033 1.75 30.582 1.75 29.0808V21.1835Z" fill="url(#paint2_linear_175_1505)"/>
<path d="M30.5805 20.3555L27.6367 40.9955C27.6111 41.1746 27.6648 41.3565 27.7832 41.4932C27.9022 41.6299 28.0744 41.7087 28.2556 41.7087H32.8711V49.375C32.8711 49.7202 33.1506 50 33.4961 50H44.6344C44.9798 50 45.2594 49.7202 45.2594 49.375V41.7087H49.8748C50.0561 41.7087 50.2282 41.6299 50.3472 41.4932C50.4656 41.3565 50.5194 41.1746 50.4937 40.9955L47.55 20.3552C47.2754 18.4369 45.6079 16.9901 43.67 16.9901H34.4605C32.5226 16.9901 30.8551 18.4369 30.5805 20.3555ZM34.4605 18.2401H43.67C44.9896 18.2401 46.1255 19.2255 46.3122 20.5319L49.1546 40.4587H44.6344C44.2889 40.4587 44.0094 40.7385 44.0094 41.0837V48.75H34.1211V41.0837C34.1211 40.7385 33.8416 40.4587 33.4961 40.4587H28.9759L31.8183 20.5322C32.005 19.2255 33.1409 18.2401 34.4605 18.2401Z" fill="url(#paint3_linear_175_1505)"/>
<defs>
<linearGradient id="paint0_linear_175_1505" x1="81.7841" y1="65.3846" x2="20.2311" y2="92.4288" gradientUnits="userSpaceOnUse">
<stop stop-color="#B07E39"/>
<stop offset="0.35" stop-color="#EFB861"/>
<stop offset="1" stop-color="#AE6E2F"/>
</linearGradient>
<linearGradient id="paint1_linear_175_1505" x1="81.7841" y1="65.3846" x2="20.2311" y2="92.4288" gradientUnits="userSpaceOnUse">
<stop stop-color="#B07E39"/>
<stop offset="0.35" stop-color="#EFB861"/>
<stop offset="1" stop-color="#AE6E2F"/>
</linearGradient>
<linearGradient id="paint2_linear_175_1505" x1="81.7841" y1="65.3846" x2="20.2311" y2="92.4288" gradientUnits="userSpaceOnUse">
<stop stop-color="#B07E39"/>
<stop offset="0.35" stop-color="#EFB861"/>
<stop offset="1" stop-color="#AE6E2F"/>
</linearGradient>
<linearGradient id="paint3_linear_175_1505" x1="81.7841" y1="65.3846" x2="20.2311" y2="92.4288" gradientUnits="userSpaceOnUse">
<stop stop-color="#B07E39"/>
<stop offset="0.35" stop-color="#EFB861"/>
<stop offset="1" stop-color="#AE6E2F"/>
</linearGradient>
</defs>
</svg>
