<svg width="18" height="18" viewBox="0 0 18 18" fill="none" xmlns="http://www.w3.org/2000/svg">
<path d="M11.25 5.25H12.7575V6.75H11.25V5.25Z" fill="black"/>
<path d="M11.25 5.25H12.7575V6.75H11.25V5.25Z" fill="url(#paint0_linear_64_534)"/>
<path fill-rule="evenodd" clip-rule="evenodd" d="M6.75 6C6.75 3.10051 9.1005 0.75 12 0.75C14.8995 0.75 17.25 3.10051 17.25 6C17.25 8.8995 14.8995 11.25 12 11.25C11.631 11.25 11.2702 11.2118 10.9216 11.139L9.31065 12.75H8.25V14.25H6.75V15.75H5.25V17.25H0.75V13.1894L6.86101 7.07834C6.78819 6.7298 6.75 6.36903 6.75 6ZM6.75 12.75V11.25H8.68935L10.4803 9.45907L10.9103 9.58943C11.2543 9.69368 11.6199 9.75 12 9.75C14.071 9.75 15.75 8.07105 15.75 6C15.75 3.92894 14.071 2.25 12 2.25C9.92895 2.25 8.25 3.92894 8.25 6C8.25 6.38012 8.30632 6.74573 8.41057 7.08965L8.54093 7.51973L2.25 13.8106V15.75H3.75V14.25H5.25V12.75H6.75Z" fill="black"/>
<path fill-rule="evenodd" clip-rule="evenodd" d="M6.75 6C6.75 3.10051 9.1005 0.75 12 0.75C14.8995 0.75 17.25 3.10051 17.25 6C17.25 8.8995 14.8995 11.25 12 11.25C11.631 11.25 11.2702 11.2118 10.9216 11.139L9.31065 12.75H8.25V14.25H6.75V15.75H5.25V17.25H0.75V13.1894L6.86101 7.07834C6.78819 6.7298 6.75 6.36903 6.75 6ZM6.75 12.75V11.25H8.68935L10.4803 9.45907L10.9103 9.58943C11.2543 9.69368 11.6199 9.75 12 9.75C14.071 9.75 15.75 8.07105 15.75 6C15.75 3.92894 14.071 2.25 12 2.25C9.92895 2.25 8.25 3.92894 8.25 6C8.25 6.38012 8.30632 6.74573 8.41057 7.08965L8.54093 7.51973L2.25 13.8106V15.75H3.75V14.25H5.25V12.75H6.75Z" fill="url(#paint1_linear_64_534)"/>
<defs>
<linearGradient id="paint0_linear_64_534" x1="27.5738" y1="22.3269" x2="7.26126" y2="31.2515" gradientUnits="userSpaceOnUse">
<stop stop-color="#B07E39"/>
<stop offset="0.35" stop-color="#EFB861"/>
<stop offset="1" stop-color="#AE6E2F"/>
</linearGradient>
<linearGradient id="paint1_linear_64_534" x1="27.5738" y1="22.3269" x2="7.26126" y2="31.2515" gradientUnits="userSpaceOnUse">
<stop stop-color="#B07E39"/>
<stop offset="0.35" stop-color="#EFB861"/>
<stop offset="1" stop-color="#AE6E2F"/>
</linearGradient>
</defs>
</svg>
