<svg width="27" height="50" viewBox="0 0 27 50" fill="none" xmlns="http://www.w3.org/2000/svg">
<path d="M23.7064 0H3.29356C1.47735 0 0 1.50183 0 3.34814V46.6519C0 48.498 1.47735 50 3.29356 50H23.7064C25.5225 50 27 48.4982 27 46.6519V3.34814C27 1.50183 25.5227 0 23.7064 0ZM25.7698 46.6519C25.7698 47.8087 24.8438 48.75 23.7058 48.75H3.29356C2.15556 48.75 1.22962 47.8087 1.22962 46.6519V41.0038H25.7698V46.6519ZM25.7698 39.7538H1.22962V6.9281H25.7698V39.7538ZM25.7698 5.6781H1.22962V3.34814C1.22962 2.19128 2.15556 1.25 3.29356 1.25H23.7058C24.8438 1.25 25.7698 2.19128 25.7698 3.34814V5.6781Z" fill="url(#paint0_linear_175_1502)"/>
<path d="M13.5 42.4119C12.1044 42.4119 10.9688 43.5663 10.9688 44.985C10.9688 46.4037 12.1044 47.5575 13.5 47.5575C14.8956 47.5575 16.0312 46.4031 16.0312 44.9844C16.0312 43.5657 14.8956 42.4119 13.5 42.4119ZM13.5 46.3081C12.7825 46.3081 12.1985 45.7144 12.1985 44.985C12.1985 44.2556 12.7825 43.6619 13.5 43.6619C14.2175 43.6619 14.8015 44.2556 14.8015 44.985C14.8015 45.7144 14.2175 46.3081 13.5 46.3081Z" fill="url(#paint1_linear_175_1502)"/>
<defs>
<linearGradient id="paint0_linear_175_1502" x1="43.8934" y1="65.3846" x2="6.35163" y2="74.2916" gradientUnits="userSpaceOnUse">
<stop stop-color="#B07E39"/>
<stop offset="0.35" stop-color="#EFB861"/>
<stop offset="1" stop-color="#AE6E2F"/>
</linearGradient>
<linearGradient id="paint1_linear_175_1502" x1="43.8934" y1="65.3846" x2="6.35163" y2="74.2916" gradientUnits="userSpaceOnUse">
<stop stop-color="#B07E39"/>
<stop offset="0.35" stop-color="#EFB861"/>
<stop offset="1" stop-color="#AE6E2F"/>
</linearGradient>
</defs>
</svg>
