<svg width="125" height="129" viewBox="0 0 125 129" fill="none" xmlns="http://www.w3.org/2000/svg">
<path d="M62.5008 45.8249C54.0774 45.8249 47.2226 52.6783 47.2226 61.1016C47.2226 69.525 54.076 76.3798 62.5008 76.3798C70.9256 76.3798 77.7789 69.5264 77.7789 61.1016C77.7789 52.6783 70.9256 45.8249 62.5008 45.8249ZM62.5008 73.0458C55.9155 73.0458 50.5566 67.6883 50.5566 61.1016C50.5566 54.5164 55.9141 49.1575 62.5008 49.1575C69.0875 49.1575 74.4449 54.5149 74.4449 61.1016C74.4449 67.6883 69.0875 73.0458 62.5008 73.0458ZM105.992 65.4224C105.112 65.6948 104.62 66.6274 104.893 67.5072C106.203 71.7424 106.868 76.1616 106.868 80.6392C106.868 97.3391 97.5917 111.913 83.9221 119.481V94.1933C83.9221 92.0871 84.7235 90.3146 86.3035 88.9243L99.4983 77.3067C101.796 75.2832 103.011 72.5966 103.011 69.535V50.5592C103.011 45.9704 99.2773 42.2385 94.6884 42.2385C90.0996 42.2385 86.3663 45.9718 86.3663 50.5592V63.5201C86.3663 65.6263 85.5649 67.3988 83.9849 68.7892L73.5437 77.9826C72.2047 79.1619 70.6874 79.7337 68.9035 79.7337H56.0938C54.3099 79.7337 52.7926 79.1605 51.4536 77.9826L41.0124 68.7892C39.4324 67.3974 38.631 65.6249 38.631 63.5201V50.5592C38.631 45.9704 34.8977 42.2385 30.3089 42.2385C25.72 42.2385 21.9882 45.9718 21.9882 50.5592V69.535C21.9882 72.5966 23.2031 75.2832 25.5004 77.3067L38.6952 88.9257C40.2752 90.3175 41.0766 92.09 41.0766 94.1948V119.482C27.407 111.913 18.1309 97.3405 18.1309 80.6406C18.1309 76.163 18.7954 71.7453 20.1059 67.5086C20.3782 66.6288 19.8848 65.6962 19.0064 65.4238C18.128 65.1515 17.194 65.6434 16.9216 66.5233C15.5127 71.0793 14.7983 75.8293 14.7983 80.6406C14.7983 99.548 25.8555 115.921 41.8438 123.633C41.9707 123.714 42.1076 123.78 42.2545 123.826C48.4062 126.719 55.2667 128.34 62.5008 128.34C69.7349 128.34 76.5954 126.719 82.7442 123.826C82.8911 123.78 83.0294 123.714 83.1564 123.633C99.1447 115.921 110.202 99.548 110.202 80.6406C110.202 75.8279 109.487 71.0779 108.077 66.5233C107.805 65.6434 106.874 65.15 105.992 65.4224ZM44.4134 121.149V94.1933C44.4134 91.1317 43.1985 88.4451 40.9012 86.4216L27.7064 74.804C26.1264 73.4123 25.325 71.6397 25.325 69.535V50.5592C25.325 47.8085 27.5624 45.5711 30.3132 45.5711C33.0639 45.5711 35.3013 47.8085 35.3013 50.5592V63.5201C35.3013 66.5817 36.5163 69.2683 38.8135 71.2918L49.2547 80.4852C51.2012 82.1993 53.5042 83.0691 56.0981 83.0691H68.9078C71.5017 83.0691 73.8047 82.1993 75.7512 80.4852L86.1923 71.2918C88.4896 69.2683 89.7046 66.5817 89.7046 63.5201V50.5592C89.7046 47.8085 91.9419 45.5711 94.6927 45.5711C97.4434 45.5711 99.6808 47.8085 99.6808 50.5592V69.535C99.6808 71.6397 98.8794 73.4137 97.2994 74.804L84.1047 86.4216C81.8074 88.4451 80.5924 91.1317 80.5924 94.1933V121.149C75.0653 123.626 68.9434 125.006 62.5051 125.006C56.0667 125.006 49.9406 123.626 44.4134 121.149ZM53.0892 22.2389L50.8005 32.3079C50.655 32.9481 50.8989 33.6141 51.4236 34.0091C51.7188 34.2315 52.071 34.3442 52.4261 34.3442C52.7028 34.3442 52.9794 34.2758 53.2318 34.136L62.8544 28.8199L71.7227 34.1089C72.2874 34.4454 72.9961 34.4198 73.5337 34.0419C74.0713 33.664 74.3366 33.0066 74.2125 32.3621L72.1305 21.5673L79.9008 14.7667C80.3956 14.3346 80.5896 13.6515 80.3971 13.0241C80.2046 12.3967 79.6612 11.9403 79.0096 11.8591L68.0993 10.5029L64.0337 1.0115C63.7742 0.406876 63.1853 0.0118749 62.5279 0.000466924C61.8591 -0.0152191 61.2687 0.365522 60.9907 0.960164L56.3305 10.9165L46.0476 11.8505C45.3931 11.9104 44.8355 12.3482 44.6216 12.9699C44.4077 13.5917 44.5803 14.2804 45.0594 14.7282L53.0892 22.2389ZM57.5854 14.1506C58.1757 14.0965 58.6934 13.7343 58.9443 13.1967L62.4338 5.74153L65.4112 12.6933C65.6451 13.238 66.1499 13.6173 66.7374 13.6915L74.9055 14.7068L69.2144 19.6878C68.7681 20.0785 68.5627 20.676 68.6754 21.2578L70.234 29.3404L63.7386 25.4674C63.2295 25.1636 62.5978 25.1536 62.0787 25.4403L54.8745 29.4202L56.5515 22.0464C56.6827 21.4689 56.4973 20.8642 56.0653 20.4593L50.0533 14.8365L57.5854 14.1506ZM23.6466 40.0382C24.2113 40.3747 24.92 40.3491 25.4576 39.9712C25.9952 39.5933 26.2605 38.9359 26.1364 38.2914L24.3582 29.0737L30.9877 23.2728C31.4825 22.8407 31.6764 22.1576 31.4839 21.5302C31.2914 20.9027 30.7481 20.4464 30.0964 20.3651L20.7804 19.2072L17.3109 11.109C17.0528 10.5058 16.4639 10.1094 15.8065 10.0994C15.152 10.0923 14.5473 10.4644 14.2693 11.0591L10.2893 19.5609L1.51656 20.358C0.862031 20.4179 0.304466 20.8557 0.0905658 21.4774C-0.123334 22.0992 0.0492115 22.7879 0.528347 23.2357L7.38597 29.647L5.43235 38.2372C5.2869 38.8774 5.53075 39.5434 6.05551 39.9384C6.3507 40.1608 6.70292 40.2735 7.05799 40.2735C7.33463 40.2735 7.61128 40.2051 7.86368 40.0653L16.0817 35.5264L23.6466 40.0382ZM9.50786 35.3495L10.8483 29.453C10.9795 28.8755 10.7941 28.2709 10.362 27.8659L5.52362 23.3412L11.5456 22.7936C12.136 22.7394 12.6536 22.3772 12.9046 21.8396L15.7138 15.839L18.0952 21.3976C18.3291 21.9423 18.8339 22.3216 19.4214 22.3958L25.9967 23.2129L21.4463 27.1942C21 27.585 20.7946 28.1825 20.9073 28.7643L22.1622 35.2697L16.9687 32.1724C16.4596 31.8687 15.8279 31.8587 15.3088 32.1453L9.50786 35.3495ZM124.927 21.5288C124.734 20.9013 124.191 20.445 123.539 20.3637L114.223 19.2058L110.755 11.109C110.497 10.5058 109.907 10.1094 109.251 10.0994C108.599 10.0937 107.992 10.4644 107.713 11.0591L103.734 19.5609L94.9608 20.358C94.3063 20.4179 93.7487 20.8557 93.5348 21.4774C93.3209 22.0992 93.4934 22.7879 93.9726 23.2357L100.829 29.6484L98.8752 38.2386C98.7297 38.8789 98.9735 39.5448 99.4983 39.9398C99.7935 40.1623 100.146 40.2749 100.501 40.2749C100.777 40.2749 101.054 40.2065 101.306 40.0667L109.524 35.5278L117.091 40.0396C117.656 40.3762 118.364 40.3505 118.902 39.9726C119.439 39.5947 119.705 38.9373 119.581 38.2928L117.802 29.0751L124.43 23.2742C124.925 22.8392 125.119 22.1562 124.927 21.5288ZM114.888 27.1942C114.441 27.585 114.236 28.1825 114.349 28.7643L115.604 35.2697L110.41 32.1724C109.901 31.8687 109.269 31.8587 108.75 32.1453L102.951 35.3495L104.291 29.453C104.422 28.8755 104.237 28.2709 103.805 27.8659L98.9664 23.3398L104.988 22.7922C105.579 22.738 106.096 22.3758 106.347 21.8382L109.157 15.8376L111.538 21.3961C111.772 21.9409 112.277 22.3202 112.864 22.3943L119.439 23.2114L114.888 27.1942Z" fill="black"/>
<path d="M62.5008 45.8249C54.0774 45.8249 47.2226 52.6783 47.2226 61.1016C47.2226 69.525 54.076 76.3798 62.5008 76.3798C70.9256 76.3798 77.7789 69.5264 77.7789 61.1016C77.7789 52.6783 70.9256 45.8249 62.5008 45.8249ZM62.5008 73.0458C55.9155 73.0458 50.5566 67.6883 50.5566 61.1016C50.5566 54.5164 55.9141 49.1575 62.5008 49.1575C69.0875 49.1575 74.4449 54.5149 74.4449 61.1016C74.4449 67.6883 69.0875 73.0458 62.5008 73.0458ZM105.992 65.4224C105.112 65.6948 104.62 66.6274 104.893 67.5072C106.203 71.7424 106.868 76.1616 106.868 80.6392C106.868 97.3391 97.5917 111.913 83.9221 119.481V94.1933C83.9221 92.0871 84.7235 90.3146 86.3035 88.9243L99.4983 77.3067C101.796 75.2832 103.011 72.5966 103.011 69.535V50.5592C103.011 45.9704 99.2773 42.2385 94.6884 42.2385C90.0996 42.2385 86.3663 45.9718 86.3663 50.5592V63.5201C86.3663 65.6263 85.5649 67.3988 83.9849 68.7892L73.5437 77.9826C72.2047 79.1619 70.6874 79.7337 68.9035 79.7337H56.0938C54.3099 79.7337 52.7926 79.1605 51.4536 77.9826L41.0124 68.7892C39.4324 67.3974 38.631 65.6249 38.631 63.5201V50.5592C38.631 45.9704 34.8977 42.2385 30.3089 42.2385C25.72 42.2385 21.9882 45.9718 21.9882 50.5592V69.535C21.9882 72.5966 23.2031 75.2832 25.5004 77.3067L38.6952 88.9257C40.2752 90.3175 41.0766 92.09 41.0766 94.1948V119.482C27.407 111.913 18.1309 97.3405 18.1309 80.6406C18.1309 76.163 18.7954 71.7453 20.1059 67.5086C20.3782 66.6288 19.8848 65.6962 19.0064 65.4238C18.128 65.1515 17.194 65.6434 16.9216 66.5233C15.5127 71.0793 14.7983 75.8293 14.7983 80.6406C14.7983 99.548 25.8555 115.921 41.8438 123.633C41.9707 123.714 42.1076 123.78 42.2545 123.826C48.4062 126.719 55.2667 128.34 62.5008 128.34C69.7349 128.34 76.5954 126.719 82.7442 123.826C82.8911 123.78 83.0294 123.714 83.1564 123.633C99.1447 115.921 110.202 99.548 110.202 80.6406C110.202 75.8279 109.487 71.0779 108.077 66.5233C107.805 65.6434 106.874 65.15 105.992 65.4224ZM44.4134 121.149V94.1933C44.4134 91.1317 43.1985 88.4451 40.9012 86.4216L27.7064 74.804C26.1264 73.4123 25.325 71.6397 25.325 69.535V50.5592C25.325 47.8085 27.5624 45.5711 30.3132 45.5711C33.0639 45.5711 35.3013 47.8085 35.3013 50.5592V63.5201C35.3013 66.5817 36.5163 69.2683 38.8135 71.2918L49.2547 80.4852C51.2012 82.1993 53.5042 83.0691 56.0981 83.0691H68.9078C71.5017 83.0691 73.8047 82.1993 75.7512 80.4852L86.1923 71.2918C88.4896 69.2683 89.7046 66.5817 89.7046 63.5201V50.5592C89.7046 47.8085 91.9419 45.5711 94.6927 45.5711C97.4434 45.5711 99.6808 47.8085 99.6808 50.5592V69.535C99.6808 71.6397 98.8794 73.4137 97.2994 74.804L84.1047 86.4216C81.8074 88.4451 80.5924 91.1317 80.5924 94.1933V121.149C75.0653 123.626 68.9434 125.006 62.5051 125.006C56.0667 125.006 49.9406 123.626 44.4134 121.149ZM53.0892 22.2389L50.8005 32.3079C50.655 32.9481 50.8989 33.6141 51.4236 34.0091C51.7188 34.2315 52.071 34.3442 52.4261 34.3442C52.7028 34.3442 52.9794 34.2758 53.2318 34.136L62.8544 28.8199L71.7227 34.1089C72.2874 34.4454 72.9961 34.4198 73.5337 34.0419C74.0713 33.664 74.3366 33.0066 74.2125 32.3621L72.1305 21.5673L79.9008 14.7667C80.3956 14.3346 80.5896 13.6515 80.3971 13.0241C80.2046 12.3967 79.6612 11.9403 79.0096 11.8591L68.0993 10.5029L64.0337 1.0115C63.7742 0.406876 63.1853 0.0118749 62.5279 0.000466924C61.8591 -0.0152191 61.2687 0.365522 60.9907 0.960164L56.3305 10.9165L46.0476 11.8505C45.3931 11.9104 44.8355 12.3482 44.6216 12.9699C44.4077 13.5917 44.5803 14.2804 45.0594 14.7282L53.0892 22.2389ZM57.5854 14.1506C58.1757 14.0965 58.6934 13.7343 58.9443 13.1967L62.4338 5.74153L65.4112 12.6933C65.6451 13.238 66.1499 13.6173 66.7374 13.6915L74.9055 14.7068L69.2144 19.6878C68.7681 20.0785 68.5627 20.676 68.6754 21.2578L70.234 29.3404L63.7386 25.4674C63.2295 25.1636 62.5978 25.1536 62.0787 25.4403L54.8745 29.4202L56.5515 22.0464C56.6827 21.4689 56.4973 20.8642 56.0653 20.4593L50.0533 14.8365L57.5854 14.1506ZM23.6466 40.0382C24.2113 40.3747 24.92 40.3491 25.4576 39.9712C25.9952 39.5933 26.2605 38.9359 26.1364 38.2914L24.3582 29.0737L30.9877 23.2728C31.4825 22.8407 31.6764 22.1576 31.4839 21.5302C31.2914 20.9027 30.7481 20.4464 30.0964 20.3651L20.7804 19.2072L17.3109 11.109C17.0528 10.5058 16.4639 10.1094 15.8065 10.0994C15.152 10.0923 14.5473 10.4644 14.2693 11.0591L10.2893 19.5609L1.51656 20.358C0.862031 20.4179 0.304466 20.8557 0.0905658 21.4774C-0.123334 22.0992 0.0492115 22.7879 0.528347 23.2357L7.38597 29.647L5.43235 38.2372C5.2869 38.8774 5.53075 39.5434 6.05551 39.9384C6.3507 40.1608 6.70292 40.2735 7.05799 40.2735C7.33463 40.2735 7.61128 40.2051 7.86368 40.0653L16.0817 35.5264L23.6466 40.0382ZM9.50786 35.3495L10.8483 29.453C10.9795 28.8755 10.7941 28.2709 10.362 27.8659L5.52362 23.3412L11.5456 22.7936C12.136 22.7394 12.6536 22.3772 12.9046 21.8396L15.7138 15.839L18.0952 21.3976C18.3291 21.9423 18.8339 22.3216 19.4214 22.3958L25.9967 23.2129L21.4463 27.1942C21 27.585 20.7946 28.1825 20.9073 28.7643L22.1622 35.2697L16.9687 32.1724C16.4596 31.8687 15.8279 31.8587 15.3088 32.1453L9.50786 35.3495ZM124.927 21.5288C124.734 20.9013 124.191 20.445 123.539 20.3637L114.223 19.2058L110.755 11.109C110.497 10.5058 109.907 10.1094 109.251 10.0994C108.599 10.0937 107.992 10.4644 107.713 11.0591L103.734 19.5609L94.9608 20.358C94.3063 20.4179 93.7487 20.8557 93.5348 21.4774C93.3209 22.0992 93.4934 22.7879 93.9726 23.2357L100.829 29.6484L98.8752 38.2386C98.7297 38.8789 98.9735 39.5448 99.4983 39.9398C99.7935 40.1623 100.146 40.2749 100.501 40.2749C100.777 40.2749 101.054 40.2065 101.306 40.0667L109.524 35.5278L117.091 40.0396C117.656 40.3762 118.364 40.3505 118.902 39.9726C119.439 39.5947 119.705 38.9373 119.581 38.2928L117.802 29.0751L124.43 23.2742C124.925 22.8392 125.119 22.1562 124.927 21.5288ZM114.888 27.1942C114.441 27.585 114.236 28.1825 114.349 28.7643L115.604 35.2697L110.41 32.1724C109.901 31.8687 109.269 31.8587 108.75 32.1453L102.951 35.3495L104.291 29.453C104.422 28.8755 104.237 28.2709 103.805 27.8659L98.9664 23.3398L104.988 22.7922C105.579 22.738 106.096 22.3758 106.347 21.8382L109.157 15.8376L111.538 21.3961C111.772 21.9409 112.277 22.3202 112.864 22.3943L119.439 23.2114L114.888 27.1942Z" fill="url(#paint0_linear_175_1435)"/>
<defs>
<linearGradient id="paint0_linear_175_1435" x1="203.21" y1="167.83" x2="48.0378" y2="234.232" gradientUnits="userSpaceOnUse">
<stop stop-color="#B07E39"/>
<stop offset="0.35" stop-color="#EFB861"/>
<stop offset="1" stop-color="#AE6E2F"/>
</linearGradient>
</defs>
</svg>
